<svg xmlns="http://www.w3.org/2000/svg" viewBox="0 0 280 200" width="280" height="200" role="img"><defs><pattern id="hatch" width="4" height="4" patternUnits="userSpaceOnUse" patternTransform="rotate(45)"><line x1="0" y1="0" x2="0" y2="4" stroke="#1B2430" stroke-width="0.5"/></pattern></defs><rect width="280" height="200" fill="#FFFFFF"/><rect x="4" y="4" width="272" height="192" fill="none" stroke="#1B2430" stroke-width="1.2"/><rect x="6.5" y="6.5" width="267" height="187" fill="none" stroke="#1B2430" stroke-width="0.4"/><rect x="158" y="156" width="118" height="40" fill="#FFFFFF" stroke="#1B2430" stroke-width="0.9"/><line x1="158" y1="169" x2="276" y2="169" stroke="#1B2430" stroke-width="0.5"/><line x1="158" y1="182" x2="276" y2="182" stroke="#1B2430" stroke-width="0.5"/><line x1="220" y1="169" x2="220" y2="196" stroke="#1B2430" stroke-width="0.5"/><text x="162" y="165.5" font-family="Arial, sans-serif" font-size="6.4" font-weight="bold" fill="#1B2430">FASTENER ASSEMBLY KIT M8</text><text x="162" y="178.5" font-family="Arial, sans-serif" font-size="4.8" fill="#1B2430">MATL: STEEL CL 8.8 · Z…</text><text x="224" y="178.5" font-family="Arial, sans-serif" font-size="4.8" fill="#1B2430">SCALE 1:1</text><text x="162" y="191.5" font-family="Arial, sans-serif" font-size="4.8" fill="#1B2430">CROWN LINK · CL-O005</text><text x="224" y="191.5" font-family="Arial, sans-serif" font-size="4.8" fill="#1B2430">UNIT: mm</text><text x="10" y="190" font-family="Arial, sans-serif" font-size="5.0" fill="#1B2430">UNLESS NOTED: ±0.1 · ANGLES ±0.5° · ASME Y14.5</text><g stroke="#1B2430" stroke-width="0.6" fill="none"><circle cx="138" cy="187" r="2.2"/><circle cx="138" cy="187" r="0.7"/><path d="M143 183.6 L150 185 L150 189 L143 190.4 Z"/><line x1="133.5" y1="187" x2="152" y2="187" stroke-dasharray="3 1.2"/></g><line x1="40" y1="86" x2="236" y2="86" stroke="#1B2430" stroke-width="0.5" stroke-dasharray="9 2 2 2"/><rect x="50" y="72" width="12" height="28" stroke="#1B2430" fill="none" stroke-width="1.0"/><g stroke="#1B2430"><line x1="62" y1="78" x2="102" y2="78" stroke-width="0.9"/><line x1="62" y1="94" x2="102" y2="94" stroke-width="0.9"/><line x1="62" y1="80.24" x2="102" y2="80.24" stroke-width="0.45"/><line x1="62" y1="91.76" x2="102" y2="91.76" stroke-width="0.45"/></g><circle cx="124" cy="86" r="15" stroke="#1B2430" fill="none" stroke-width="1.0"/><circle cx="124" cy="86" r="7" stroke="#1B2430" fill="none" stroke-width="0.5"/><circle cx="160" cy="86" r="12" stroke="#1B2430" fill="none" stroke-width="1.0"/><line x1="155" y1="78" x2="163" y2="84" stroke="#1B2430" stroke-width="2"/><polygon points="217.0,93.5 204.0,101.0 191.0,93.5 191.0,78.5 204.0,71.0 217.0,78.5" stroke="#1B2430" fill="none" stroke-width="1.0"/><circle cx="204" cy="86" r="6.5" stroke="#1B2430" fill="none" stroke-width="0.5"/><g stroke="#1B2430" stroke-width="0.7" fill="#1B2430" font-family="Arial, sans-serif"><line x1="56" y1="72" x2="44" y2="48"/><circle cx="56" cy="72" r="1" stroke="none"/><text x="46" y="50" font-size="6.2" text-anchor="start" stroke="none">HEX BOLT M8×30 CL 8.8</text></g><g stroke="#1B2430" stroke-width="0.7" fill="#1B2430" font-family="Arial, sans-serif"><line x1="124" y1="71" x2="112" y2="44"/><circle cx="124" cy="71" r="1" stroke="none"/><text x="110" y="46" font-size="6.2" text-anchor="end" stroke="none">ISO 7089</text></g><g stroke="#1B2430" stroke-width="0.7" fill="#1B2430" font-family="Arial, sans-serif"><line x1="160" y1="74" x2="168" y2="50"/><circle cx="160" cy="74" r="1" stroke="none"/><text x="170" y="52" font-size="6.2" text-anchor="start" stroke="none">DIN 127B</text></g><g stroke="#1B2430" stroke-width="0.7" fill="#1B2430" font-family="Arial, sans-serif"><line x1="204" y1="71" x2="216" y2="48"/><circle cx="204" cy="71" r="1" stroke="none"/><text x="218" y="50" font-size="6.2" text-anchor="start" stroke="none">ISO 4032 NUT</text></g><text x="12" y="140" font-family="Arial" font-size="5.6" fill="#1B2430">KIT PACKED 1+1+1+1 PER POLY BAG · LABEL PER CUSTOMER SPEC</text></svg>