<svg xmlns="http://www.w3.org/2000/svg" viewBox="0 0 280 200" width="280" height="200" role="img"><defs><pattern id="hatch" width="4" height="4" patternUnits="userSpaceOnUse" patternTransform="rotate(45)"><line x1="0" y1="0" x2="0" y2="4" stroke="#1B2430" stroke-width="0.5"/></pattern></defs><rect width="280" height="200" fill="#FFFFFF"/><rect x="4" y="4" width="272" height="192" fill="none" stroke="#1B2430" stroke-width="1.2"/><rect x="6.5" y="6.5" width="267" height="187" fill="none" stroke="#1B2430" stroke-width="0.4"/><rect x="158" y="156" width="118" height="40" fill="#FFFFFF" stroke="#1B2430" stroke-width="0.9"/><line x1="158" y1="169" x2="276" y2="169" stroke="#1B2430" stroke-width="0.5"/><line x1="158" y1="182" x2="276" y2="182" stroke="#1B2430" stroke-width="0.5"/><line x1="220" y1="169" x2="220" y2="196" stroke="#1B2430" stroke-width="0.5"/><text x="162" y="165.5" font-family="Arial, sans-serif" font-size="6.4" font-weight="bold" fill="#1B2430">BALL HEAD SCREW</text><text x="162" y="178.5" font-family="Arial, sans-serif" font-size="4.8" fill="#1B2430">MATL: SS 304</text><text x="224" y="178.5" font-family="Arial, sans-serif" font-size="4.8" fill="#1B2430">SCALE 2:1</text><text x="162" y="191.5" font-family="Arial, sans-serif" font-size="4.8" fill="#1B2430">CROWN LINK · CL-S009</text><text x="224" y="191.5" font-family="Arial, sans-serif" font-size="4.8" fill="#1B2430">UNIT: mm</text><text x="10" y="190" font-family="Arial, sans-serif" font-size="5.0" fill="#1B2430">UNLESS NOTED: ±0.1 · ANGLES ±0.5° · ASME Y14.5</text><g stroke="#1B2430" stroke-width="0.6" fill="none"><circle cx="138" cy="187" r="2.2"/><circle cx="138" cy="187" r="0.7"/><path d="M143 183.6 L150 185 L150 189 L143 190.4 Z"/><line x1="133.5" y1="187" x2="152" y2="187" stroke-dasharray="3 1.2"/></g><circle cx="74" cy="84" r="24" stroke="#1B2430" fill="none" stroke-width="1.0"/><g stroke="#1B2430"><line x1="98" y1="76" x2="194" y2="76" stroke-width="0.9"/><line x1="98" y1="92" x2="194" y2="92" stroke-width="0.9"/><line x1="98" y1="78.24" x2="194" y2="78.24" stroke-width="0.45"/><line x1="98" y1="89.76" x2="194" y2="89.76" stroke-width="0.45"/></g><path d="M194 76 L200 80 L200 88 L194 92" stroke="#1B2430" fill="none" stroke-width="1.0"/><line x1="42" y1="84" x2="212" y2="84" stroke="#1B2430" stroke-width="0.5" stroke-dasharray="9 2 2 2"/><g stroke="#1B2430" stroke-width="0.7" fill="#1B2430" font-family="Arial, sans-serif"><line x1="32" y1="60" x2="38" y2="60"/><line x1="32" y1="108" x2="38" y2="108"/><line x1="40" y1="60" x2="40" y2="108"/><path d="M40 60 l-1.3 3.4 h2.6 Z" stroke="none"/><path d="M40 108 l-1.3 -3.4 h2.6 Z" stroke="none"/><text x="43" y="86.0" font-size="6.2" stroke="none">⌀16.0</text></g><g stroke="#1B2430" stroke-width="0.7" fill="#1B2430" font-family="Arial, sans-serif"><line x1="98" y1="64" x2="98" y2="58"/><line x1="194" y1="64" x2="194" y2="58"/><line x1="98" y1="56" x2="194" y2="56"/><path d="M98 56 l3.4 -1.3 v2.6 Z" stroke="none"/><path d="M194 56 l-3.4 -1.3 v2.6 Z" stroke="none"/><text x="146.0" y="53.8" font-size="6.2" text-anchor="middle" stroke="none">40.0</text></g><g stroke="#1B2430" stroke-width="0.7" fill="#1B2430" font-family="Arial, sans-serif"><line x1="146" y1="76" x2="162" y2="48"/><circle cx="146" cy="76" r="1" stroke="none"/><text x="164" y="50" font-size="6.2" text-anchor="start" stroke="none">M8 × 1.25 - 6g</text></g><g stroke="#1B2430" stroke-width="0.7" fill="none" font-family="Arial, sans-serif"><rect x="150" y="132" width="47.0" height="10"/><line x1="161" y1="132" x2="161" y2="142"/><line x1="187.0" y1="132" x2="187.0" y2="142"/><text x="192.0" y="139.4" font-size="6.0" text-anchor="middle" fill="#1B2430" stroke="none">A</text><g stroke="#1B2430" stroke-width="0.8" fill="none"><circle cx="155.5" cy="137" r="2.6"/><circle cx="155.5" cy="137" r="1.1"/></g><text x="174.0" y="139.4" font-size="6.0" text-anchor="middle" fill="#1B2430" stroke="none">⌀0.10</text></g><g stroke="#1B2430" stroke-width="0.7" fill="none" font-family="Arial, sans-serif"><line x1="120" y1="96" x2="120" y2="103"/><path d="M117.4 96 h5.2 l-2.6 -3.6 Z" fill="#1B2430" stroke="none"/><rect x="115.5" y="103" width="9" height="9"/><text x="120" y="109.8" font-size="6" text-anchor="middle" fill="#1B2430" stroke="none">A</text></g></svg>