<svg xmlns="http://www.w3.org/2000/svg" viewBox="0 0 280 200" width="280" height="200" role="img"><defs><pattern id="hatch" width="4" height="4" patternUnits="userSpaceOnUse" patternTransform="rotate(45)"><line x1="0" y1="0" x2="0" y2="4" stroke="#1B2430" stroke-width="0.5"/></pattern></defs><rect width="280" height="200" fill="#FFFFFF"/><rect x="4" y="4" width="272" height="192" fill="none" stroke="#1B2430" stroke-width="1.2"/><rect x="6.5" y="6.5" width="267" height="187" fill="none" stroke="#1B2430" stroke-width="0.4"/><rect x="158" y="156" width="118" height="40" fill="#FFFFFF" stroke="#1B2430" stroke-width="0.9"/><line x1="158" y1="169" x2="276" y2="169" stroke="#1B2430" stroke-width="0.5"/><line x1="158" y1="182" x2="276" y2="182" stroke="#1B2430" stroke-width="0.5"/><line x1="220" y1="169" x2="220" y2="196" stroke="#1B2430" stroke-width="0.5"/><text x="162" y="165.5" font-family="Arial, sans-serif" font-size="6.4" font-weight="bold" fill="#1B2430">CABLE BARREL ADJUSTER</text><text x="162" y="178.5" font-family="Arial, sans-serif" font-size="4.8" fill="#1B2430">MATL: SS 303</text><text x="224" y="178.5" font-family="Arial, sans-serif" font-size="4.8" fill="#1B2430">SCALE 2:1</text><text x="162" y="191.5" font-family="Arial, sans-serif" font-size="4.8" fill="#1B2430">CROWN LINK · CL-O002</text><text x="224" y="191.5" font-family="Arial, sans-serif" font-size="4.8" fill="#1B2430">UNIT: mm</text><text x="10" y="190" font-family="Arial, sans-serif" font-size="5.0" fill="#1B2430">UNLESS NOTED: ±0.1 · ANGLES ±0.5° · ASME Y14.5</text><g stroke="#1B2430" stroke-width="0.6" fill="none"><circle cx="138" cy="187" r="2.2"/><circle cx="138" cy="187" r="0.7"/><path d="M143 183.6 L150 185 L150 189 L143 190.4 Z"/><line x1="133.5" y1="187" x2="152" y2="187" stroke-dasharray="3 1.2"/></g><g stroke="#1B2430"><line x1="56" y1="80" x2="108" y2="80" stroke-width="0.9"/><line x1="56" y1="96" x2="108" y2="96" stroke-width="0.9"/><line x1="56" y1="82.24" x2="108" y2="82.24" stroke-width="0.45"/><line x1="56" y1="93.76" x2="108" y2="93.76" stroke-width="0.45"/></g><rect x="108" y="68" width="68" height="40" rx="6" stroke="#1B2430" fill="none" stroke-width="1.0"/><line x1="114" y1="68" x2="114" y2="108" stroke="#1B2430" stroke-width="0.5"/><line x1="122" y1="68" x2="122" y2="108" stroke="#1B2430" stroke-width="0.5"/><line x1="130" y1="68" x2="130" y2="108" stroke="#1B2430" stroke-width="0.5"/><line x1="138" y1="68" x2="138" y2="108" stroke="#1B2430" stroke-width="0.5"/><line x1="146" y1="68" x2="146" y2="108" stroke="#1B2430" stroke-width="0.5"/><line x1="154" y1="68" x2="154" y2="108" stroke="#1B2430" stroke-width="0.5"/><line x1="162" y1="68" x2="162" y2="108" stroke="#1B2430" stroke-width="0.5"/><line x1="170" y1="68" x2="170" y2="108" stroke="#1B2430" stroke-width="0.5"/><rect x="176" y="82" width="30" height="12" stroke="#1B2430" fill="none" stroke-width="1.0"/><line x1="44" y1="88" x2="218" y2="88" stroke="#1B2430" stroke-width="0.5" stroke-dasharray="9 2 2 2"/><g stroke="#1B2430" stroke-width="0.7" fill="#1B2430" font-family="Arial, sans-serif"><line x1="108" y1="64" x2="108" y2="58"/><line x1="176" y1="64" x2="176" y2="58"/><line x1="108" y1="56" x2="176" y2="56"/><path d="M108 56 l3.4 -1.3 v2.6 Z" stroke="none"/><path d="M176 56 l-3.4 -1.3 v2.6 Z" stroke="none"/><text x="142.0" y="53.8" font-size="6.2" text-anchor="middle" stroke="none">30.0</text></g><g stroke="#1B2430" stroke-width="0.7" fill="#1B2430" font-family="Arial, sans-serif"><line x1="80" y1="80" x2="92" y2="50"/><circle cx="80" cy="80" r="1" stroke="none"/><text x="94" y="52" font-size="6.2" text-anchor="start" stroke="none">M10 × 1.0 - 6g STUD</text></g><g stroke="#1B2430" stroke-width="0.7" fill="#1B2430" font-family="Arial, sans-serif"><line x1="142" y1="108" x2="156" y2="134"/><circle cx="142" cy="108" r="1" stroke="none"/><text x="158" y="136" font-size="6.2" text-anchor="start" stroke="none">KNURL RAA 0.8 DIN 82</text></g><g stroke="#1B2430" stroke-width="0.7" fill="#1B2430" font-family="Arial, sans-serif"><line x1="191" y1="82" x2="212" y2="60"/><circle cx="191" cy="82" r="1" stroke="none"/><text x="214" y="62" font-size="6.2" text-anchor="start" stroke="none">CABLE END ⌀5.0 BORE</text></g><g stroke="#1B2430" stroke-width="0.7" fill="none" font-family="Arial, sans-serif"><rect x="40" y="142" width="47.0" height="10"/><line x1="51" y1="142" x2="51" y2="152"/><line x1="77.0" y1="142" x2="77.0" y2="152"/><text x="82.0" y="149.4" font-size="6.0" text-anchor="middle" fill="#1B2430" stroke="none">A</text><g stroke="#1B2430" stroke-width="0.8" fill="none"><circle cx="45.5" cy="147" r="2.6"/><circle cx="45.5" cy="147" r="1.1"/></g><text x="64.0" y="149.4" font-size="6.0" text-anchor="middle" fill="#1B2430" stroke="none">⌀0.10</text></g><g stroke="#1B2430" stroke-width="0.7" fill="none" font-family="Arial, sans-serif"><line x1="66" y1="100" x2="66" y2="107"/><path d="M63.4 100 h5.2 l-2.6 -3.6 Z" fill="#1B2430" stroke="none"/><rect x="61.5" y="107" width="9" height="9"/><text x="66" y="113.8" font-size="6" text-anchor="middle" fill="#1B2430" stroke="none">A</text></g></svg>