<svg xmlns="http://www.w3.org/2000/svg" viewBox="0 0 280 200" width="280" height="200" role="img"><defs><pattern id="hatch" width="4" height="4" patternUnits="userSpaceOnUse" patternTransform="rotate(45)"><line x1="0" y1="0" x2="0" y2="4" stroke="#1B2430" stroke-width="0.5"/></pattern></defs><rect width="280" height="200" fill="#FFFFFF"/><rect x="4" y="4" width="272" height="192" fill="none" stroke="#1B2430" stroke-width="1.2"/><rect x="6.5" y="6.5" width="267" height="187" fill="none" stroke="#1B2430" stroke-width="0.4"/><rect x="158" y="156" width="118" height="40" fill="#FFFFFF" stroke="#1B2430" stroke-width="0.9"/><line x1="158" y1="169" x2="276" y2="169" stroke="#1B2430" stroke-width="0.5"/><line x1="158" y1="182" x2="276" y2="182" stroke="#1B2430" stroke-width="0.5"/><line x1="220" y1="169" x2="220" y2="196" stroke="#1B2430" stroke-width="0.5"/><text x="162" y="165.5" font-family="Arial, sans-serif" font-size="6.4" font-weight="bold" fill="#1B2430">CAM LOCK BOLT &amp; CAM DISC</text><text x="162" y="178.5" font-family="Arial, sans-serif" font-size="4.8" fill="#1B2430">MATL: STEEL · ZINC / Z…</text><text x="224" y="178.5" font-family="Arial, sans-serif" font-size="4.8" fill="#1B2430">SCALE 2:1</text><text x="162" y="191.5" font-family="Arial, sans-serif" font-size="4.8" fill="#1B2430">CROWN LINK · CL-S012</text><text x="224" y="191.5" font-family="Arial, sans-serif" font-size="4.8" fill="#1B2430">UNIT: mm</text><text x="10" y="190" font-family="Arial, sans-serif" font-size="5.0" fill="#1B2430">UNLESS NOTED: ±0.1 · ANGLES ±0.5° · ASME Y14.5</text><g stroke="#1B2430" stroke-width="0.6" fill="none"><circle cx="138" cy="187" r="2.2"/><circle cx="138" cy="187" r="0.7"/><path d="M143 183.6 L150 185 L150 189 L143 190.4 Z"/><line x1="133.5" y1="187" x2="152" y2="187" stroke-dasharray="3 1.2"/></g><path d="M52 70 q-10 12 0 24 l8 0 l0 -24 Z" stroke="#1B2430" fill="none" stroke-width="1.0"/><line x1="60" y1="74" x2="96" y2="74" stroke="#1B2430" stroke-width="1.0"/><line x1="60" y1="90" x2="96" y2="90" stroke="#1B2430" stroke-width="1.0"/><g stroke="#1B2430"><line x1="96" y1="74" x2="152" y2="74" stroke-width="0.9"/><line x1="96" y1="90" x2="152" y2="90" stroke-width="0.9"/><line x1="96" y1="76.24" x2="152" y2="76.24" stroke-width="0.45"/><line x1="96" y1="87.76" x2="152" y2="87.76" stroke-width="0.45"/></g><circle cx="208" cy="82" r="24" stroke="#1B2430" fill="none" stroke-width="1.0"/><path d="M196 82 a12 12 0 0 1 24 0" stroke="#1B2430" stroke-width="0.5" fill="none"/><rect x="205" y="74" width="6" height="16" stroke="#1B2430" fill="none" stroke-width="0.5"/><line x1="40" y1="82" x2="168" y2="82" stroke="#1B2430" stroke-width="0.5" stroke-dasharray="9 2 2 2"/><g stroke="#1B2430" stroke-width="0.7" fill="#1B2430" font-family="Arial, sans-serif"><line x1="60" y1="64" x2="60" y2="58"/><line x1="152" y1="64" x2="152" y2="58"/><line x1="60" y1="56" x2="152" y2="56"/><path d="M60 56 l3.4 -1.3 v2.6 Z" stroke="none"/><path d="M152 56 l-3.4 -1.3 v2.6 Z" stroke="none"/><text x="106.0" y="53.8" font-size="6.2" text-anchor="middle" stroke="none">34.0</text></g><g stroke="#1B2430" stroke-width="0.7" fill="#1B2430" font-family="Arial, sans-serif"><line x1="124" y1="74" x2="138" y2="50"/><circle cx="124" cy="74" r="1" stroke="none"/><text x="140" y="52" font-size="6.2" text-anchor="start" stroke="none">EURO THREAD ⌀6.3</text></g><g stroke="#1B2430" stroke-width="0.7" fill="#1B2430" font-family="Arial, sans-serif"><line x1="224" y1="66" x2="240" y2="44"/><circle cx="224" cy="66" r="1" stroke="none"/><text x="238" y="46" font-size="6.2" text-anchor="end" stroke="none">CAM DISC ⌀15 × 12</text></g><g stroke="#1B2430" stroke-width="0.7" fill="#1B2430" font-family="Arial, sans-serif"><line x1="230" y1="58" x2="236" y2="58"/><line x1="230" y1="106" x2="236" y2="106"/><line x1="238" y1="58" x2="238" y2="106"/><path d="M238 58 l-1.3 3.4 h2.6 Z" stroke="none"/><path d="M238 106 l-1.3 -3.4 h2.6 Z" stroke="none"/><text x="241" y="84.0" font-size="6.2" stroke="none">⌀15.0</text></g><g stroke="#1B2430" stroke-width="0.7" fill="none" font-family="Arial, sans-serif"><rect x="44" y="134" width="47.0" height="10"/><line x1="55" y1="134" x2="55" y2="144"/><line x1="81.0" y1="134" x2="81.0" y2="144"/><text x="86.0" y="141.4" font-size="6.0" text-anchor="middle" fill="#1B2430" stroke="none">A</text><g stroke="#1B2430" stroke-width="0.8"><circle cx="49.5" cy="139" r="2.4" fill="none"/><line x1="49.5" y1="135.2" x2="49.5" y2="142.8"/><line x1="45.7" y1="139" x2="53.3" y2="139"/></g><text x="68.0" y="141.4" font-size="6.0" text-anchor="middle" fill="#1B2430" stroke="none">⌀0.20</text></g><g stroke="#1B2430" stroke-width="0.7" fill="none" font-family="Arial, sans-serif"><line x1="96" y1="96" x2="96" y2="103"/><path d="M93.4 96 h5.2 l-2.6 -3.6 Z" fill="#1B2430" stroke="none"/><rect x="91.5" y="103" width="9" height="9"/><text x="96" y="109.8" font-size="6" text-anchor="middle" fill="#1B2430" stroke="none">A</text></g></svg>