<svg xmlns="http://www.w3.org/2000/svg" viewBox="0 0 280 200" width="280" height="200" role="img"><defs><pattern id="hatch" width="4" height="4" patternUnits="userSpaceOnUse" patternTransform="rotate(45)"><line x1="0" y1="0" x2="0" y2="4" stroke="#1B2430" stroke-width="0.5"/></pattern></defs><rect width="280" height="200" fill="#FFFFFF"/><rect x="4" y="4" width="272" height="192" fill="none" stroke="#1B2430" stroke-width="1.2"/><rect x="6.5" y="6.5" width="267" height="187" fill="none" stroke="#1B2430" stroke-width="0.4"/><rect x="158" y="156" width="118" height="40" fill="#FFFFFF" stroke="#1B2430" stroke-width="0.9"/><line x1="158" y1="169" x2="276" y2="169" stroke="#1B2430" stroke-width="0.5"/><line x1="158" y1="182" x2="276" y2="182" stroke="#1B2430" stroke-width="0.5"/><line x1="220" y1="169" x2="220" y2="196" stroke="#1B2430" stroke-width="0.5"/><text x="162" y="165.5" font-family="Arial, sans-serif" font-size="6.4" font-weight="bold" fill="#1B2430">CASTING &amp; MACHINED HOUSING</text><text x="162" y="178.5" font-family="Arial, sans-serif" font-size="4.8" fill="#1B2430">MATL: ADC12 / A356-T6</text><text x="224" y="178.5" font-family="Arial, sans-serif" font-size="4.8" fill="#1B2430">SCALE 1:1</text><text x="162" y="191.5" font-family="Arial, sans-serif" font-size="4.8" fill="#1B2430">CROWN LINK · CL-O008</text><text x="224" y="191.5" font-family="Arial, sans-serif" font-size="4.8" fill="#1B2430">UNIT: mm</text><text x="10" y="190" font-family="Arial, sans-serif" font-size="5.0" fill="#1B2430">UNLESS NOTED: ±0.1 · ANGLES ±0.5° · ASME Y14.5</text><g stroke="#1B2430" stroke-width="0.6" fill="none"><circle cx="138" cy="187" r="2.2"/><circle cx="138" cy="187" r="0.7"/><path d="M143 183.6 L150 185 L150 189 L143 190.4 Z"/><line x1="133.5" y1="187" x2="152" y2="187" stroke-dasharray="3 1.2"/></g><rect x="64" y="100" width="116" height="10" fill="url(#hatch)" stroke="#1B2430" stroke-width="1.0"/><path d="M92 100 L98 56 L146 56 L152 100" fill="url(#hatch)" stroke="#1B2430" stroke-width="1.0"/><rect x="112" y="56" width="20" height="54" fill="#fff" stroke="#1B2430" stroke-width="0.5"/><circle cx="76" cy="105" r="0.1"/><line x1="122" y1="46" x2="122" y2="120" stroke="#1B2430" stroke-width="0.5" stroke-dasharray="9 2 2 2"/><g stroke="#1B2430" stroke-width="0.7" fill="#1B2430" font-family="Arial, sans-serif"><line x1="64" y1="132" x2="64" y2="126"/><line x1="180" y1="132" x2="180" y2="126"/><line x1="64" y1="124" x2="180" y2="124"/><path d="M64 124 l3.4 -1.3 v2.6 Z" stroke="none"/><path d="M180 124 l-3.4 -1.3 v2.6 Z" stroke="none"/><text x="122.0" y="121.8" font-size="6.2" text-anchor="middle" stroke="none">(116.0)</text></g><g stroke="#1B2430" stroke-width="0.7" fill="#1B2430" font-family="Arial, sans-serif"><line x1="42" y1="56" x2="48" y2="56"/><line x1="42" y1="110" x2="48" y2="110"/><line x1="50" y1="56" x2="50" y2="110"/><path d="M50 56 l-1.3 3.4 h2.6 Z" stroke="none"/><path d="M50 110 l-1.3 -3.4 h2.6 Z" stroke="none"/><text x="53" y="85.0" font-size="6.2" stroke="none">(54.0)</text></g><g stroke="#1B2430" stroke-width="0.7" fill="#1B2430" font-family="Arial, sans-serif"><line x1="122" y1="60" x2="152" y2="40"/><circle cx="122" cy="60" r="1" stroke="none"/><text x="154" y="42" font-size="6.2" text-anchor="start" stroke="none">BORE ⌀20 H7 · MACHINED</text></g><g stroke="#1B2430" stroke-width="0.7" fill="#1B2430" font-family="Arial, sans-serif"><line x1="70" y1="105" x2="52" y2="134"/><circle cx="70" cy="105" r="1" stroke="none"/><text x="54" y="136" font-size="6.2" text-anchor="start" stroke="none">4× ⌀9.0 FLANGE HOLES</text></g><g stroke="#1B2430" stroke-width="0.7" fill="none" font-family="Arial, sans-serif"><rect x="154" y="140" width="43.6" height="10"/><line x1="165" y1="140" x2="165" y2="150"/><line x1="187.6" y1="140" x2="187.6" y2="150"/><text x="192.6" y="147.4" font-size="6.0" text-anchor="middle" fill="#1B2430" stroke="none">A</text><g stroke="#1B2430" stroke-width="0.9"><line x1="159.5" y1="142.2" x2="159.5" y2="147.8"/><line x1="156.5" y1="147.8" x2="162.5" y2="147.8"/></g><text x="176.3" y="147.4" font-size="6.0" text-anchor="middle" fill="#1B2430" stroke="none">0.10</text></g><g stroke="#1B2430" stroke-width="0.7" fill="none" font-family="Arial, sans-serif"><line x1="180" y1="112" x2="180" y2="119"/><path d="M177.4 112 h5.2 l-2.6 -3.6 Z" fill="#1B2430" stroke="none"/><rect x="175.5" y="119" width="9" height="9"/><text x="180" y="125.8" font-size="6" text-anchor="middle" fill="#1B2430" stroke="none">A</text></g><text x="12" y="26" font-family="Arial" font-size="5.4" fill="#1B2430">DRAFT 1.5° AS CAST · MACHINED FACES Ra 3.2</text><text x="12" y="20" font-family="Arial" font-size="5.6" fill="#1B2430">REPRESENTATIVE GEOMETRY — FINAL DIMENSIONS PER CUSTOMER DRAWING</text></svg>