<svg xmlns="http://www.w3.org/2000/svg" viewBox="0 0 280 200" width="280" height="200" role="img"><defs><pattern id="hatch" width="4" height="4" patternUnits="userSpaceOnUse" patternTransform="rotate(45)"><line x1="0" y1="0" x2="0" y2="4" stroke="#1B2430" stroke-width="0.5"/></pattern></defs><rect width="280" height="200" fill="#FFFFFF"/><rect x="4" y="4" width="272" height="192" fill="none" stroke="#1B2430" stroke-width="1.2"/><rect x="6.5" y="6.5" width="267" height="187" fill="none" stroke="#1B2430" stroke-width="0.4"/><rect x="158" y="156" width="118" height="40" fill="#FFFFFF" stroke="#1B2430" stroke-width="0.9"/><line x1="158" y1="169" x2="276" y2="169" stroke="#1B2430" stroke-width="0.5"/><line x1="158" y1="182" x2="276" y2="182" stroke="#1B2430" stroke-width="0.5"/><line x1="220" y1="169" x2="220" y2="196" stroke="#1B2430" stroke-width="0.5"/><text x="162" y="165.5" font-family="Arial, sans-serif" font-size="6.4" font-weight="bold" fill="#1B2430">C-CLIP / E-CLIP / TEE WAS…</text><text x="162" y="178.5" font-family="Arial, sans-serif" font-size="4.8" fill="#1B2430">MATL: SPRING STEEL C67S</text><text x="224" y="178.5" font-family="Arial, sans-serif" font-size="4.8" fill="#1B2430">SCALE 2:1</text><text x="162" y="191.5" font-family="Arial, sans-serif" font-size="4.8" fill="#1B2430">CROWN LINK · CL-P006</text><text x="224" y="191.5" font-family="Arial, sans-serif" font-size="4.8" fill="#1B2430">UNIT: mm</text><text x="10" y="190" font-family="Arial, sans-serif" font-size="5.0" fill="#1B2430">UNLESS NOTED: ±0.1 · ANGLES ±0.5° · ASME Y14.5</text><g stroke="#1B2430" stroke-width="0.6" fill="none"><circle cx="138" cy="187" r="2.2"/><circle cx="138" cy="187" r="0.7"/><path d="M143 183.6 L150 185 L150 189 L143 190.4 Z"/><line x1="133.5" y1="187" x2="152" y2="187" stroke-dasharray="3 1.2"/></g><path d="M66 58 A26 26 0 1 0 86 66" stroke="#1B2430" fill="none" stroke-width="5"/><circle cx="66" cy="58" r="2.6" stroke="#1B2430" fill="none" stroke-width="0.5"/><circle cx="86" cy="66" r="2.6" stroke="#1B2430" fill="none" stroke-width="0.5"/><path d="M168 64 A17 17 0 1 0 168 86" stroke="#1B2430" fill="none" stroke-width="4.6"/><path d="M196 116 h44 v7 h-16 v15 h-12 v-15 h-16 Z" stroke="#1B2430" fill="none" stroke-width="1.0"/><g stroke="#1B2430" stroke-width="0.7" fill="#1B2430" font-family="Arial, sans-serif"><line x1="48" y1="76" x2="36" y2="110"/><circle cx="48" cy="76" r="1" stroke="none"/><text x="38" y="112" font-size="6.2" text-anchor="start" stroke="none">RETAINING RING DIN 471 · ⌀12</text></g><g stroke="#1B2430" stroke-width="0.7" fill="#1B2430" font-family="Arial, sans-serif"><line x1="154" y1="76" x2="130" y2="44"/><circle cx="154" cy="76" r="1" stroke="none"/><text x="128" y="46" font-size="6.2" text-anchor="end" stroke="none">E-CLIP DIN 6799 · ⌀8</text></g><g stroke="#1B2430" stroke-width="0.7" fill="#1B2430" font-family="Arial, sans-serif"><line x1="196" y1="116" x2="196" y2="110"/><line x1="240" y1="116" x2="240" y2="110"/><line x1="196" y1="108" x2="240" y2="108"/><path d="M196 108 l3.4 -1.3 v2.6 Z" stroke="none"/><path d="M240 108 l-3.4 -1.3 v2.6 Z" stroke="none"/><text x="218.0" y="105.8" font-size="6.2" text-anchor="middle" stroke="none">22.0</text></g><g stroke="#1B2430" stroke-width="0.7" fill="#1B2430" font-family="Arial, sans-serif"><line x1="218" y1="132" x2="188" y2="152"/><circle cx="218" cy="132" r="1" stroke="none"/><text x="186" y="154" font-size="6.2" text-anchor="end" stroke="none">TEE WASHER 3.0 THK</text></g></svg>