<svg xmlns="http://www.w3.org/2000/svg" viewBox="0 0 280 200" width="280" height="200" role="img"><defs><pattern id="hatch" width="4" height="4" patternUnits="userSpaceOnUse" patternTransform="rotate(45)"><line x1="0" y1="0" x2="0" y2="4" stroke="#1B2430" stroke-width="0.5"/></pattern></defs><rect width="280" height="200" fill="#FFFFFF"/><rect x="4" y="4" width="272" height="192" fill="none" stroke="#1B2430" stroke-width="1.2"/><rect x="6.5" y="6.5" width="267" height="187" fill="none" stroke="#1B2430" stroke-width="0.4"/><rect x="158" y="156" width="118" height="40" fill="#FFFFFF" stroke="#1B2430" stroke-width="0.9"/><line x1="158" y1="169" x2="276" y2="169" stroke="#1B2430" stroke-width="0.5"/><line x1="158" y1="182" x2="276" y2="182" stroke="#1B2430" stroke-width="0.5"/><line x1="220" y1="169" x2="220" y2="196" stroke="#1B2430" stroke-width="0.5"/><text x="162" y="165.5" font-family="Arial, sans-serif" font-size="6.4" font-weight="bold" fill="#1B2430">CONE SEAT NUT</text><text x="162" y="178.5" font-family="Arial, sans-serif" font-size="4.8" fill="#1B2430">MATL: STEEL CL 10 · ZI…</text><text x="224" y="178.5" font-family="Arial, sans-serif" font-size="4.8" fill="#1B2430">SCALE 2:1</text><text x="162" y="191.5" font-family="Arial, sans-serif" font-size="4.8" fill="#1B2430">CROWN LINK · CL-N001</text><text x="224" y="191.5" font-family="Arial, sans-serif" font-size="4.8" fill="#1B2430">UNIT: mm</text><text x="10" y="190" font-family="Arial, sans-serif" font-size="5.0" fill="#1B2430">UNLESS NOTED: ±0.1 · ANGLES ±0.5° · ASME Y14.5</text><g stroke="#1B2430" stroke-width="0.6" fill="none"><circle cx="138" cy="187" r="2.2"/><circle cx="138" cy="187" r="0.7"/><path d="M143 183.6 L150 185 L150 189 L143 190.4 Z"/><line x1="133.5" y1="187" x2="152" y2="187" stroke-dasharray="3 1.2"/></g><polygon points="104.0,91.0 78.0,106.0 52.0,91.0 52.0,61.0 78.0,46.0 104.0,61.0" stroke="#1B2430" fill="none" stroke-width="1.0"/><circle cx="78" cy="76" r="11" stroke="#1B2430" fill="none" stroke-width="1.0"/><line x1="78" y1="38" x2="78" y2="116" stroke="#1B2430" stroke-width="0.5" stroke-dasharray="9 2 2 2"/><line x1="42" y1="76" x2="116" y2="76" stroke="#1B2430" stroke-width="0.5" stroke-dasharray="9 2 2 2"/><path d="M168 56 h44 v28 l-15 26 h-14 l-15 -26 Z" fill="url(#hatch)" stroke="#1B2430" stroke-width="1.0"/><rect x="183" y="56" width="14" height="54" fill="#fff" stroke="#1B2430" stroke-width="0.5"/><line x1="190" y1="48" x2="190" y2="120" stroke="#1B2430" stroke-width="0.5" stroke-dasharray="9 2 2 2"/><g stroke="#1B2430" stroke-width="0.7" fill="#1B2430" font-family="Arial, sans-serif"><line x1="34" y1="50" x2="40" y2="50"/><line x1="34" y1="102" x2="40" y2="102"/><line x1="42" y1="50" x2="42" y2="102"/><path d="M42 50 l-1.3 3.4 h2.6 Z" stroke="none"/><path d="M42 102 l-1.3 -3.4 h2.6 Z" stroke="none"/><text x="45" y="78.0" font-size="6.2" stroke="none">19.0 A/F</text></g><g stroke="#1B2430" stroke-width="0.7" fill="#1B2430" font-family="Arial, sans-serif"><line x1="168" y1="52" x2="168" y2="46"/><line x1="212" y1="52" x2="212" y2="46"/><line x1="168" y1="44" x2="212" y2="44"/><path d="M168 44 l3.4 -1.3 v2.6 Z" stroke="none"/><path d="M212 44 l-3.4 -1.3 v2.6 Z" stroke="none"/><text x="190.0" y="41.8" font-size="6.2" text-anchor="middle" stroke="none">22.0</text></g><g stroke="#1B2430" stroke-width="0.7" fill="#1B2430" font-family="Arial, sans-serif"><line x1="190" y1="60" x2="214" y2="36"/><circle cx="190" cy="60" r="1" stroke="none"/><text x="216" y="38" font-size="6.2" text-anchor="start" stroke="none">M12 × 1.5 - 6H</text></g><g stroke="#1B2430" stroke-width="0.7" fill="#1B2430" font-family="Arial, sans-serif"><line x1="176" y1="96" x2="152" y2="124"/><circle cx="176" cy="96" r="1" stroke="none"/><text x="150" y="126" font-size="6.2" text-anchor="end" stroke="none">60° CONE SEAT</text></g><g stroke="#1B2430" stroke-width="0.7" fill="none" font-family="Arial, sans-serif"><line x1="212" y1="70" x2="212" y2="77"/><path d="M209.4 70 h5.2 l-2.6 -3.6 Z" fill="#1B2430" stroke="none"/><rect x="207.5" y="77" width="9" height="9"/><text x="212" y="83.8" font-size="6" text-anchor="middle" fill="#1B2430" stroke="none">A</text></g><g stroke="#1B2430" stroke-width="0.7" fill="none" font-family="Arial, sans-serif"><rect x="40" y="140" width="43.6" height="10"/><line x1="51" y1="140" x2="51" y2="150"/><line x1="73.6" y1="140" x2="73.6" y2="150"/><text x="78.6" y="147.4" font-size="6.0" text-anchor="middle" fill="#1B2430" stroke="none">A</text><g stroke="#1B2430" stroke-width="0.8" fill="none"><line x1="43" y1="148" x2="46.2" y2="142.2"/><path d="M46.2 142.2 l1.6 3.2"/></g><text x="62.3" y="147.4" font-size="6.0" text-anchor="middle" fill="#1B2430" stroke="none">0.10</text></g></svg>