<svg xmlns="http://www.w3.org/2000/svg" viewBox="0 0 280 200" width="280" height="200" role="img"><defs><pattern id="hatch" width="4" height="4" patternUnits="userSpaceOnUse" patternTransform="rotate(45)"><line x1="0" y1="0" x2="0" y2="4" stroke="#1B2430" stroke-width="0.5"/></pattern></defs><rect width="280" height="200" fill="#FFFFFF"/><rect x="4" y="4" width="272" height="192" fill="none" stroke="#1B2430" stroke-width="1.2"/><rect x="6.5" y="6.5" width="267" height="187" fill="none" stroke="#1B2430" stroke-width="0.4"/><rect x="158" y="156" width="118" height="40" fill="#FFFFFF" stroke="#1B2430" stroke-width="0.9"/><line x1="158" y1="169" x2="276" y2="169" stroke="#1B2430" stroke-width="0.5"/><line x1="158" y1="182" x2="276" y2="182" stroke="#1B2430" stroke-width="0.5"/><line x1="220" y1="169" x2="220" y2="196" stroke="#1B2430" stroke-width="0.5"/><text x="162" y="165.5" font-family="Arial, sans-serif" font-size="6.4" font-weight="bold" fill="#1B2430">CUSTOM NUT PER DRAWING</text><text x="162" y="178.5" font-family="Arial, sans-serif" font-size="4.8" fill="#1B2430">MATL: PER CUSTOMER SPEC</text><text x="224" y="178.5" font-family="Arial, sans-serif" font-size="4.8" fill="#1B2430">SCALE 1:1</text><text x="162" y="191.5" font-family="Arial, sans-serif" font-size="4.8" fill="#1B2430">CROWN LINK · CL-N007</text><text x="224" y="191.5" font-family="Arial, sans-serif" font-size="4.8" fill="#1B2430">UNIT: mm</text><text x="10" y="190" font-family="Arial, sans-serif" font-size="5.0" fill="#1B2430">UNLESS NOTED: ±0.1 · ANGLES ±0.5° · ASME Y14.5</text><g stroke="#1B2430" stroke-width="0.6" fill="none"><circle cx="138" cy="187" r="2.2"/><circle cx="138" cy="187" r="0.7"/><path d="M143 183.6 L150 185 L150 189 L143 190.4 Z"/><line x1="133.5" y1="187" x2="152" y2="187" stroke-dasharray="3 1.2"/></g><circle cx="76" cy="80" r="34" stroke="#1B2430" fill="none" stroke-width="1.0"/><polygon points="89.0,87.5 76.0,95.0 63.0,87.5 63.0,72.5 76.0,65.0 89.0,72.5" stroke="#1B2430" fill="none" stroke-width="1.0"/><line x1="36" y1="80" x2="116" y2="80" stroke="#1B2430" stroke-width="0.5" stroke-dasharray="9 2 2 2"/><line x1="76" y1="40" x2="76" y2="120" stroke="#1B2430" stroke-width="0.5" stroke-dasharray="9 2 2 2"/><rect x="168" y="52" width="40" height="48" fill="url(#hatch)" stroke="#1B2430" stroke-width="1.0"/><rect x="160" y="100" width="56" height="8" fill="url(#hatch)" stroke="#1B2430" stroke-width="1.0"/><rect x="180" y="52" width="16" height="56" fill="#fff" stroke="#1B2430" stroke-width="0.5"/><line x1="188" y1="44" x2="188" y2="116" stroke="#1B2430" stroke-width="0.5" stroke-dasharray="9 2 2 2"/><g stroke="#1B2430" stroke-width="0.7" fill="#1B2430" font-family="Arial, sans-serif"><line x1="28" y1="46" x2="34" y2="46"/><line x1="28" y1="114" x2="34" y2="114"/><line x1="36" y1="46" x2="36" y2="114"/><path d="M36 46 l-1.3 3.4 h2.6 Z" stroke="none"/><path d="M36 114 l-1.3 -3.4 h2.6 Z" stroke="none"/><text x="39" y="82.0" font-size="6.2" stroke="none">⌀24.0 BODY</text></g><g stroke="#1B2430" stroke-width="0.7" fill="#1B2430" font-family="Arial, sans-serif"><line x1="76" y1="70" x2="110" y2="40"/><circle cx="76" cy="70" r="1" stroke="none"/><text x="112" y="42" font-size="6.2" text-anchor="start" stroke="none">HEX SOCKET 8.0 A/F</text></g><g stroke="#1B2430" stroke-width="0.7" fill="#1B2430" font-family="Arial, sans-serif"><line x1="222" y1="100" x2="226" y2="100"/><line x1="222" y1="108" x2="226" y2="108"/><line x1="228" y1="100" x2="228" y2="108"/><path d="M228 100 l-1.3 3.4 h2.6 Z" stroke="none"/><path d="M228 108 l-1.3 -3.4 h2.6 Z" stroke="none"/><text x="231" y="106.0" font-size="6.2" stroke="none">⌀32 FLANGE</text></g><g stroke="#1B2430" stroke-width="0.7" fill="none" font-family="Arial, sans-serif"><line x1="188" y1="112" x2="188" y2="119"/><path d="M185.4 112 h5.2 l-2.6 -3.6 Z" fill="#1B2430" stroke="none"/><rect x="183.5" y="119" width="9" height="9"/><text x="188" y="125.8" font-size="6" text-anchor="middle" fill="#1B2430" stroke="none">A</text></g><g stroke="#1B2430" stroke-width="0.7" fill="none" font-family="Arial, sans-serif"><rect x="40" y="140" width="47.0" height="10"/><line x1="51" y1="140" x2="51" y2="150"/><line x1="77.0" y1="140" x2="77.0" y2="150"/><text x="82.0" y="147.4" font-size="6.0" text-anchor="middle" fill="#1B2430" stroke="none">A</text><g stroke="#1B2430" stroke-width="0.8" fill="none"><circle cx="45.5" cy="145" r="2.6"/><circle cx="45.5" cy="145" r="1.1"/></g><text x="64.0" y="147.4" font-size="6.0" text-anchor="middle" fill="#1B2430" stroke="none">⌀0.15</text></g><text x="12" y="20" font-family="Arial" font-size="5.6" fill="#1B2430">REPRESENTATIVE GEOMETRY — FINAL DIMENSIONS PER CUSTOMER DRAWING</text></svg>