<svg xmlns="http://www.w3.org/2000/svg" viewBox="0 0 280 200" width="280" height="200" role="img"><defs><pattern id="hatch" width="4" height="4" patternUnits="userSpaceOnUse" patternTransform="rotate(45)"><line x1="0" y1="0" x2="0" y2="4" stroke="#1B2430" stroke-width="0.5"/></pattern></defs><rect width="280" height="200" fill="#FFFFFF"/><rect x="4" y="4" width="272" height="192" fill="none" stroke="#1B2430" stroke-width="1.2"/><rect x="6.5" y="6.5" width="267" height="187" fill="none" stroke="#1B2430" stroke-width="0.4"/><rect x="158" y="156" width="118" height="40" fill="#FFFFFF" stroke="#1B2430" stroke-width="0.9"/><line x1="158" y1="169" x2="276" y2="169" stroke="#1B2430" stroke-width="0.5"/><line x1="158" y1="182" x2="276" y2="182" stroke="#1B2430" stroke-width="0.5"/><line x1="220" y1="169" x2="220" y2="196" stroke="#1B2430" stroke-width="0.5"/><text x="162" y="165.5" font-family="Arial, sans-serif" font-size="6.4" font-weight="bold" fill="#1B2430">ECCENTRIC ALIGNMENT BOLT</text><text x="162" y="178.5" font-family="Arial, sans-serif" font-size="4.8" fill="#1B2430">MATL: STEEL CL 10.9 · …</text><text x="224" y="178.5" font-family="Arial, sans-serif" font-size="4.8" fill="#1B2430">SCALE 1:1</text><text x="162" y="191.5" font-family="Arial, sans-serif" font-size="4.8" fill="#1B2430">CROWN LINK · CL-S011</text><text x="224" y="191.5" font-family="Arial, sans-serif" font-size="4.8" fill="#1B2430">UNIT: mm</text><text x="10" y="190" font-family="Arial, sans-serif" font-size="5.0" fill="#1B2430">UNLESS NOTED: ±0.1 · ANGLES ±0.5° · ASME Y14.5</text><g stroke="#1B2430" stroke-width="0.6" fill="none"><circle cx="138" cy="187" r="2.2"/><circle cx="138" cy="187" r="0.7"/><path d="M143 183.6 L150 185 L150 189 L143 190.4 Z"/><line x1="133.5" y1="187" x2="152" y2="187" stroke-dasharray="3 1.2"/></g><rect x="48" y="72" width="14" height="28" stroke="#1B2430" fill="none" stroke-width="1.0"/><circle cx="86" cy="80" r="22" stroke="#1B2430" fill="none" stroke-width="1.0"/><g stroke="#1B2430"><line x1="108" y1="78" x2="204" y2="78" stroke-width="0.9"/><line x1="108" y1="94" x2="204" y2="94" stroke-width="0.9"/><line x1="108" y1="80.24" x2="204" y2="80.24" stroke-width="0.45"/><line x1="108" y1="91.76" x2="204" y2="91.76" stroke-width="0.45"/></g><path d="M204 78 L209 81 L209 91 L204 94" stroke="#1B2430" fill="none" stroke-width="1.0"/><line x1="40" y1="86" x2="218" y2="86" stroke="#1B2430" stroke-width="0.5" stroke-dasharray="9 2 2 2"/><line x1="64" y1="80" x2="110" y2="80" stroke="#1B2430" stroke-width="0.5" stroke-dasharray="9 2 2 2"/><g stroke="#1B2430" stroke-width="0.7" fill="#1B2430" font-family="Arial, sans-serif"><line x1="116" y1="80" x2="118" y2="80"/><line x1="116" y1="86" x2="118" y2="86"/><line x1="120" y1="80" x2="120" y2="86"/><path d="M120 80 l-1.3 3.4 h2.6 Z" stroke="none"/><path d="M120 86 l-1.3 -3.4 h2.6 Z" stroke="none"/><text x="123" y="85.0" font-size="6.2" stroke="none">2.0 OFFSET</text></g><g stroke="#1B2430" stroke-width="0.7" fill="#1B2430" font-family="Arial, sans-serif"><line x1="86" y1="58" x2="70" y2="40"/><circle cx="86" cy="58" r="1" stroke="none"/><text x="72" y="42" font-size="6.2" text-anchor="start" stroke="none">CAM LOBE ⌀32.0</text></g><g stroke="#1B2430" stroke-width="0.7" fill="#1B2430" font-family="Arial, sans-serif"><line x1="156" y1="78" x2="170" y2="52"/><circle cx="156" cy="78" r="1" stroke="none"/><text x="172" y="54" font-size="6.2" text-anchor="start" stroke="none">M12 × 1.25 - 6g</text></g><g stroke="#1B2430" stroke-width="0.7" fill="#1B2430" font-family="Arial, sans-serif"><line x1="108" y1="140" x2="108" y2="134"/><line x1="204" y1="140" x2="204" y2="134"/><line x1="108" y1="132" x2="204" y2="132"/><path d="M108 132 l3.4 -1.3 v2.6 Z" stroke="none"/><path d="M204 132 l-3.4 -1.3 v2.6 Z" stroke="none"/><text x="156.0" y="129.8" font-size="6.2" text-anchor="middle" stroke="none">70.0</text></g><g stroke="#1B2430" stroke-width="0.7" fill="none" font-family="Arial, sans-serif"><rect x="40" y="140" width="43.6" height="10"/><line x1="51" y1="140" x2="51" y2="150"/><line x1="73.6" y1="140" x2="73.6" y2="150"/><text x="78.6" y="147.4" font-size="6.0" text-anchor="middle" fill="#1B2430" stroke="none">A</text><g stroke="#1B2430" stroke-width="0.8" fill="none"><line x1="43" y1="148" x2="46.2" y2="142.2"/><path d="M46.2 142.2 l1.6 3.2"/></g><text x="62.3" y="147.4" font-size="6.0" text-anchor="middle" fill="#1B2430" stroke="none">0.15</text></g><g stroke="#1B2430" stroke-width="0.7" fill="none" font-family="Arial, sans-serif"><line x1="150" y1="96" x2="150" y2="103"/><path d="M147.4 96 h5.2 l-2.6 -3.6 Z" fill="#1B2430" stroke="none"/><rect x="145.5" y="103" width="9" height="9"/><text x="150" y="109.8" font-size="6" text-anchor="middle" fill="#1B2430" stroke="none">A</text></g></svg>