<svg xmlns="http://www.w3.org/2000/svg" viewBox="0 0 280 200" width="280" height="200" role="img"><defs><pattern id="hatch" width="4" height="4" patternUnits="userSpaceOnUse" patternTransform="rotate(45)"><line x1="0" y1="0" x2="0" y2="4" stroke="#1B2430" stroke-width="0.5"/></pattern></defs><rect width="280" height="200" fill="#FFFFFF"/><rect x="4" y="4" width="272" height="192" fill="none" stroke="#1B2430" stroke-width="1.2"/><rect x="6.5" y="6.5" width="267" height="187" fill="none" stroke="#1B2430" stroke-width="0.4"/><rect x="158" y="156" width="118" height="40" fill="#FFFFFF" stroke="#1B2430" stroke-width="0.9"/><line x1="158" y1="169" x2="276" y2="169" stroke="#1B2430" stroke-width="0.5"/><line x1="158" y1="182" x2="276" y2="182" stroke="#1B2430" stroke-width="0.5"/><line x1="220" y1="169" x2="220" y2="196" stroke="#1B2430" stroke-width="0.5"/><text x="162" y="165.5" font-family="Arial, sans-serif" font-size="6.4" font-weight="bold" fill="#1B2430">ELEVATOR BOLT · FLAT HD S…</text><text x="162" y="178.5" font-family="Arial, sans-serif" font-size="4.8" fill="#1B2430">MATL: STEEL GR 2 · ZIN…</text><text x="224" y="178.5" font-family="Arial, sans-serif" font-size="4.8" fill="#1B2430">SCALE 1:1</text><text x="162" y="191.5" font-family="Arial, sans-serif" font-size="4.8" fill="#1B2430">CROWN LINK · CL-S010</text><text x="224" y="191.5" font-family="Arial, sans-serif" font-size="4.8" fill="#1B2430">UNIT: in</text><text x="10" y="190" font-family="Arial, sans-serif" font-size="5.0" fill="#1B2430">UNLESS NOTED: ±.005 · ANGLES ±0.5° · ASME Y14.5</text><g stroke="#1B2430" stroke-width="0.6" fill="none"><circle cx="138" cy="187" r="2.2"/><circle cx="138" cy="187" r="0.7"/><path d="M143 183.6 L150 185 L150 189 L143 190.4 Z"/><line x1="133.5" y1="187" x2="152" y2="187" stroke-dasharray="3 1.2"/></g><rect x="50" y="56" width="7" height="60" stroke="#1B2430" fill="none" stroke-width="1.0"/><rect x="57" y="76" width="13" height="20" stroke="#1B2430" fill="none" stroke-width="1.0"/><g stroke="#1B2430"><line x1="70" y1="79" x2="186" y2="79" stroke-width="0.9"/><line x1="70" y1="93" x2="186" y2="93" stroke-width="0.9"/><line x1="70" y1="80.96" x2="186" y2="80.96" stroke-width="0.45"/><line x1="70" y1="91.04" x2="186" y2="91.04" stroke-width="0.45"/></g><path d="M186 79 L191 82 L191 90 L186 93" stroke="#1B2430" fill="none" stroke-width="1.0"/><line x1="42" y1="86" x2="200" y2="86" stroke="#1B2430" stroke-width="0.5" stroke-dasharray="9 2 2 2"/><g stroke="#1B2430" stroke-width="0.7" fill="#1B2430" font-family="Arial, sans-serif"><line x1="34" y1="56" x2="40" y2="56"/><line x1="34" y1="116" x2="40" y2="116"/><line x1="42" y1="56" x2="42" y2="116"/><path d="M42 56 l-1.3 3.4 h2.6 Z" stroke="none"/><path d="M42 116 l-1.3 -3.4 h2.6 Z" stroke="none"/><text x="45" y="88.0" font-size="6.2" stroke="none">⌀1.190</text></g><g stroke="#1B2430" stroke-width="0.7" fill="#1B2430" font-family="Arial, sans-serif"><line x1="57" y1="56" x2="57" y2="50"/><line x1="70" y1="56" x2="70" y2="50"/><line x1="57" y1="48" x2="70" y2="48"/><path d="M57 48 l3.4 -1.3 v2.6 Z" stroke="none"/><path d="M70 48 l-3.4 -1.3 v2.6 Z" stroke="none"/><text x="63.5" y="45.8" font-size="6.2" text-anchor="middle" stroke="none">.260 SQ</text></g><g stroke="#1B2430" stroke-width="0.7" fill="#1B2430" font-family="Arial, sans-serif"><line x1="70" y1="142" x2="70" y2="136"/><line x1="186" y1="142" x2="186" y2="136"/><line x1="70" y1="134" x2="186" y2="134"/><path d="M70 134 l3.4 -1.3 v2.6 Z" stroke="none"/><path d="M186 134 l-3.4 -1.3 v2.6 Z" stroke="none"/><text x="128.0" y="131.8" font-size="6.2" text-anchor="middle" stroke="none">2.000</text></g><g stroke="#1B2430" stroke-width="0.7" fill="#1B2430" font-family="Arial, sans-serif"><line x1="130" y1="79" x2="146" y2="54"/><circle cx="130" cy="79" r="1" stroke="none"/><text x="148" y="56" font-size="6.2" text-anchor="start" stroke="none">1/4-20 UNC-2A</text></g><g stroke="#1B2430" stroke-width="0.7" fill="none" font-family="Arial, sans-serif"><line x1="57" y1="120" x2="57" y2="127"/><path d="M54.4 120 h5.2 l-2.6 -3.6 Z" fill="#1B2430" stroke="none"/><rect x="52.5" y="127" width="9" height="9"/><text x="57" y="133.8" font-size="6" text-anchor="middle" fill="#1B2430" stroke="none">A</text></g><g stroke="#1B2430" stroke-width="0.7" fill="none" font-family="Arial, sans-serif"><rect x="150" y="140" width="47.0" height="10"/><line x1="161" y1="140" x2="161" y2="150"/><line x1="187.0" y1="140" x2="187.0" y2="150"/><text x="192.0" y="147.4" font-size="6.0" text-anchor="middle" fill="#1B2430" stroke="none">A</text><g stroke="#1B2430" stroke-width="0.9"><line x1="155.5" y1="142.2" x2="155.5" y2="147.8"/><line x1="152.5" y1="147.8" x2="158.5" y2="147.8"/></g><text x="174.0" y="147.4" font-size="6.0" text-anchor="middle" fill="#1B2430" stroke="none">⌀.015</text></g></svg>