<svg xmlns="http://www.w3.org/2000/svg" viewBox="0 0 280 200" width="280" height="200" role="img"><defs><pattern id="hatch" width="4" height="4" patternUnits="userSpaceOnUse" patternTransform="rotate(45)"><line x1="0" y1="0" x2="0" y2="4" stroke="#1B2430" stroke-width="0.5"/></pattern></defs><rect width="280" height="200" fill="#FFFFFF"/><rect x="4" y="4" width="272" height="192" fill="none" stroke="#1B2430" stroke-width="1.2"/><rect x="6.5" y="6.5" width="267" height="187" fill="none" stroke="#1B2430" stroke-width="0.4"/><rect x="158" y="156" width="118" height="40" fill="#FFFFFF" stroke="#1B2430" stroke-width="0.9"/><line x1="158" y1="169" x2="276" y2="169" stroke="#1B2430" stroke-width="0.5"/><line x1="158" y1="182" x2="276" y2="182" stroke="#1B2430" stroke-width="0.5"/><line x1="220" y1="169" x2="220" y2="196" stroke="#1B2430" stroke-width="0.5"/><text x="162" y="165.5" font-family="Arial, sans-serif" font-size="6.4" font-weight="bold" fill="#1B2430">FLAT WASHER · ISO 7089 M8</text><text x="162" y="178.5" font-family="Arial, sans-serif" font-size="4.8" fill="#1B2430">MATL: STEEL 200HV · ZI…</text><text x="224" y="178.5" font-family="Arial, sans-serif" font-size="4.8" fill="#1B2430">SCALE 2:1</text><text x="162" y="191.5" font-family="Arial, sans-serif" font-size="4.8" fill="#1B2430">CROWN LINK · CL-P004</text><text x="224" y="191.5" font-family="Arial, sans-serif" font-size="4.8" fill="#1B2430">UNIT: mm</text><text x="10" y="190" font-family="Arial, sans-serif" font-size="5.0" fill="#1B2430">UNLESS NOTED: ±0.1 · ANGLES ±0.5° · ASME Y14.5</text><g stroke="#1B2430" stroke-width="0.6" fill="none"><circle cx="138" cy="187" r="2.2"/><circle cx="138" cy="187" r="0.7"/><path d="M143 183.6 L150 185 L150 189 L143 190.4 Z"/><line x1="133.5" y1="187" x2="152" y2="187" stroke-dasharray="3 1.2"/></g><circle cx="82" cy="86" r="42" stroke="#1B2430" fill="none" stroke-width="1.0"/><circle cx="82" cy="86" r="21" stroke="#1B2430" fill="none" stroke-width="1.0"/><line x1="31" y1="86" x2="133" y2="86" stroke="#1B2430" stroke-width="0.5" stroke-dasharray="9 2 2 2"/><line x1="82" y1="35" x2="82" y2="137" stroke="#1B2430" stroke-width="0.5" stroke-dasharray="9 2 2 2"/><g stroke="#1B2430" stroke-width="0.7" fill="#1B2430" font-family="Arial, sans-serif"><line x1="20" y1="44" x2="26" y2="44"/><line x1="20" y1="128" x2="26" y2="128"/><line x1="28" y1="44" x2="28" y2="128"/><path d="M28 44 l-1.3 3.4 h2.6 Z" stroke="none"/><path d="M28 128 l-1.3 -3.4 h2.6 Z" stroke="none"/><text x="31" y="88.0" font-size="6.2" stroke="none">⌀16.0</text></g><g stroke="#1B2430" stroke-width="0.7" fill="#1B2430" font-family="Arial, sans-serif"><line x1="140" y1="65" x2="146" y2="65"/><line x1="140" y1="107" x2="146" y2="107"/><line x1="148" y1="65" x2="148" y2="107"/><path d="M148 65 l-1.3 3.4 h2.6 Z" stroke="none"/><path d="M148 107 l-1.3 -3.4 h2.6 Z" stroke="none"/><text x="151" y="88.0" font-size="6.2" stroke="none">⌀8.4</text></g><line x1="82" y1="65" x2="146" y2="65" stroke="#1B2430" stroke-width="0.5"/><line x1="82" y1="107" x2="146" y2="107" stroke="#1B2430" stroke-width="0.5"/><rect x="196" y="44" width="9" height="84" fill="url(#hatch)" stroke="#1B2430" stroke-width="1.0"/><g stroke="#1B2430" stroke-width="0.7" fill="#1B2430" font-family="Arial, sans-serif"><line x1="196" y1="39" x2="196" y2="33"/><line x1="205" y1="39" x2="205" y2="33"/><line x1="196" y1="31" x2="205" y2="31"/><path d="M196 31 l3.4 -1.3 v2.6 Z" stroke="none"/><path d="M205 31 l-3.4 -1.3 v2.6 Z" stroke="none"/><text x="200.5" y="28.8" font-size="6.2" text-anchor="middle" stroke="none">1.6</text></g><g stroke="#1B2430" stroke-width="0.7" fill="none" font-family="Arial, sans-serif"><rect x="182" y="136" width="33.6" height="10"/><line x1="193" y1="136" x2="193" y2="146"/><path d="M184.4 143.4 l2.4 -4.4 h4 l-2.4 4.4 Z" stroke="#1B2430" stroke-width="0.8" fill="none"/><text x="204.3" y="143.4" font-size="6.0" text-anchor="middle" fill="#1B2430" stroke="none">0.05</text></g><line x1="200" y1="128" x2="192" y2="136" stroke="#1B2430" stroke-width="0.5"/></svg>