<svg xmlns="http://www.w3.org/2000/svg" viewBox="0 0 280 200" width="280" height="200" role="img"><defs><pattern id="hatch" width="4" height="4" patternUnits="userSpaceOnUse" patternTransform="rotate(45)"><line x1="0" y1="0" x2="0" y2="4" stroke="#1B2430" stroke-width="0.5"/></pattern></defs><rect width="280" height="200" fill="#FFFFFF"/><rect x="4" y="4" width="272" height="192" fill="none" stroke="#1B2430" stroke-width="1.2"/><rect x="6.5" y="6.5" width="267" height="187" fill="none" stroke="#1B2430" stroke-width="0.4"/><rect x="158" y="156" width="118" height="40" fill="#FFFFFF" stroke="#1B2430" stroke-width="0.9"/><line x1="158" y1="169" x2="276" y2="169" stroke="#1B2430" stroke-width="0.5"/><line x1="158" y1="182" x2="276" y2="182" stroke="#1B2430" stroke-width="0.5"/><line x1="220" y1="169" x2="220" y2="196" stroke="#1B2430" stroke-width="0.5"/><text x="162" y="165.5" font-family="Arial, sans-serif" font-size="6.4" font-weight="bold" fill="#1B2430">PANEL HOLE PLUG · DOME</text><text x="162" y="178.5" font-family="Arial, sans-serif" font-size="4.8" fill="#1B2430">MATL: SPCC 0.8 · ZINC</text><text x="224" y="178.5" font-family="Arial, sans-serif" font-size="4.8" fill="#1B2430">SCALE 2:1</text><text x="162" y="191.5" font-family="Arial, sans-serif" font-size="4.8" fill="#1B2430">CROWN LINK · CL-P008</text><text x="224" y="191.5" font-family="Arial, sans-serif" font-size="4.8" fill="#1B2430">UNIT: mm</text><text x="10" y="190" font-family="Arial, sans-serif" font-size="5.0" fill="#1B2430">UNLESS NOTED: ±0.1 · ANGLES ±0.5° · ASME Y14.5</text><g stroke="#1B2430" stroke-width="0.6" fill="none"><circle cx="138" cy="187" r="2.2"/><circle cx="138" cy="187" r="0.7"/><path d="M143 183.6 L150 185 L150 189 L143 190.4 Z"/><line x1="133.5" y1="187" x2="152" y2="187" stroke-dasharray="3 1.2"/></g><path d="M60 96 q40 -26 80 0" stroke="#1B2430" fill="none" stroke-width="1.0"/><line x1="60" y1="96" x2="54" y2="104" stroke="#1B2430" stroke-width="1.0"/><line x1="140" y1="96" x2="146" y2="104" stroke="#1B2430" stroke-width="1.0"/><line x1="36" y1="104" x2="76" y2="104" stroke="#1B2430" stroke-width="1.0"/><line x1="124" y1="104" x2="166" y2="104" stroke="#1B2430" stroke-width="1.0"/><line x1="100" y1="60" x2="100" y2="124" stroke="#1B2430" stroke-width="0.5" stroke-dasharray="9 2 2 2"/><g stroke="#1B2430" stroke-width="0.7" fill="#1B2430" font-family="Arial, sans-serif"><line x1="60" y1="68" x2="60" y2="62"/><line x1="140" y1="68" x2="140" y2="62"/><line x1="60" y1="60" x2="140" y2="60"/><path d="M60 60 l3.4 -1.3 v2.6 Z" stroke="none"/><path d="M140 60 l-3.4 -1.3 v2.6 Z" stroke="none"/><text x="100.0" y="57.8" font-size="6.2" text-anchor="middle" stroke="none">⌀22.2 (7/8 KO)</text></g><g stroke="#1B2430" stroke-width="0.7" fill="#1B2430" font-family="Arial, sans-serif"><line x1="56" y1="100" x2="40" y2="76"/><circle cx="56" cy="100" r="1" stroke="none"/><text x="42" y="78" font-size="6.2" text-anchor="start" stroke="none">SNAP-FIT EDGE</text></g><g stroke="#1B2430" stroke-width="0.7" fill="#1B2430" font-family="Arial, sans-serif"><line x1="76" y1="130" x2="76" y2="124"/><line x1="124" y1="130" x2="124" y2="124"/><line x1="76" y1="122" x2="124" y2="122"/><path d="M76 122 l3.4 -1.3 v2.6 Z" stroke="none"/><path d="M124 122 l-3.4 -1.3 v2.6 Z" stroke="none"/><text x="100.0" y="119.8" font-size="6.2" text-anchor="middle" stroke="none">PANEL OPENING ⌀22.2</text></g><text x="12" y="26" font-family="Arial" font-size="5.4" fill="#1B2430">FOR PANEL 0.8–2.0 THK</text></svg>