<svg xmlns="http://www.w3.org/2000/svg" viewBox="0 0 280 200" width="280" height="200" role="img"><defs><pattern id="hatch" width="4" height="4" patternUnits="userSpaceOnUse" patternTransform="rotate(45)"><line x1="0" y1="0" x2="0" y2="4" stroke="#1B2430" stroke-width="0.5"/></pattern></defs><rect width="280" height="200" fill="#FFFFFF"/><rect x="4" y="4" width="272" height="192" fill="none" stroke="#1B2430" stroke-width="1.2"/><rect x="6.5" y="6.5" width="267" height="187" fill="none" stroke="#1B2430" stroke-width="0.4"/><rect x="158" y="156" width="118" height="40" fill="#FFFFFF" stroke="#1B2430" stroke-width="0.9"/><line x1="158" y1="169" x2="276" y2="169" stroke="#1B2430" stroke-width="0.5"/><line x1="158" y1="182" x2="276" y2="182" stroke="#1B2430" stroke-width="0.5"/><line x1="220" y1="169" x2="220" y2="196" stroke="#1B2430" stroke-width="0.5"/><text x="162" y="165.5" font-family="Arial, sans-serif" font-size="6.4" font-weight="bold" fill="#1B2430">WORM DRIVE HOSE CLAMP</text><text x="162" y="178.5" font-family="Arial, sans-serif" font-size="4.8" fill="#1B2430">MATL: SS 304 BAND / SS…</text><text x="224" y="178.5" font-family="Arial, sans-serif" font-size="4.8" fill="#1B2430">SCALE 1:1</text><text x="162" y="191.5" font-family="Arial, sans-serif" font-size="4.8" fill="#1B2430">CROWN LINK · CL-P001</text><text x="224" y="191.5" font-family="Arial, sans-serif" font-size="4.8" fill="#1B2430">UNIT: mm</text><text x="10" y="190" font-family="Arial, sans-serif" font-size="5.0" fill="#1B2430">UNLESS NOTED: ±0.1 · ANGLES ±0.5° · ASME Y14.5</text><g stroke="#1B2430" stroke-width="0.6" fill="none"><circle cx="138" cy="187" r="2.2"/><circle cx="138" cy="187" r="0.7"/><path d="M143 183.6 L150 185 L150 189 L143 190.4 Z"/><line x1="133.5" y1="187" x2="152" y2="187" stroke-dasharray="3 1.2"/></g><circle cx="92" cy="92" r="42" stroke="#1B2430" fill="none" stroke-width="1.0"/><circle cx="92" cy="92" r="33" stroke="#1B2430" fill="none" stroke-width="1.0"/><rect x="74" y="34" width="38" height="18" rx="4" stroke="#1B2430" fill="none" stroke-width="1.0"/><rect x="110" y="38" width="14" height="10" stroke="#1B2430" fill="none" stroke-width="0.5"/><line x1="42" y1="92" x2="142" y2="92" stroke="#1B2430" stroke-width="0.5" stroke-dasharray="9 2 2 2"/><line x1="92" y1="42" x2="92" y2="142" stroke="#1B2430" stroke-width="0.5" stroke-dasharray="9 2 2 2"/><g stroke="#1B2430" stroke-width="0.7" fill="#1B2430" font-family="Arial, sans-serif"><line x1="32" y1="50" x2="38" y2="50"/><line x1="32" y1="134" x2="38" y2="134"/><line x1="40" y1="50" x2="40" y2="134"/><path d="M40 50 l-1.3 3.4 h2.6 Z" stroke="none"/><path d="M40 134 l-1.3 -3.4 h2.6 Z" stroke="none"/><text x="43" y="94.0" font-size="6.2" stroke="none">⌀40–64 RANGE</text></g><g stroke="#1B2430" stroke-width="0.7" fill="#1B2430" font-family="Arial, sans-serif"><line x1="112" y1="40" x2="152" y2="36"/><circle cx="112" cy="40" r="1" stroke="none"/><text x="154" y="38" font-size="6.2" text-anchor="start" stroke="none">WORM SCREW 5/16 HEX HD</text></g><g stroke="#1B2430" stroke-width="0.7" fill="#1B2430" font-family="Arial, sans-serif"><line x1="124" y1="92" x2="158" y2="78"/><circle cx="124" cy="92" r="1" stroke="none"/><text x="160" y="80" font-size="6.2" text-anchor="start" stroke="none">BAND 12.7 × 0.6 SS 304</text></g><text x="156" y="100" font-family="Arial" font-size="5.4" fill="#1B2430">PER SAE J1508 SIZE 32</text></svg>