<svg xmlns="http://www.w3.org/2000/svg" viewBox="0 0 280 200" width="280" height="200" role="img"><defs><pattern id="hatch" width="4" height="4" patternUnits="userSpaceOnUse" patternTransform="rotate(45)"><line x1="0" y1="0" x2="0" y2="4" stroke="#1B2430" stroke-width="0.5"/></pattern></defs><rect width="280" height="200" fill="#FFFFFF"/><rect x="4" y="4" width="272" height="192" fill="none" stroke="#1B2430" stroke-width="1.2"/><rect x="6.5" y="6.5" width="267" height="187" fill="none" stroke="#1B2430" stroke-width="0.4"/><rect x="158" y="156" width="118" height="40" fill="#FFFFFF" stroke="#1B2430" stroke-width="0.9"/><line x1="158" y1="169" x2="276" y2="169" stroke="#1B2430" stroke-width="0.5"/><line x1="158" y1="182" x2="276" y2="182" stroke="#1B2430" stroke-width="0.5"/><line x1="220" y1="169" x2="220" y2="196" stroke="#1B2430" stroke-width="0.5"/><text x="162" y="165.5" font-family="Arial, sans-serif" font-size="6.4" font-weight="bold" fill="#1B2430">KNURLED PRESS-FIT INSERT</text><text x="162" y="178.5" font-family="Arial, sans-serif" font-size="4.8" fill="#1B2430">MATL: BRASS C3604</text><text x="224" y="178.5" font-family="Arial, sans-serif" font-size="4.8" fill="#1B2430">SCALE 5:1</text><text x="162" y="191.5" font-family="Arial, sans-serif" font-size="4.8" fill="#1B2430">CROWN LINK · CL-O009</text><text x="224" y="191.5" font-family="Arial, sans-serif" font-size="4.8" fill="#1B2430">UNIT: mm</text><text x="10" y="190" font-family="Arial, sans-serif" font-size="5.0" fill="#1B2430">UNLESS NOTED: ±0.1 · ANGLES ±0.5° · ASME Y14.5</text><g stroke="#1B2430" stroke-width="0.6" fill="none"><circle cx="138" cy="187" r="2.2"/><circle cx="138" cy="187" r="0.7"/><path d="M143 183.6 L150 185 L150 189 L143 190.4 Z"/><line x1="133.5" y1="187" x2="152" y2="187" stroke-dasharray="3 1.2"/></g><rect x="60" y="68" width="56" height="40" stroke="#1B2430" fill="none" stroke-width="1.0"/><line x1="64" y1="68" x2="70" y2="108" stroke="#1B2430" stroke-width="0.5"/><line x1="71" y1="68" x2="77" y2="108" stroke="#1B2430" stroke-width="0.5"/><line x1="78" y1="68" x2="84" y2="108" stroke="#1B2430" stroke-width="0.5"/><line x1="85" y1="68" x2="91" y2="108" stroke="#1B2430" stroke-width="0.5"/><line x1="92" y1="68" x2="98" y2="108" stroke="#1B2430" stroke-width="0.5"/><line x1="99" y1="68" x2="105" y2="108" stroke="#1B2430" stroke-width="0.5"/><line x1="106" y1="68" x2="112" y2="108" stroke="#1B2430" stroke-width="0.5"/><line x1="70" y1="68" x2="64" y2="108" stroke="#1B2430" stroke-width="0.5"/><line x1="77" y1="68" x2="71" y2="108" stroke="#1B2430" stroke-width="0.5"/><line x1="84" y1="68" x2="78" y2="108" stroke="#1B2430" stroke-width="0.5"/><line x1="91" y1="68" x2="85" y2="108" stroke="#1B2430" stroke-width="0.5"/><line x1="98" y1="68" x2="92" y2="108" stroke="#1B2430" stroke-width="0.5"/><line x1="105" y1="68" x2="99" y2="108" stroke="#1B2430" stroke-width="0.5"/><line x1="112" y1="68" x2="106" y2="108" stroke="#1B2430" stroke-width="0.5"/><rect x="116" y="68" width="56" height="11" fill="url(#hatch)" stroke="#1B2430" stroke-width="1.0"/><rect x="116" y="97" width="56" height="11" fill="url(#hatch)" stroke="#1B2430" stroke-width="1.0"/><line x1="116" y1="82" x2="172" y2="82" stroke="#1B2430" stroke-width="0.5"/><line x1="116" y1="94" x2="172" y2="94" stroke="#1B2430" stroke-width="0.5"/><line x1="50" y1="88" x2="184" y2="88" stroke="#1B2430" stroke-width="0.5" stroke-dasharray="9 2 2 2"/><line x1="116" y1="58" x2="116" y2="118" stroke="#1B2430" stroke-width="0.5" stroke-dasharray="9 2 2 2"/><g stroke="#1B2430" stroke-width="0.7" fill="#1B2430" font-family="Arial, sans-serif"><line x1="38" y1="68" x2="44" y2="68"/><line x1="38" y1="108" x2="44" y2="108"/><line x1="46" y1="68" x2="46" y2="108"/><path d="M46 68 l-1.3 3.4 h2.6 Z" stroke="none"/><path d="M46 108 l-1.3 -3.4 h2.6 Z" stroke="none"/><text x="49" y="90.0" font-size="6.2" stroke="none">⌀5.6</text></g><g stroke="#1B2430" stroke-width="0.7" fill="#1B2430" font-family="Arial, sans-serif"><line x1="60" y1="64" x2="60" y2="58"/><line x1="172" y1="64" x2="172" y2="58"/><line x1="60" y1="56" x2="172" y2="56"/><path d="M60 56 l3.4 -1.3 v2.6 Z" stroke="none"/><path d="M172 56 l-3.4 -1.3 v2.6 Z" stroke="none"/><text x="116.0" y="53.8" font-size="6.2" text-anchor="middle" stroke="none">8.0</text></g><g stroke="#1B2430" stroke-width="0.7" fill="#1B2430" font-family="Arial, sans-serif"><line x1="144" y1="82" x2="168" y2="44"/><circle cx="144" cy="82" r="1" stroke="none"/><text x="170" y="46" font-size="6.2" text-anchor="start" stroke="none">M4 × 0.7 - 6H</text></g><g stroke="#1B2430" stroke-width="0.7" fill="#1B2430" font-family="Arial, sans-serif"><line x1="88" y1="108" x2="76" y2="136"/><circle cx="88" cy="108" r="1" stroke="none"/><text x="78" y="138" font-size="6.2" text-anchor="start" stroke="none">DIAMOND KNURL DIN 82-RGE</text></g><g stroke="#1B2430" stroke-width="0.7" fill="none" font-family="Arial, sans-serif"><rect x="150" y="140" width="47.0" height="10"/><line x1="161" y1="140" x2="161" y2="150"/><line x1="187.0" y1="140" x2="187.0" y2="150"/><text x="192.0" y="147.4" font-size="6.0" text-anchor="middle" fill="#1B2430" stroke="none">A</text><g stroke="#1B2430" stroke-width="0.8" fill="none"><circle cx="155.5" cy="145" r="2.6"/><circle cx="155.5" cy="145" r="1.1"/></g><text x="174.0" y="147.4" font-size="6.0" text-anchor="middle" fill="#1B2430" stroke="none">⌀0.08</text></g><g stroke="#1B2430" stroke-width="0.7" fill="none" font-family="Arial, sans-serif"><line x1="166" y1="112" x2="166" y2="119"/><path d="M163.4 112 h5.2 l-2.6 -3.6 Z" fill="#1B2430" stroke="none"/><rect x="161.5" y="119" width="9" height="9"/><text x="166" y="125.8" font-size="6" text-anchor="middle" fill="#1B2430" stroke="none">A</text></g></svg>