<svg xmlns="http://www.w3.org/2000/svg" viewBox="0 0 280 200" width="280" height="200" role="img"><defs><pattern id="hatch" width="4" height="4" patternUnits="userSpaceOnUse" patternTransform="rotate(45)"><line x1="0" y1="0" x2="0" y2="4" stroke="#1B2430" stroke-width="0.5"/></pattern></defs><rect width="280" height="200" fill="#FFFFFF"/><rect x="4" y="4" width="272" height="192" fill="none" stroke="#1B2430" stroke-width="1.2"/><rect x="6.5" y="6.5" width="267" height="187" fill="none" stroke="#1B2430" stroke-width="0.4"/><rect x="158" y="156" width="118" height="40" fill="#FFFFFF" stroke="#1B2430" stroke-width="0.9"/><line x1="158" y1="169" x2="276" y2="169" stroke="#1B2430" stroke-width="0.5"/><line x1="158" y1="182" x2="276" y2="182" stroke="#1B2430" stroke-width="0.5"/><line x1="220" y1="169" x2="220" y2="196" stroke="#1B2430" stroke-width="0.5"/><text x="162" y="165.5" font-family="Arial, sans-serif" font-size="6.4" font-weight="bold" fill="#1B2430">LARGE STRUCTURAL STAMPING</text><text x="162" y="178.5" font-family="Arial, sans-serif" font-size="4.8" fill="#1B2430">MATL: SS400 4.5 THK</text><text x="224" y="178.5" font-family="Arial, sans-serif" font-size="4.8" fill="#1B2430">SCALE 1:1</text><text x="162" y="191.5" font-family="Arial, sans-serif" font-size="4.8" fill="#1B2430">CROWN LINK · CL-P009</text><text x="224" y="191.5" font-family="Arial, sans-serif" font-size="4.8" fill="#1B2430">UNIT: mm</text><text x="10" y="190" font-family="Arial, sans-serif" font-size="5.0" fill="#1B2430">UNLESS NOTED: ±0.1 · ANGLES ±0.5° · ASME Y14.5</text><g stroke="#1B2430" stroke-width="0.6" fill="none"><circle cx="138" cy="187" r="2.2"/><circle cx="138" cy="187" r="0.7"/><path d="M143 183.6 L150 185 L150 189 L143 190.4 Z"/><line x1="133.5" y1="187" x2="152" y2="187" stroke-dasharray="3 1.2"/></g><path d="M52 60 h140 v52 h-26 v-30 h-88 v30 h-26 Z" stroke="#1B2430" fill="none" stroke-width="1.0"/><circle cx="65" cy="98" r="6" stroke="#1B2430" fill="none" stroke-width="1.0"/><circle cx="179" cy="98" r="6" stroke="#1B2430" fill="none" stroke-width="1.0"/><circle cx="122" cy="72" r="7" stroke="#1B2430" fill="none" stroke-width="1.0"/><g stroke="#1B2430" stroke-width="0.7" fill="#1B2430" font-family="Arial, sans-serif"><line x1="52" y1="56" x2="52" y2="50"/><line x1="192" y1="56" x2="192" y2="50"/><line x1="52" y1="48" x2="192" y2="48"/><path d="M52 48 l3.4 -1.3 v2.6 Z" stroke="none"/><path d="M192 48 l-3.4 -1.3 v2.6 Z" stroke="none"/><text x="122.0" y="45.8" font-size="6.2" text-anchor="middle" stroke="none">(140.0)</text></g><g stroke="#1B2430" stroke-width="0.7" fill="#1B2430" font-family="Arial, sans-serif"><line x1="30" y1="60" x2="36" y2="60"/><line x1="30" y1="112" x2="36" y2="112"/><line x1="38" y1="60" x2="38" y2="112"/><path d="M38 60 l-1.3 3.4 h2.6 Z" stroke="none"/><path d="M38 112 l-1.3 -3.4 h2.6 Z" stroke="none"/><text x="41" y="88.0" font-size="6.2" stroke="none">(52.0)</text></g><g stroke="#1B2430" stroke-width="0.7" fill="#1B2430" font-family="Arial, sans-serif"><line x1="122" y1="65" x2="150" y2="40"/><circle cx="122" cy="65" r="1" stroke="none"/><text x="152" y="42" font-size="6.2" text-anchor="start" stroke="none">⌀14.0 ±0.05</text></g><g stroke="#1B2430" stroke-width="0.7" fill="none" font-family="Arial, sans-serif"><rect x="40" y="140" width="33.6" height="10"/><line x1="51" y1="140" x2="51" y2="150"/><path d="M42.4 147.4 l2.4 -4.4 h4 l-2.4 4.4 Z" stroke="#1B2430" stroke-width="0.8" fill="none"/><text x="62.3" y="147.4" font-size="6.0" text-anchor="middle" fill="#1B2430" stroke="none">0.30</text></g><text x="12" y="26" font-family="Arial" font-size="5.4" fill="#1B2430">MATERIAL: SS400 4.5 THK · ALL BENDS R4.5</text><text x="12" y="20" font-family="Arial" font-size="5.6" fill="#1B2430">REPRESENTATIVE GEOMETRY — FINAL DIMENSIONS PER CUSTOMER DRAWING</text></svg>