<svg xmlns="http://www.w3.org/2000/svg" viewBox="0 0 280 200" width="280" height="200" role="img"><rect width="280" height="200" fill="#FFFFFF"/><rect x="4" y="4" width="272" height="192" fill="none" stroke="#1B2430" stroke-width="1.2"/><rect x="6.5" y="6.5" width="267" height="187" fill="none" stroke="#1B2430" stroke-width="0.4"/><rect x="158" y="156" width="118" height="40" fill="#FFFFFF" stroke="#1B2430" stroke-width="0.9"/><line x1="158" y1="169" x2="276" y2="169" stroke="#1B2430" stroke-width="0.5"/><line x1="158" y1="182" x2="276" y2="182" stroke="#1B2430" stroke-width="0.5"/><line x1="220" y1="169" x2="220" y2="196" stroke="#1B2430" stroke-width="0.5"/><text x="162" y="165.5" font-family="Arial, sans-serif" font-size="6.4" font-weight="bold" fill="#1B2430">LONG SPECIAL SCREW 12:1</text><text x="162" y="178.5" font-family="Arial, sans-serif" font-size="4.8" fill="#1B2430">MATL: SS 304</text><text x="224" y="178.5" font-family="Arial, sans-serif" font-size="4.8" fill="#1B2430">SCALE 2:1</text><text x="162" y="191.5" font-family="Arial, sans-serif" font-size="4.8" fill="#1B2430">CROWN LINK · CL-S016</text><text x="224" y="191.5" font-family="Arial, sans-serif" font-size="4.8" fill="#1B2430">UNIT: mm</text><text x="10" y="190" font-family="Arial, sans-serif" font-size="5.0" fill="#1B2430">UNLESS NOTED: ±0.1 · ANGLES ±0.5° · ASME Y14.5</text><g stroke="#1B2430" stroke-width="0.6" fill="none"><circle cx="138" cy="187" r="2.2"/><circle cx="138" cy="187" r="0.7"/><path d="M143 183.6 L150 185 L150 189 L143 190.4 Z"/><line x1="133.5" y1="187" x2="152" y2="187" stroke-dasharray="3 1.2"/></g><path d="M76 69.0 L76 99.0 L69.4 99.0 Q59.2 84 69.4 69.0 Z" stroke="#1B2430" fill="none" stroke-width="1.0"/><g stroke="#1B2430"><line x1="76" y1="76.5" x2="241" y2="76.5" stroke-width="0.9"/><line x1="76" y1="91.5" x2="241" y2="91.5" stroke-width="0.9"/><line x1="76" y1="78.6" x2="241" y2="78.6" stroke-width="0.45"/><line x1="76" y1="89.4" x2="241" y2="89.4" stroke-width="0.45"/></g><path d="M241 76.5 L246 80.25 L246 87.75 L241 91.5" stroke="#1B2430" fill="none" stroke-width="1.0"/><line x1="54" y1="84" x2="255" y2="84" stroke="#1B2430" stroke-width="0.5" stroke-dasharray="9 2 2 2"/><g stroke="#1B2430" stroke-width="0.7" fill="#1B2430" font-family="Arial, sans-serif"><line x1="76" y1="61.0" x2="76" y2="55.0"/><line x1="246" y1="61.0" x2="246" y2="55.0"/><line x1="76" y1="53.0" x2="246" y2="53.0"/><path d="M76 53.0 l3.4 -1.3 v2.6 Z" stroke="none"/><path d="M246 53.0 l-3.4 -1.3 v2.6 Z" stroke="none"/><text x="161.0" y="50.8" font-size="6.2" text-anchor="middle" stroke="none">60.0</text></g><g stroke="#1B2430" stroke-width="0.7" fill="#1B2430" font-family="Arial, sans-serif"><line x1="42" y1="69.0" x2="48" y2="69.0"/><line x1="42" y1="99.0" x2="48" y2="99.0"/><line x1="50" y1="69.0" x2="50" y2="99.0"/><path d="M50 69.0 l-1.3 3.4 h2.6 Z" stroke="none"/><path d="M50 99.0 l-1.3 -3.4 h2.6 Z" stroke="none"/><text x="53" y="86.0" font-size="6.2" stroke="none">⌀9.5</text></g><g stroke="#1B2430" stroke-width="0.7" fill="#1B2430" font-family="Arial, sans-serif"><line x1="65" y1="120.0" x2="65" y2="114.0"/><line x1="76" y1="120.0" x2="76" y2="114.0"/><line x1="65" y1="112.0" x2="76" y2="112.0"/><path d="M65 112.0 l3.4 -1.3 v2.6 Z" stroke="none"/><path d="M76 112.0 l-3.4 -1.3 v2.6 Z" stroke="none"/><text x="70.5" y="109.8" font-size="6.2" text-anchor="middle" stroke="none">3.5</text></g><g stroke="#1B2430" stroke-width="0.7" fill="#1B2430" font-family="Arial, sans-serif"><line x1="169.5" y1="76.5" x2="185.5" y2="56.5"/><circle cx="169.5" cy="76.5" r="1" stroke="none"/><text x="187.5" y="58.5" font-size="6.2" text-anchor="start" stroke="none">M5 × 0.8 - 6g</text></g><g stroke="#1B2430" stroke-width="0.7" fill="#1B2430" font-family="Arial, sans-serif"><line x1="67" y1="73.0" x2="46" y2="55.0"/><circle cx="67" cy="73.0" r="1" stroke="none"/><text x="44" y="57.0" font-size="6.2" text-anchor="end" stroke="none">SLOTTED 1.2 × 1.6</text></g><g stroke="#1B2430" stroke-width="0.7" fill="none" font-family="Arial, sans-serif"><line x1="78" y1="99.5" x2="78" y2="106.5"/><path d="M75.4 99.5 h5.2 l-2.6 -3.6 Z" fill="#1B2430" stroke="none"/><rect x="73.5" y="106.5" width="9" height="9"/><text x="78" y="113.3" font-size="6" text-anchor="middle" fill="#1B2430" stroke="none">A</text></g><g stroke="#1B2430" stroke-width="0.7" fill="none" font-family="Arial, sans-serif"><rect x="150" y="132" width="47.0" height="10"/><line x1="161" y1="132" x2="161" y2="142"/><line x1="187.0" y1="132" x2="187.0" y2="142"/><text x="192.0" y="139.4" font-size="6.0" text-anchor="middle" fill="#1B2430" stroke="none">A</text><g stroke="#1B2430" stroke-width="0.9"><line x1="155.5" y1="134.2" x2="155.5" y2="139.8"/><line x1="152.5" y1="139.8" x2="158.5" y2="139.8"/></g><text x="174.0" y="139.4" font-size="6.0" text-anchor="middle" fill="#1B2430" stroke="none">⌀0.08</text></g><text x="12" y="20" font-family="Arial" font-size="5.6" fill="#1B2430">REPRESENTATIVE GEOMETRY — FINAL DIMENSIONS PER CUSTOMER DRAWING</text></svg>