<svg xmlns="http://www.w3.org/2000/svg" viewBox="0 0 280 200" width="280" height="200" role="img"><defs><pattern id="hatch" width="4" height="4" patternUnits="userSpaceOnUse" patternTransform="rotate(45)"><line x1="0" y1="0" x2="0" y2="4" stroke="#1B2430" stroke-width="0.5"/></pattern></defs><rect width="280" height="200" fill="#FFFFFF"/><rect x="4" y="4" width="272" height="192" fill="none" stroke="#1B2430" stroke-width="1.2"/><rect x="6.5" y="6.5" width="267" height="187" fill="none" stroke="#1B2430" stroke-width="0.4"/><rect x="158" y="156" width="118" height="40" fill="#FFFFFF" stroke="#1B2430" stroke-width="0.9"/><line x1="158" y1="169" x2="276" y2="169" stroke="#1B2430" stroke-width="0.5"/><line x1="158" y1="182" x2="276" y2="182" stroke="#1B2430" stroke-width="0.5"/><line x1="220" y1="169" x2="220" y2="196" stroke="#1B2430" stroke-width="0.5"/><text x="162" y="165.5" font-family="Arial, sans-serif" font-size="6.4" font-weight="bold" fill="#1B2430">NYLON INSERT LOCKNUT · DI…</text><text x="162" y="178.5" font-family="Arial, sans-serif" font-size="4.8" fill="#1B2430">MATL: STEEL CL 8 + PA6…</text><text x="224" y="178.5" font-family="Arial, sans-serif" font-size="4.8" fill="#1B2430">SCALE 2:1</text><text x="162" y="191.5" font-family="Arial, sans-serif" font-size="4.8" fill="#1B2430">CROWN LINK · CL-N003</text><text x="224" y="191.5" font-family="Arial, sans-serif" font-size="4.8" fill="#1B2430">UNIT: mm</text><text x="10" y="190" font-family="Arial, sans-serif" font-size="5.0" fill="#1B2430">UNLESS NOTED: ±0.1 · ANGLES ±0.5° · ASME Y14.5</text><g stroke="#1B2430" stroke-width="0.6" fill="none"><circle cx="138" cy="187" r="2.2"/><circle cx="138" cy="187" r="0.7"/><path d="M143 183.6 L150 185 L150 189 L143 190.4 Z"/><line x1="133.5" y1="187" x2="152" y2="187" stroke-dasharray="3 1.2"/></g><polygon points="106.0,100.2 78.0,116.3 50.0,100.2 50.0,67.8 78.0,51.7 106.0,67.8" stroke="#1B2430" fill="none" stroke-width="1.0"/><circle cx="78" cy="84" r="16.8" stroke="#1B2430" fill="none" stroke-width="1.0"/><path d="M98.72 84 A20.72 20.72 0 1 1 78 63.28" stroke="#1B2430" stroke-width="0.5" fill="none"/><line x1="37.668384925380956" y1="84" x2="118.33161507461904" y2="84" stroke="#1B2430" stroke-width="0.5" stroke-dasharray="9 2 2 2"/><line x1="78" y1="43.668384925380956" x2="78" y2="124.33161507461904" stroke="#1B2430" stroke-width="0.5" stroke-dasharray="9 2 2 2"/><g stroke="#1B2430" stroke-width="0.7" fill="#1B2430" font-family="Arial, sans-serif"><line x1="25.668384925380956" y1="56.0" x2="31.668384925380956" y2="56.0"/><line x1="25.668384925380956" y1="112.0" x2="31.668384925380956" y2="112.0"/><line x1="33.668384925380956" y1="56.0" x2="33.668384925380956" y2="112.0"/><path d="M33.668384925380956 56.0 l-1.3 3.4 h2.6 Z" stroke="none"/><path d="M33.668384925380956 112.0 l-1.3 -3.4 h2.6 Z" stroke="none"/><text x="36.668384925380956" y="86.0" font-size="6.2" stroke="none">13.0 A/F</text></g><rect x="176" y="56.0" width="30" height="11.2" fill="url(#hatch)" stroke="#1B2430" stroke-width="1.0"/><rect x="176" y="100.8" width="30" height="11.2" fill="url(#hatch)" stroke="#1B2430" stroke-width="1.0"/><line x1="176" y1="67.2" x2="206" y2="67.2" stroke="#1B2430" stroke-width="1.0"/><line x1="176" y1="100.8" x2="206" y2="100.8" stroke="#1B2430" stroke-width="1.0"/><line x1="176" y1="63.800000000000004" x2="206" y2="63.800000000000004" stroke="#1B2430" stroke-width="0.5"/><line x1="176" y1="104.2" x2="206" y2="104.2" stroke="#1B2430" stroke-width="0.5"/><line x1="168" y1="84" x2="216" y2="84" stroke="#1B2430" stroke-width="0.5" stroke-dasharray="9 2 2 2"/><g stroke="#1B2430" stroke-width="0.7" fill="#1B2430" font-family="Arial, sans-serif"><line x1="176" y1="50.0" x2="176" y2="44.0"/><line x1="206" y1="50.0" x2="206" y2="44.0"/><line x1="176" y1="42.0" x2="206" y2="42.0"/><path d="M176 42.0 l3.4 -1.3 v2.6 Z" stroke="none"/><path d="M206 42.0 l-3.4 -1.3 v2.6 Z" stroke="none"/><text x="191.0" y="39.8" font-size="6.2" text-anchor="middle" stroke="none">8.0</text></g><g stroke="#1B2430" stroke-width="0.7" fill="#1B2430" font-family="Arial, sans-serif"><line x1="191.0" y1="63.800000000000004" x2="211.0" y2="41.2"/><circle cx="191.0" cy="63.800000000000004" r="1" stroke="none"/><text x="213.0" y="43.2" font-size="6.2" text-anchor="start" stroke="none">M8 × 1.25 - 6H</text></g><g stroke="#1B2430" stroke-width="0.7" fill="none" font-family="Arial, sans-serif"><line x1="176" y1="116.0" x2="176" y2="123.0"/><path d="M173.4 116.0 h5.2 l-2.6 -3.6 Z" fill="#1B2430" stroke="none"/><rect x="171.5" y="123.0" width="9" height="9"/><text x="176" y="129.8" font-size="6" text-anchor="middle" fill="#1B2430" stroke="none">A</text></g><g stroke="#1B2430" stroke-width="0.7" fill="none" font-family="Arial, sans-serif"><rect x="150" y="138" width="43.6" height="10"/><line x1="161" y1="138" x2="161" y2="148"/><line x1="183.6" y1="138" x2="183.6" y2="148"/><text x="188.6" y="145.4" font-size="6.0" text-anchor="middle" fill="#1B2430" stroke="none">A</text><g stroke="#1B2430" stroke-width="0.9"><line x1="155.5" y1="140.2" x2="155.5" y2="145.8"/><line x1="152.5" y1="145.8" x2="158.5" y2="145.8"/></g><text x="172.3" y="145.4" font-size="6.0" text-anchor="middle" fill="#1B2430" stroke="none">0.10</text></g><text x="150" y="134" font-family="Arial" font-size="5.4" fill="#1B2430">BEARING FACE</text><rect x="176" y="56" width="30" height="8" stroke="#1B2430" fill="none" stroke-width="1.0" stroke-dasharray="3 1.5"/><g stroke="#1B2430" stroke-width="0.7" fill="#1B2430" font-family="Arial, sans-serif"><line x1="191" y1="58" x2="214" y2="40"/><circle cx="191" cy="58" r="1" stroke="none"/><text x="216" y="42" font-size="6.2" text-anchor="start" stroke="none">PA66 COLLAR</text></g><text x="12" y="26" font-family="Arial" font-size="5.4" fill="#1B2430">PREVAILING TORQUE PER ISO 2320</text></svg>