<svg xmlns="http://www.w3.org/2000/svg" viewBox="0 0 280 200" width="280" height="200" role="img"><rect width="280" height="200" fill="#FFFFFF"/><rect x="4" y="4" width="272" height="192" fill="none" stroke="#1B2430" stroke-width="1.2"/><rect x="6.5" y="6.5" width="267" height="187" fill="none" stroke="#1B2430" stroke-width="0.4"/><rect x="158" y="156" width="118" height="40" fill="#FFFFFF" stroke="#1B2430" stroke-width="0.9"/><line x1="158" y1="169" x2="276" y2="169" stroke="#1B2430" stroke-width="0.5"/><line x1="158" y1="182" x2="276" y2="182" stroke="#1B2430" stroke-width="0.5"/><line x1="220" y1="169" x2="220" y2="196" stroke="#1B2430" stroke-width="0.5"/><text x="162" y="165.5" font-family="Arial, sans-serif" font-size="6.4" font-weight="bold" fill="#1B2430">OPEN DIE SCREW</text><text x="162" y="178.5" font-family="Arial, sans-serif" font-size="4.8" fill="#1B2430">MATL: STEEL CL 8.8 · Z…</text><text x="224" y="178.5" font-family="Arial, sans-serif" font-size="4.8" fill="#1B2430">SCALE 1:1</text><text x="162" y="191.5" font-family="Arial, sans-serif" font-size="4.8" fill="#1B2430">CROWN LINK · CL-S002</text><text x="224" y="191.5" font-family="Arial, sans-serif" font-size="4.8" fill="#1B2430">UNIT: mm</text><text x="10" y="190" font-family="Arial, sans-serif" font-size="5.0" fill="#1B2430">UNLESS NOTED: ±0.1 · ANGLES ±0.5° · ASME Y14.5</text><g stroke="#1B2430" stroke-width="0.6" fill="none"><circle cx="138" cy="187" r="2.2"/><circle cx="138" cy="187" r="0.7"/><path d="M143 183.6 L150 185 L150 189 L143 190.4 Z"/><line x1="133.5" y1="187" x2="152" y2="187" stroke-dasharray="3 1.2"/></g><rect x="52" y="69.0" width="18" height="34" stroke="#1B2430" fill="none" stroke-width="1.0"/><line x1="52" y1="78.18" x2="70" y2="78.18" stroke="#1B2430" stroke-width="0.5"/><line x1="52" y1="93.82" x2="70" y2="93.82" stroke="#1B2430" stroke-width="0.5"/><line x1="70" y1="76.65" x2="133.0" y2="76.65" stroke="#1B2430" stroke-width="1.0"/><line x1="70" y1="95.35" x2="133.0" y2="95.35" stroke="#1B2430" stroke-width="1.0"/><g stroke="#1B2430"><line x1="133.0" y1="76.65" x2="204.0" y2="76.65" stroke-width="0.9"/><line x1="133.0" y1="95.35" x2="204.0" y2="95.35" stroke-width="0.9"/><line x1="133.0" y1="79.268" x2="204.0" y2="79.268" stroke-width="0.45"/><line x1="133.0" y1="92.732" x2="204.0" y2="92.732" stroke-width="0.45"/></g><path d="M204 76.65 L210 81.325 L210 90.675 L204 95.35" stroke="#1B2430" fill="none" stroke-width="1.0"/><line x1="44" y1="86" x2="222" y2="86" stroke="#1B2430" stroke-width="0.5" stroke-dasharray="9 2 2 2"/><g stroke="#1B2430" stroke-width="0.7" fill="#1B2430" font-family="Arial, sans-serif"><line x1="70" y1="61.0" x2="70" y2="55.0"/><line x1="210" y1="61.0" x2="210" y2="55.0"/><line x1="70" y1="53.0" x2="210" y2="53.0"/><path d="M70 53.0 l3.4 -1.3 v2.6 Z" stroke="none"/><path d="M210 53.0 l-3.4 -1.3 v2.6 Z" stroke="none"/><text x="140.0" y="50.8" font-size="6.2" text-anchor="middle" stroke="none">45.0</text></g><g stroke="#1B2430" stroke-width="0.7" fill="#1B2430" font-family="Arial, sans-serif"><line x1="133.0" y1="125.0" x2="133.0" y2="119.0"/><line x1="210" y1="125.0" x2="210" y2="119.0"/><line x1="133.0" y1="117.0" x2="210" y2="117.0"/><path d="M133.0 117.0 l3.4 -1.3 v2.6 Z" stroke="none"/><path d="M210 117.0 l-3.4 -1.3 v2.6 Z" stroke="none"/><text x="171.5" y="114.8" font-size="6.2" text-anchor="middle" stroke="none">26.0</text></g><g stroke="#1B2430" stroke-width="0.7" fill="#1B2430" font-family="Arial, sans-serif"><line x1="32" y1="69.0" x2="38" y2="69.0"/><line x1="32" y1="103.0" x2="38" y2="103.0"/><line x1="40" y1="69.0" x2="40" y2="103.0"/><path d="M40 69.0 l-1.3 3.4 h2.6 Z" stroke="none"/><path d="M40 103.0 l-1.3 -3.4 h2.6 Z" stroke="none"/><text x="43" y="88.0" font-size="6.2" stroke="none">16.0 A/F</text></g><g stroke="#1B2430" stroke-width="0.7" fill="#1B2430" font-family="Arial, sans-serif"><line x1="52" y1="45.0" x2="52" y2="39.0"/><line x1="70" y1="45.0" x2="70" y2="39.0"/><line x1="52" y1="37.0" x2="70" y2="37.0"/><path d="M52 37.0 l3.4 -1.3 v2.6 Z" stroke="none"/><path d="M70 37.0 l-3.4 -1.3 v2.6 Z" stroke="none"/><text x="61.0" y="34.8" font-size="6.2" text-anchor="middle" stroke="none">6.4</text></g><g stroke="#1B2430" stroke-width="0.7" fill="#1B2430" font-family="Arial, sans-serif"><line x1="171.5" y1="76.65" x2="189.5" y2="54.650000000000006"/><circle cx="171.5" cy="76.65" r="1" stroke="none"/><text x="191.5" y="56.650000000000006" font-size="6.2" text-anchor="start" stroke="none">M10 × 1.5 - 6g</text></g><g stroke="#1B2430" stroke-width="0.7" fill="none" font-family="Arial, sans-serif"><line x1="74" y1="107.0" x2="74" y2="114.0"/><path d="M71.4 107.0 h5.2 l-2.6 -3.6 Z" fill="#1B2430" stroke="none"/><rect x="69.5" y="114.0" width="9" height="9"/><text x="74" y="120.8" font-size="6" text-anchor="middle" fill="#1B2430" stroke="none">A</text></g><g stroke="#1B2430" stroke-width="0.7" fill="none" font-family="Arial, sans-serif"><rect x="150" y="132" width="47.0" height="10"/><line x1="161" y1="132" x2="161" y2="142"/><line x1="187.0" y1="132" x2="187.0" y2="142"/><text x="192.0" y="139.4" font-size="6.0" text-anchor="middle" fill="#1B2430" stroke="none">A</text><g stroke="#1B2430" stroke-width="0.9"><line x1="155.5" y1="134.2" x2="155.5" y2="139.8"/><line x1="152.5" y1="139.8" x2="158.5" y2="139.8"/></g><text x="174.0" y="139.4" font-size="6.0" text-anchor="middle" fill="#1B2430" stroke="none">⌀0.10</text></g><text x="150" y="128" font-family="Arial" font-size="5.4" fill="#1B2430">THREAD AXIS</text><text x="12" y="20" font-family="Arial" font-size="5.6" fill="#1B2430">REPRESENTATIVE GEOMETRY — FINAL DIMENSIONS PER CUSTOMER DRAWING</text></svg>