<svg xmlns="http://www.w3.org/2000/svg" viewBox="0 0 280 200" width="280" height="200" role="img"><defs><pattern id="hatch" width="4" height="4" patternUnits="userSpaceOnUse" patternTransform="rotate(45)"><line x1="0" y1="0" x2="0" y2="4" stroke="#1B2430" stroke-width="0.5"/></pattern></defs><rect width="280" height="200" fill="#FFFFFF"/><rect x="4" y="4" width="272" height="192" fill="none" stroke="#1B2430" stroke-width="1.2"/><rect x="6.5" y="6.5" width="267" height="187" fill="none" stroke="#1B2430" stroke-width="0.4"/><rect x="158" y="156" width="118" height="40" fill="#FFFFFF" stroke="#1B2430" stroke-width="0.9"/><line x1="158" y1="169" x2="276" y2="169" stroke="#1B2430" stroke-width="0.5"/><line x1="158" y1="182" x2="276" y2="182" stroke="#1B2430" stroke-width="0.5"/><line x1="220" y1="169" x2="220" y2="196" stroke="#1B2430" stroke-width="0.5"/><text x="162" y="165.5" font-family="Arial, sans-serif" font-size="6.4" font-weight="bold" fill="#1B2430">PLASTIC &amp; RUBBER ASSY PAR…</text><text x="162" y="178.5" font-family="Arial, sans-serif" font-size="4.8" fill="#1B2430">MATL: EPDM / PA66 / NBR</text><text x="224" y="178.5" font-family="Arial, sans-serif" font-size="4.8" fill="#1B2430">SCALE 1:1</text><text x="162" y="191.5" font-family="Arial, sans-serif" font-size="4.8" fill="#1B2430">CROWN LINK · CL-O004</text><text x="224" y="191.5" font-family="Arial, sans-serif" font-size="4.8" fill="#1B2430">UNIT: mm</text><text x="10" y="190" font-family="Arial, sans-serif" font-size="5.0" fill="#1B2430">UNLESS NOTED: ±0.1 · ANGLES ±0.5° · ASME Y14.5</text><g stroke="#1B2430" stroke-width="0.6" fill="none"><circle cx="138" cy="187" r="2.2"/><circle cx="138" cy="187" r="0.7"/><path d="M143 183.6 L150 185 L150 189 L143 190.4 Z"/><line x1="133.5" y1="187" x2="152" y2="187" stroke-dasharray="3 1.2"/></g><circle cx="64" cy="78" r="26" stroke="#1B2430" fill="none" stroke-width="1.0"/><circle cx="64" cy="78" r="13" stroke="#1B2430" fill="none" stroke-width="1.0"/><path d="M140 56 l-12 14 h24 Z M140 74 l-12 14 h24 Z M140 92 l-12 14 h24 Z" stroke="#1B2430" fill="none" stroke-width="1.0"/><line x1="140" y1="56" x2="140" y2="116" stroke="#1B2430" stroke-width="0.5"/><circle cx="212" cy="82" r="24" stroke="#1B2430" fill="none" stroke-width="6"/><g stroke="#1B2430" stroke-width="0.7" fill="#1B2430" font-family="Arial, sans-serif"><line x1="64" y1="52" x2="50" y2="34"/><circle cx="64" cy="52" r="1" stroke="none"/><text x="52" y="36" font-size="6.2" text-anchor="start" stroke="none">GROMMET ID 9.5 / PANEL ⌀12.7</text></g><g stroke="#1B2430" stroke-width="0.7" fill="#1B2430" font-family="Arial, sans-serif"><line x1="152" y1="70" x2="168" y2="48"/><circle cx="152" cy="70" r="1" stroke="none"/><text x="170" y="50" font-size="6.2" text-anchor="start" stroke="none">PUSH CLIP ⌀8 PANEL</text></g><g stroke="#1B2430" stroke-width="0.7" fill="#1B2430" font-family="Arial, sans-serif"><line x1="212" y1="106" x2="196" y2="134"/><circle cx="212" cy="106" r="1" stroke="none"/><text x="198" y="136" font-size="6.2" text-anchor="start" stroke="none">O-RING AS568-214 NBR70</text></g><text x="12" y="20" font-family="Arial" font-size="5.6" fill="#1B2430">REPRESENTATIVE GEOMETRY — FINAL DIMENSIONS PER CUSTOMER DRAWING</text></svg>