<svg xmlns="http://www.w3.org/2000/svg" viewBox="0 0 280 200" width="280" height="200" role="img"><defs><pattern id="hatch" width="4" height="4" patternUnits="userSpaceOnUse" patternTransform="rotate(45)"><line x1="0" y1="0" x2="0" y2="4" stroke="#1B2430" stroke-width="0.5"/></pattern></defs><rect width="280" height="200" fill="#FFFFFF"/><rect x="4" y="4" width="272" height="192" fill="none" stroke="#1B2430" stroke-width="1.2"/><rect x="6.5" y="6.5" width="267" height="187" fill="none" stroke="#1B2430" stroke-width="0.4"/><rect x="158" y="156" width="118" height="40" fill="#FFFFFF" stroke="#1B2430" stroke-width="0.9"/><line x1="158" y1="169" x2="276" y2="169" stroke="#1B2430" stroke-width="0.5"/><line x1="158" y1="182" x2="276" y2="182" stroke="#1B2430" stroke-width="0.5"/><line x1="220" y1="169" x2="220" y2="196" stroke="#1B2430" stroke-width="0.5"/><text x="162" y="165.5" font-family="Arial, sans-serif" font-size="6.4" font-weight="bold" fill="#1B2430">PUSH NUT · PAL TYPE</text><text x="162" y="178.5" font-family="Arial, sans-serif" font-size="4.8" fill="#1B2430">MATL: SPRING STEEL · Z…</text><text x="224" y="178.5" font-family="Arial, sans-serif" font-size="4.8" fill="#1B2430">SCALE 3:1</text><text x="162" y="191.5" font-family="Arial, sans-serif" font-size="4.8" fill="#1B2430">CROWN LINK · CL-P007</text><text x="224" y="191.5" font-family="Arial, sans-serif" font-size="4.8" fill="#1B2430">UNIT: mm</text><text x="10" y="190" font-family="Arial, sans-serif" font-size="5.0" fill="#1B2430">UNLESS NOTED: ±0.1 · ANGLES ±0.5° · ASME Y14.5</text><g stroke="#1B2430" stroke-width="0.6" fill="none"><circle cx="138" cy="187" r="2.2"/><circle cx="138" cy="187" r="0.7"/><path d="M143 183.6 L150 185 L150 189 L143 190.4 Z"/><line x1="133.5" y1="187" x2="152" y2="187" stroke-dasharray="3 1.2"/></g><circle cx="76" cy="82" r="36" stroke="#1B2430" fill="none" stroke-width="1.0"/><circle cx="76" cy="82" r="12" stroke="#1B2430" fill="none" stroke-width="1.0"/><line x1="88.05339010936824" y1="86.86988571440686" x2="101.03396407330325" y2="92.11437802222963" stroke="#1B2430" stroke-width="0.5"/><line x1="81.07950467036056" y1="93.96656309488172" x2="86.54974046921039" y2="106.8536310432159" stroke="#1B2430" stroke-width="0.5"/><line x1="71.13011428559314" y1="94.05339010936824" x2="65.88562197777037" y2="107.03396407330325" stroke="#1B2430" stroke-width="0.5"/><line x1="64.03343690511828" y1="87.07950467036056" x2="51.14636895678411" y2="92.54974046921039" stroke="#1B2430" stroke-width="0.5"/><line x1="63.94660989063176" y1="77.13011428559314" x2="50.96603592669674" y2="71.88562197777037" stroke="#1B2430" stroke-width="0.5"/><line x1="70.92049532963944" y1="70.03343690511828" x2="65.45025953078961" y2="57.146368956784116" stroke="#1B2430" stroke-width="0.5"/><line x1="80.86988571440685" y1="69.94660989063176" x2="86.11437802222963" y2="56.96603592669674" stroke="#1B2430" stroke-width="0.5"/><line x1="87.96656309488172" y1="76.92049532963944" x2="100.85363104321588" y2="71.45025953078961" stroke="#1B2430" stroke-width="0.5"/><line x1="34" y1="82" x2="118" y2="82" stroke="#1B2430" stroke-width="0.5" stroke-dasharray="9 2 2 2"/><line x1="76" y1="40" x2="76" y2="124" stroke="#1B2430" stroke-width="0.5" stroke-dasharray="9 2 2 2"/><path d="M168 92 L192 84 L216 92" stroke="#1B2430" fill="none" stroke-width="1.0"/><line x1="164" y1="92" x2="220" y2="92" stroke="#1B2430" stroke-width="0.5"/><g stroke="#1B2430" stroke-width="0.7" fill="#1B2430" font-family="Arial, sans-serif"><line x1="26" y1="46" x2="32" y2="46"/><line x1="26" y1="118" x2="32" y2="118"/><line x1="34" y1="46" x2="34" y2="118"/><path d="M34 46 l-1.3 3.4 h2.6 Z" stroke="none"/><path d="M34 118 l-1.3 -3.4 h2.6 Z" stroke="none"/><text x="37" y="84.0" font-size="6.2" stroke="none">⌀19.0</text></g><g stroke="#1B2430" stroke-width="0.7" fill="#1B2430" font-family="Arial, sans-serif"><line x1="76" y1="70" x2="116" y2="44"/><circle cx="76" cy="70" r="1" stroke="none"/><text x="118" y="46" font-size="6.2" text-anchor="start" stroke="none">FITS SHAFT ⌀8.0</text></g><g stroke="#1B2430" stroke-width="0.7" fill="#1B2430" font-family="Arial, sans-serif"><line x1="168" y1="118" x2="168" y2="112"/><line x1="216" y1="118" x2="216" y2="112"/><line x1="168" y1="110" x2="216" y2="110"/><path d="M168 110 l3.4 -1.3 v2.6 Z" stroke="none"/><path d="M216 110 l-3.4 -1.3 v2.6 Z" stroke="none"/><text x="192.0" y="107.8" font-size="6.2" text-anchor="middle" stroke="none">0.5 THK</text></g><g stroke="#1B2430" stroke-width="0.7" fill="#1B2430" font-family="Arial, sans-serif"><line x1="192" y1="84" x2="206" y2="60"/><circle cx="192" cy="84" r="1" stroke="none"/><text x="208" y="62" font-size="6.2" text-anchor="start" stroke="none">8× SPRING FINGERS 18°</text></g></svg>