<svg xmlns="http://www.w3.org/2000/svg" viewBox="0 0 280 200" width="280" height="200" role="img"><defs><pattern id="hatch" width="4" height="4" patternUnits="userSpaceOnUse" patternTransform="rotate(45)"><line x1="0" y1="0" x2="0" y2="4" stroke="#1B2430" stroke-width="0.5"/></pattern></defs><rect width="280" height="200" fill="#FFFFFF"/><rect x="4" y="4" width="272" height="192" fill="none" stroke="#1B2430" stroke-width="1.2"/><rect x="6.5" y="6.5" width="267" height="187" fill="none" stroke="#1B2430" stroke-width="0.4"/><rect x="158" y="156" width="118" height="40" fill="#FFFFFF" stroke="#1B2430" stroke-width="0.9"/><line x1="158" y1="169" x2="276" y2="169" stroke="#1B2430" stroke-width="0.5"/><line x1="158" y1="182" x2="276" y2="182" stroke="#1B2430" stroke-width="0.5"/><line x1="220" y1="169" x2="220" y2="196" stroke="#1B2430" stroke-width="0.5"/><text x="162" y="165.5" font-family="Arial, sans-serif" font-size="6.4" font-weight="bold" fill="#1B2430">ROLLER CHAIN · ANSI #40</text><text x="162" y="178.5" font-family="Arial, sans-serif" font-size="4.8" fill="#1B2430">MATL: CARBON STEEL HT</text><text x="224" y="178.5" font-family="Arial, sans-serif" font-size="4.8" fill="#1B2430">SCALE 1:1</text><text x="162" y="191.5" font-family="Arial, sans-serif" font-size="4.8" fill="#1B2430">CROWN LINK · CL-O006</text><text x="224" y="191.5" font-family="Arial, sans-serif" font-size="4.8" fill="#1B2430">UNIT: mm</text><text x="10" y="190" font-family="Arial, sans-serif" font-size="5.0" fill="#1B2430">UNLESS NOTED: ±0.1 · ANGLES ±0.5° · ASME Y14.5</text><g stroke="#1B2430" stroke-width="0.6" fill="none"><circle cx="138" cy="187" r="2.2"/><circle cx="138" cy="187" r="0.7"/><path d="M143 183.6 L150 185 L150 189 L143 190.4 Z"/><line x1="133.5" y1="187" x2="152" y2="187" stroke-dasharray="3 1.2"/></g><circle cx="60" cy="84" r="11" stroke="#1B2430" fill="none" stroke-width="1.0"/><circle cx="60" cy="84" r="3.4" stroke="#1B2430" fill="none" stroke-width="0.5"/><circle cx="96" cy="84" r="11" stroke="#1B2430" fill="none" stroke-width="1.0"/><circle cx="96" cy="84" r="3.4" stroke="#1B2430" fill="none" stroke-width="0.5"/><circle cx="132" cy="84" r="11" stroke="#1B2430" fill="none" stroke-width="1.0"/><circle cx="132" cy="84" r="3.4" stroke="#1B2430" fill="none" stroke-width="0.5"/><circle cx="168" cy="84" r="11" stroke="#1B2430" fill="none" stroke-width="1.0"/><circle cx="168" cy="84" r="3.4" stroke="#1B2430" fill="none" stroke-width="0.5"/><circle cx="204" cy="84" r="11" stroke="#1B2430" fill="none" stroke-width="1.0"/><circle cx="204" cy="84" r="3.4" stroke="#1B2430" fill="none" stroke-width="0.5"/><path d="M60 70 h36 a14 14 0 0 1 0 28 h-36 a14 14 0 0 1 0 -28 Z" stroke="#1B2430" fill="none" stroke-width="1.0"/><path d="M132 70 h36 a14 14 0 0 1 0 28 h-36 a14 14 0 0 1 0 -28 Z" stroke="#1B2430" fill="none" stroke-width="1.0"/><line x1="40" y1="84" x2="220" y2="84" stroke="#1B2430" stroke-width="0.5" stroke-dasharray="9 2 2 2"/><g stroke="#1B2430" stroke-width="0.7" fill="#1B2430" font-family="Arial, sans-serif"><line x1="60" y1="62" x2="60" y2="56"/><line x1="96" y1="62" x2="96" y2="56"/><line x1="60" y1="54" x2="96" y2="54"/><path d="M60 54 l3.4 -1.3 v2.6 Z" stroke="none"/><path d="M96 54 l-3.4 -1.3 v2.6 Z" stroke="none"/><text x="78.0" y="51.8" font-size="6.2" text-anchor="middle" stroke="none">12.70 PITCH</text></g><g stroke="#1B2430" stroke-width="0.7" fill="#1B2430" font-family="Arial, sans-serif"><line x1="132" y1="73" x2="146" y2="48"/><circle cx="132" cy="73" r="1" stroke="none"/><text x="148" y="50" font-size="6.2" text-anchor="start" stroke="none">ROLLER ⌀7.92</text></g><g stroke="#1B2430" stroke-width="0.7" fill="#1B2430" font-family="Arial, sans-serif"><line x1="96" y1="98" x2="110" y2="126"/><circle cx="96" cy="98" r="1" stroke="none"/><text x="112" y="128" font-size="6.2" text-anchor="start" stroke="none">PIN ⌀3.97</text></g><text x="12" y="146" font-family="Arial" font-size="5.6" fill="#1B2430">ANSI B29.1 No. 40 · TENSILE 14.1 kN MIN</text></svg>