<svg xmlns="http://www.w3.org/2000/svg" viewBox="0 0 280 200" width="280" height="200" role="img"><defs><pattern id="hatch" width="4" height="4" patternUnits="userSpaceOnUse" patternTransform="rotate(45)"><line x1="0" y1="0" x2="0" y2="4" stroke="#1B2430" stroke-width="0.5"/></pattern></defs><rect width="280" height="200" fill="#FFFFFF"/><rect x="4" y="4" width="272" height="192" fill="none" stroke="#1B2430" stroke-width="1.2"/><rect x="6.5" y="6.5" width="267" height="187" fill="none" stroke="#1B2430" stroke-width="0.4"/><rect x="158" y="156" width="118" height="40" fill="#FFFFFF" stroke="#1B2430" stroke-width="0.9"/><line x1="158" y1="169" x2="276" y2="169" stroke="#1B2430" stroke-width="0.5"/><line x1="158" y1="182" x2="276" y2="182" stroke="#1B2430" stroke-width="0.5"/><line x1="220" y1="169" x2="220" y2="196" stroke="#1B2430" stroke-width="0.5"/><text x="162" y="165.5" font-family="Arial, sans-serif" font-size="6.4" font-weight="bold" fill="#1B2430">SAFETY CABLE ASSEMBLY</text><text x="162" y="178.5" font-family="Arial, sans-serif" font-size="4.8" fill="#1B2430">MATL: SS 304 / SWAGED …</text><text x="224" y="178.5" font-family="Arial, sans-serif" font-size="4.8" fill="#1B2430">SCALE 1:1</text><text x="162" y="191.5" font-family="Arial, sans-serif" font-size="4.8" fill="#1B2430">CROWN LINK · CL-O003</text><text x="224" y="191.5" font-family="Arial, sans-serif" font-size="4.8" fill="#1B2430">UNIT: mm</text><text x="10" y="190" font-family="Arial, sans-serif" font-size="5.0" fill="#1B2430">UNLESS NOTED: ±0.1 · ANGLES ±0.5° · ASME Y14.5</text><g stroke="#1B2430" stroke-width="0.6" fill="none"><circle cx="138" cy="187" r="2.2"/><circle cx="138" cy="187" r="0.7"/><path d="M143 183.6 L150 185 L150 189 L143 190.4 Z"/><line x1="133.5" y1="187" x2="152" y2="187" stroke-dasharray="3 1.2"/></g><path d="M70 84 C110 72 170 100 206 90" stroke="#1B2430" fill="none" stroke-width="4"/><circle cx="52" cy="84" r="13" stroke="#1B2430" fill="none" stroke-width="4"/><rect x="64" y="78" width="16" height="11" rx="3" stroke="#1B2430" fill="none" stroke-width="1.0"/><rect x="206" y="84" width="15" height="11" rx="3" stroke="#1B2430" fill="none" stroke-width="1.0"/><g stroke="#1B2430"><line x1="221" y1="85" x2="247" y2="85" stroke-width="0.9"/><line x1="221" y1="94" x2="247" y2="94" stroke-width="0.9"/><line x1="221" y1="86.26" x2="247" y2="86.26" stroke-width="0.45"/><line x1="221" y1="92.74" x2="247" y2="92.74" stroke-width="0.45"/></g><g stroke="#1B2430" stroke-width="0.7" fill="#1B2430" font-family="Arial, sans-serif"><line x1="120" y1="80" x2="134" y2="54"/><circle cx="120" cy="80" r="1" stroke="none"/><text x="136" y="56" font-size="6.2" text-anchor="start" stroke="none">WIRE ROPE ⌀3.2 · 7×7 SS 304</text></g><g stroke="#1B2430" stroke-width="0.7" fill="#1B2430" font-family="Arial, sans-serif"><line x1="72" y1="84" x2="60" y2="116"/><circle cx="72" cy="84" r="1" stroke="none"/><text x="62" y="118" font-size="6.2" text-anchor="start" stroke="none">SWAGED EYE ⌀14 ID</text></g><g stroke="#1B2430" stroke-width="0.7" fill="#1B2430" font-family="Arial, sans-serif"><line x1="234" y1="86" x2="234" y2="60"/><circle cx="234" cy="86" r="1" stroke="none"/><text x="232" y="62" font-size="6.2" text-anchor="end" stroke="none">M6 STUD END</text></g><g stroke="#1B2430" stroke-width="0.7" fill="#1B2430" font-family="Arial, sans-serif"><line x1="52" y1="142" x2="52" y2="136"/><line x1="247" y1="142" x2="247" y2="136"/><line x1="52" y1="134" x2="247" y2="134"/><path d="M52 134 l3.4 -1.3 v2.6 Z" stroke="none"/><path d="M247 134 l-3.4 -1.3 v2.6 Z" stroke="none"/><text x="149.5" y="131.8" font-size="6.2" text-anchor="middle" stroke="none">300 ±5 OAL</text></g><text x="12" y="26" font-family="Arial" font-size="5.4" fill="#1B2430">MIN BREAKING LOAD 6.1 kN</text></svg>