<svg xmlns="http://www.w3.org/2000/svg" viewBox="0 0 280 200" width="280" height="200" role="img"><defs><pattern id="hatch" width="4" height="4" patternUnits="userSpaceOnUse" patternTransform="rotate(45)"><line x1="0" y1="0" x2="0" y2="4" stroke="#1B2430" stroke-width="0.5"/></pattern></defs><rect width="280" height="200" fill="#FFFFFF"/><rect x="4" y="4" width="272" height="192" fill="none" stroke="#1B2430" stroke-width="1.2"/><rect x="6.5" y="6.5" width="267" height="187" fill="none" stroke="#1B2430" stroke-width="0.4"/><rect x="158" y="156" width="118" height="40" fill="#FFFFFF" stroke="#1B2430" stroke-width="0.9"/><line x1="158" y1="169" x2="276" y2="169" stroke="#1B2430" stroke-width="0.5"/><line x1="158" y1="182" x2="276" y2="182" stroke="#1B2430" stroke-width="0.5"/><line x1="220" y1="169" x2="220" y2="196" stroke="#1B2430" stroke-width="0.5"/><text x="162" y="165.5" font-family="Arial, sans-serif" font-size="6.4" font-weight="bold" fill="#1B2430">SPRINGS · COMP / EXT / TO…</text><text x="162" y="178.5" font-family="Arial, sans-serif" font-size="4.8" fill="#1B2430">MATL: SUS304-WPB</text><text x="224" y="178.5" font-family="Arial, sans-serif" font-size="4.8" fill="#1B2430">SCALE 1:1</text><text x="162" y="191.5" font-family="Arial, sans-serif" font-size="4.8" fill="#1B2430">CROWN LINK · CL-O007</text><text x="224" y="191.5" font-family="Arial, sans-serif" font-size="4.8" fill="#1B2430">UNIT: mm</text><text x="10" y="190" font-family="Arial, sans-serif" font-size="5.0" fill="#1B2430">UNLESS NOTED: ±0.1 · ANGLES ±0.5° · ASME Y14.5</text><g stroke="#1B2430" stroke-width="0.6" fill="none"><circle cx="138" cy="187" r="2.2"/><circle cx="138" cy="187" r="0.7"/><path d="M143 183.6 L150 185 L150 189 L143 190.4 Z"/><line x1="133.5" y1="187" x2="152" y2="187" stroke-dasharray="3 1.2"/></g><path d="M48 52 q16 -9 32 0" stroke="#1B2430" fill="none" stroke-width="3.4"/><path d="M48 64 q16 -9 32 0" stroke="#1B2430" fill="none" stroke-width="3.4"/><path d="M48 76 q16 -9 32 0" stroke="#1B2430" fill="none" stroke-width="3.4"/><path d="M48 88 q16 -9 32 0" stroke="#1B2430" fill="none" stroke-width="3.4"/><path d="M48 100 q16 -9 32 0" stroke="#1B2430" fill="none" stroke-width="3.4"/><path d="M48 112 q16 -9 32 0" stroke="#1B2430" fill="none" stroke-width="3.4"/><line x1="48" y1="124" x2="80" y2="124" stroke="#1B2430" stroke-width="3.4"/><line x1="48" y1="52" x2="80" y2="52" stroke="#1B2430" stroke-width="3.4"/><ellipse cx="148" cy="66" rx="13" ry="4" stroke="#1B2430" fill="none" stroke-width="3"/><ellipse cx="148" cy="75" rx="13" ry="4" stroke="#1B2430" fill="none" stroke-width="3"/><ellipse cx="148" cy="84" rx="13" ry="4" stroke="#1B2430" fill="none" stroke-width="3"/><ellipse cx="148" cy="93" rx="13" ry="4" stroke="#1B2430" fill="none" stroke-width="3"/><ellipse cx="148" cy="102" rx="13" ry="4" stroke="#1B2430" fill="none" stroke-width="3"/><ellipse cx="148" cy="111" rx="13" ry="4" stroke="#1B2430" fill="none" stroke-width="3"/><ellipse cx="148" cy="120" rx="13" ry="4" stroke="#1B2430" fill="none" stroke-width="3"/><path d="M148 54 q-11 5 0 12 M148 126 q11 5 0 12" stroke="#1B2430" fill="none" stroke-width="3"/><ellipse cx="218" cy="78" rx="14" ry="5" stroke="#1B2430" fill="none" stroke-width="3.2"/><ellipse cx="218" cy="86" rx="14" ry="5" stroke="#1B2430" fill="none" stroke-width="3.2"/><ellipse cx="218" cy="94" rx="14" ry="5" stroke="#1B2430" fill="none" stroke-width="3.2"/><ellipse cx="218" cy="102" rx="14" ry="5" stroke="#1B2430" fill="none" stroke-width="3.2"/><line x1="206" y1="76" x2="190" y2="52" stroke="#1B2430" stroke-width="3.2"/><line x1="230" y1="106" x2="246" y2="84" stroke="#1B2430" stroke-width="3.2"/><g stroke="#1B2430" stroke-width="0.7" fill="#1B2430" font-family="Arial, sans-serif"><line x1="28" y1="52" x2="34" y2="52"/><line x1="28" y1="124" x2="34" y2="124"/><line x1="36" y1="52" x2="36" y2="124"/><path d="M36 52 l-1.3 3.4 h2.6 Z" stroke="none"/><path d="M36 124 l-1.3 -3.4 h2.6 Z" stroke="none"/><text x="39" y="90.0" font-size="6.2" stroke="none">FREE LEN 36.0</text></g><g stroke="#1B2430" stroke-width="0.7" fill="#1B2430" font-family="Arial, sans-serif"><line x1="64" y1="52" x2="84" y2="36"/><circle cx="64" cy="52" r="1" stroke="none"/><text x="86" y="38" font-size="6.2" text-anchor="start" stroke="none">WIRE ⌀1.6 · 5 ACTIVE COILS</text></g><g stroke="#1B2430" stroke-width="0.7" fill="#1B2430" font-family="Arial, sans-serif"><line x1="148" y1="60" x2="168" y2="44"/><circle cx="148" cy="60" r="1" stroke="none"/><text x="170" y="46" font-size="6.2" text-anchor="start" stroke="none">HOOKS 2× FULL LOOP</text></g><g stroke="#1B2430" stroke-width="0.7" fill="#1B2430" font-family="Arial, sans-serif"><line x1="232" y1="84" x2="248" y2="60"/><circle cx="232" cy="84" r="1" stroke="none"/><text x="250" y="62" font-size="6.2" text-anchor="start" stroke="none">LEGS 90° REL</text></g><text x="12" y="152" font-family="Arial" font-size="5.6" fill="#1B2430">MATERIAL SUS304-WPB · RATE &amp; LOAD PER CUSTOMER SPEC</text><text x="12" y="20" font-family="Arial" font-size="5.6" fill="#1B2430">REPRESENTATIVE GEOMETRY — FINAL DIMENSIONS PER CUSTOMER DRAWING</text></svg>