<svg xmlns="http://www.w3.org/2000/svg" viewBox="0 0 280 200" width="280" height="200" role="img"><defs><pattern id="hatch" width="4" height="4" patternUnits="userSpaceOnUse" patternTransform="rotate(45)"><line x1="0" y1="0" x2="0" y2="4" stroke="#1B2430" stroke-width="0.5"/></pattern></defs><rect width="280" height="200" fill="#FFFFFF"/><rect x="4" y="4" width="272" height="192" fill="none" stroke="#1B2430" stroke-width="1.2"/><rect x="6.5" y="6.5" width="267" height="187" fill="none" stroke="#1B2430" stroke-width="0.4"/><rect x="158" y="156" width="118" height="40" fill="#FFFFFF" stroke="#1B2430" stroke-width="0.9"/><line x1="158" y1="169" x2="276" y2="169" stroke="#1B2430" stroke-width="0.5"/><line x1="158" y1="182" x2="276" y2="182" stroke="#1B2430" stroke-width="0.5"/><line x1="220" y1="169" x2="220" y2="196" stroke="#1B2430" stroke-width="0.5"/><text x="162" y="165.5" font-family="Arial, sans-serif" font-size="6.4" font-weight="bold" fill="#1B2430">STAMPED PART PER DRAWING</text><text x="162" y="178.5" font-family="Arial, sans-serif" font-size="4.8" fill="#1B2430">MATL: SPCC 2.0 THK</text><text x="224" y="178.5" font-family="Arial, sans-serif" font-size="4.8" fill="#1B2430">SCALE 1:1</text><text x="162" y="191.5" font-family="Arial, sans-serif" font-size="4.8" fill="#1B2430">CROWN LINK · CL-P003</text><text x="224" y="191.5" font-family="Arial, sans-serif" font-size="4.8" fill="#1B2430">UNIT: mm</text><text x="10" y="190" font-family="Arial, sans-serif" font-size="5.0" fill="#1B2430">UNLESS NOTED: ±0.1 · ANGLES ±0.5° · ASME Y14.5</text><g stroke="#1B2430" stroke-width="0.6" fill="none"><circle cx="138" cy="187" r="2.2"/><circle cx="138" cy="187" r="0.7"/><path d="M143 183.6 L150 185 L150 189 L143 190.4 Z"/><line x1="133.5" y1="187" x2="152" y2="187" stroke-dasharray="3 1.2"/></g><path d="M48 110 L48 70 L120 70 L120 92 L196 92 L196 110 Z" stroke="#1B2430" fill="none" stroke-width="1.0"/><circle cx="70" cy="90" r="7" stroke="#1B2430" fill="none" stroke-width="1.0"/><circle cx="160" cy="101" r="5" stroke="#1B2430" fill="none" stroke-width="1.0"/><line x1="56" y1="90" x2="84" y2="90" stroke="#1B2430" stroke-width="0.5" stroke-dasharray="9 2 2 2"/><g stroke="#1B2430" stroke-width="0.7" fill="#1B2430" font-family="Arial, sans-serif"><line x1="48" y1="64" x2="48" y2="58"/><line x1="196" y1="64" x2="196" y2="58"/><line x1="48" y1="56" x2="196" y2="56"/><path d="M48 56 l3.4 -1.3 v2.6 Z" stroke="none"/><path d="M196 56 l-3.4 -1.3 v2.6 Z" stroke="none"/><text x="122.0" y="53.8" font-size="6.2" text-anchor="middle" stroke="none">(148.0)</text></g><g stroke="#1B2430" stroke-width="0.7" fill="#1B2430" font-family="Arial, sans-serif"><line x1="26" y1="70" x2="32" y2="70"/><line x1="26" y1="110" x2="32" y2="110"/><line x1="34" y1="70" x2="34" y2="110"/><path d="M34 70 l-1.3 3.4 h2.6 Z" stroke="none"/><path d="M34 110 l-1.3 -3.4 h2.6 Z" stroke="none"/><text x="37" y="92.0" font-size="6.2" stroke="none">(40.0)</text></g><g stroke="#1B2430" stroke-width="0.7" fill="#1B2430" font-family="Arial, sans-serif"><line x1="70" y1="83" x2="96" y2="44"/><circle cx="70" cy="83" r="1" stroke="none"/><text x="98" y="46" font-size="6.2" text-anchor="start" stroke="none">2× ⌀14.0 ±0.05</text></g><g stroke="#1B2430" stroke-width="0.7" fill="#1B2430" font-family="Arial, sans-serif"><line x1="120" y1="81" x2="142" y2="64"/><circle cx="120" cy="81" r="1" stroke="none"/><text x="144" y="66" font-size="6.2" text-anchor="start" stroke="none">BEND R2.0</text></g><g stroke="#1B2430" stroke-width="0.7" fill="none" font-family="Arial, sans-serif"><rect x="40" y="140" width="47.0" height="10"/><line x1="51" y1="140" x2="51" y2="150"/><line x1="77.0" y1="140" x2="77.0" y2="150"/><text x="82.0" y="147.4" font-size="6.0" text-anchor="middle" fill="#1B2430" stroke="none">A B</text><g stroke="#1B2430" stroke-width="0.8"><circle cx="45.5" cy="145" r="2.4" fill="none"/><line x1="45.5" y1="141.2" x2="45.5" y2="148.8"/><line x1="41.7" y1="145" x2="49.3" y2="145"/></g><text x="64.0" y="147.4" font-size="6.0" text-anchor="middle" fill="#1B2430" stroke="none">⌀0.25</text></g><g stroke="#1B2430" stroke-width="0.7" fill="none" font-family="Arial, sans-serif"><line x1="48" y1="114" x2="48" y2="121"/><path d="M45.4 114 h5.2 l-2.6 -3.6 Z" fill="#1B2430" stroke="none"/><rect x="43.5" y="121" width="9" height="9"/><text x="48" y="127.8" font-size="6" text-anchor="middle" fill="#1B2430" stroke="none">A</text></g><text x="12" y="26" font-family="Arial" font-size="5.4" fill="#1B2430">MATERIAL: SPCC 2.0 THK</text><text x="12" y="20" font-family="Arial" font-size="5.6" fill="#1B2430">REPRESENTATIVE GEOMETRY — FINAL DIMENSIONS PER CUSTOMER DRAWING</text></svg>