<svg xmlns="http://www.w3.org/2000/svg" viewBox="0 0 280 200" width="280" height="200" role="img"><defs><pattern id="hatch" width="4" height="4" patternUnits="userSpaceOnUse" patternTransform="rotate(45)"><line x1="0" y1="0" x2="0" y2="4" stroke="#1B2430" stroke-width="0.5"/></pattern></defs><rect width="280" height="200" fill="#FFFFFF"/><rect x="4" y="4" width="272" height="192" fill="none" stroke="#1B2430" stroke-width="1.2"/><rect x="6.5" y="6.5" width="267" height="187" fill="none" stroke="#1B2430" stroke-width="0.4"/><rect x="158" y="156" width="118" height="40" fill="#FFFFFF" stroke="#1B2430" stroke-width="0.9"/><line x1="158" y1="169" x2="276" y2="169" stroke="#1B2430" stroke-width="0.5"/><line x1="158" y1="182" x2="276" y2="182" stroke="#1B2430" stroke-width="0.5"/><line x1="220" y1="169" x2="220" y2="196" stroke="#1B2430" stroke-width="0.5"/><text x="162" y="165.5" font-family="Arial, sans-serif" font-size="6.4" font-weight="bold" fill="#1B2430">TEE NUT · 4 PRONG</text><text x="162" y="178.5" font-family="Arial, sans-serif" font-size="4.8" fill="#1B2430">MATL: STEEL · ZINC CLE…</text><text x="224" y="178.5" font-family="Arial, sans-serif" font-size="4.8" fill="#1B2430">SCALE 3:1</text><text x="162" y="191.5" font-family="Arial, sans-serif" font-size="4.8" fill="#1B2430">CROWN LINK · CL-P002</text><text x="224" y="191.5" font-family="Arial, sans-serif" font-size="4.8" fill="#1B2430">UNIT: mm</text><text x="10" y="190" font-family="Arial, sans-serif" font-size="5.0" fill="#1B2430">UNLESS NOTED: ±0.1 · ANGLES ±0.5° · ASME Y14.5</text><g stroke="#1B2430" stroke-width="0.6" fill="none"><circle cx="138" cy="187" r="2.2"/><circle cx="138" cy="187" r="0.7"/><path d="M143 183.6 L150 185 L150 189 L143 190.4 Z"/><line x1="133.5" y1="187" x2="152" y2="187" stroke-dasharray="3 1.2"/></g><rect x="60" y="50" width="64" height="6" fill="url(#hatch)" stroke="#1B2430" stroke-width="1.0"/><rect x="80" y="56" width="9" height="40" fill="url(#hatch)" stroke="#1B2430" stroke-width="1.0"/><rect x="95" y="56" width="9" height="40" fill="url(#hatch)" stroke="#1B2430" stroke-width="1.0"/><line x1="89" y1="60" x2="95" y2="60" stroke="#1B2430" stroke-width="0.5"/><line x1="89" y1="92" x2="95" y2="92" stroke="#1B2430" stroke-width="0.5"/><path d="M66 50 l4 -14 l3 14 M114 50 l-4 -14 l-3 14" stroke="#1B2430" fill="none" stroke-width="1.0"/><line x1="92" y1="40" x2="92" y2="106" stroke="#1B2430" stroke-width="0.5" stroke-dasharray="9 2 2 2"/><g stroke="#1B2430" stroke-width="0.7" fill="#1B2430" font-family="Arial, sans-serif"><line x1="60" y1="124" x2="60" y2="118"/><line x1="124" y1="124" x2="124" y2="118"/><line x1="60" y1="116" x2="124" y2="116"/><path d="M60 116 l3.4 -1.3 v2.6 Z" stroke="none"/><path d="M124 116 l-3.4 -1.3 v2.6 Z" stroke="none"/><text x="92.0" y="113.8" font-size="6.2" text-anchor="middle" stroke="none">⌀19.0 FLANGE</text></g><g stroke="#1B2430" stroke-width="0.7" fill="#1B2430" font-family="Arial, sans-serif"><line x1="80" y1="140" x2="80" y2="134"/><line x1="104" y1="140" x2="104" y2="134"/><line x1="80" y1="132" x2="104" y2="132"/><path d="M80 132 l3.4 -1.3 v2.6 Z" stroke="none"/><path d="M104 132 l-3.4 -1.3 v2.6 Z" stroke="none"/><text x="92.0" y="129.8" font-size="6.2" text-anchor="middle" stroke="none">⌀7.7 BARREL</text></g><g stroke="#1B2430" stroke-width="0.7" fill="#1B2430" font-family="Arial, sans-serif"><line x1="128" y1="56" x2="134" y2="56"/><line x1="128" y1="96" x2="134" y2="96"/><line x1="136" y1="56" x2="136" y2="96"/><path d="M136 56 l-1.3 3.4 h2.6 Z" stroke="none"/><path d="M136 96 l-1.3 -3.4 h2.6 Z" stroke="none"/><text x="139" y="78.0" font-size="6.2" stroke="none">9.0</text></g><g stroke="#1B2430" stroke-width="0.7" fill="#1B2430" font-family="Arial, sans-serif"><line x1="92" y1="70" x2="152" y2="50"/><circle cx="92" cy="70" r="1" stroke="none"/><text x="154" y="52" font-size="6.2" text-anchor="start" stroke="none">M6 × 1.0 - 6H INT THREAD</text></g><g stroke="#1B2430" stroke-width="0.7" fill="#1B2430" font-family="Arial, sans-serif"><line x1="70" y1="38" x2="56" y2="26"/><circle cx="70" cy="38" r="1" stroke="none"/><text x="54" y="28" font-size="6.2" text-anchor="end" stroke="none">4× PRONGS</text></g><g stroke="#1B2430" stroke-width="0.7" fill="none" font-family="Arial, sans-serif"><rect x="40" y="144" width="43.6" height="10"/><line x1="51" y1="144" x2="51" y2="154"/><line x1="73.6" y1="144" x2="73.6" y2="154"/><text x="78.6" y="151.4" font-size="6.0" text-anchor="middle" fill="#1B2430" stroke="none">A</text><g stroke="#1B2430" stroke-width="0.9"><line x1="45.5" y1="146.2" x2="45.5" y2="151.8"/><line x1="42.5" y1="151.8" x2="48.5" y2="151.8"/></g><text x="62.3" y="151.4" font-size="6.0" text-anchor="middle" fill="#1B2430" stroke="none">0.15</text></g><g stroke="#1B2430" stroke-width="0.7" fill="none" font-family="Arial, sans-serif"><line x1="124" y1="52" x2="124" y2="59"/><path d="M121.4 52 h5.2 l-2.6 -3.6 Z" fill="#1B2430" stroke="none"/><rect x="119.5" y="59" width="9" height="9"/><text x="124" y="65.8" font-size="6" text-anchor="middle" fill="#1B2430" stroke="none">A</text></g></svg>