<svg xmlns="http://www.w3.org/2000/svg" viewBox="0 0 280 200" width="280" height="200" role="img"><defs><pattern id="hatch" width="4" height="4" patternUnits="userSpaceOnUse" patternTransform="rotate(45)"><line x1="0" y1="0" x2="0" y2="4" stroke="#1B2430" stroke-width="0.5"/></pattern></defs><rect width="280" height="200" fill="#FFFFFF"/><rect x="4" y="4" width="272" height="192" fill="none" stroke="#1B2430" stroke-width="1.2"/><rect x="6.5" y="6.5" width="267" height="187" fill="none" stroke="#1B2430" stroke-width="0.4"/><rect x="158" y="156" width="118" height="40" fill="#FFFFFF" stroke="#1B2430" stroke-width="0.9"/><line x1="158" y1="169" x2="276" y2="169" stroke="#1B2430" stroke-width="0.5"/><line x1="158" y1="182" x2="276" y2="182" stroke="#1B2430" stroke-width="0.5"/><line x1="220" y1="169" x2="220" y2="196" stroke="#1B2430" stroke-width="0.5"/><text x="162" y="165.5" font-family="Arial, sans-serif" font-size="6.4" font-weight="bold" fill="#1B2430">HORIZONTAL TOGGLE CLAMP</text><text x="162" y="178.5" font-family="Arial, sans-serif" font-size="4.8" fill="#1B2430">MATL: STEEL · ZINC / P…</text><text x="224" y="178.5" font-family="Arial, sans-serif" font-size="4.8" fill="#1B2430">SCALE 1:1</text><text x="162" y="191.5" font-family="Arial, sans-serif" font-size="4.8" fill="#1B2430">CROWN LINK · CL-O001</text><text x="224" y="191.5" font-family="Arial, sans-serif" font-size="4.8" fill="#1B2430">UNIT: mm</text><text x="10" y="190" font-family="Arial, sans-serif" font-size="5.0" fill="#1B2430">UNLESS NOTED: ±0.1 · ANGLES ±0.5° · ASME Y14.5</text><g stroke="#1B2430" stroke-width="0.6" fill="none"><circle cx="138" cy="187" r="2.2"/><circle cx="138" cy="187" r="0.7"/><path d="M143 183.6 L150 185 L150 189 L143 190.4 Z"/><line x1="133.5" y1="187" x2="152" y2="187" stroke-dasharray="3 1.2"/></g><rect x="56" y="118" width="92" height="9" stroke="#1B2430" fill="none" stroke-width="1.0"/><rect x="90" y="84" width="10" height="34" stroke="#1B2430" fill="none" stroke-width="1.0"/><line x1="100" y1="92" x2="142" y2="98" stroke="#1B2430" stroke-width="1.0"/><line x1="95" y1="88" x2="146" y2="52" stroke="#1B2430" stroke-width="1.0"/><circle cx="95" cy="89" r="2.8" stroke="#1B2430" fill="none" stroke-width="0.5"/><line x1="140" y1="98" x2="140" y2="122" stroke="#1B2430" stroke-width="1.0"/><circle cx="64" cy="122.5" r="2.6" stroke="#1B2430" fill="none" stroke-width="0.5"/><circle cx="120" cy="122.5" r="2.6" stroke="#1B2430" fill="none" stroke-width="0.5"/><g stroke="#1B2430" stroke-width="0.7" fill="#1B2430" font-family="Arial, sans-serif"><line x1="56" y1="148" x2="56" y2="142"/><line x1="148" y1="148" x2="148" y2="142"/><line x1="56" y1="140" x2="148" y2="140"/><path d="M56 140 l3.4 -1.3 v2.6 Z" stroke="none"/><path d="M148 140 l-3.4 -1.3 v2.6 Z" stroke="none"/><text x="102.0" y="137.8" font-size="6.2" text-anchor="middle" stroke="none">92.0 BASE</text></g><g stroke="#1B2430" stroke-width="0.7" fill="#1B2430" font-family="Arial, sans-serif"><line x1="143" y1="60" x2="168" y2="48"/><circle cx="143" cy="60" r="1" stroke="none"/><text x="170" y="50" font-size="6.2" text-anchor="start" stroke="none">HANDLE · OVER-CENTER LOCK</text></g><g stroke="#1B2430" stroke-width="0.7" fill="#1B2430" font-family="Arial, sans-serif"><line x1="140" y1="110" x2="176" y2="96"/><circle cx="140" cy="110" r="1" stroke="none"/><text x="178" y="98" font-size="6.2" text-anchor="start" stroke="none">SPINDLE M8 × 1.25 ADJ</text></g><g stroke="#1B2430" stroke-width="0.7" fill="#1B2430" font-family="Arial, sans-serif"><line x1="64" y1="122" x2="44" y2="150"/><circle cx="64" cy="122" r="1" stroke="none"/><text x="46" y="152" font-size="6.2" text-anchor="start" stroke="none">2× ⌀6.6 MTG</text></g><text x="12" y="26" font-family="Arial" font-size="5.4" fill="#1B2430">HOLDING CAPACITY 2,200 N (REPRESENTATIVE)</text><text x="12" y="20" font-family="Arial" font-size="5.6" fill="#1B2430">REPRESENTATIVE GEOMETRY — FINAL DIMENSIONS PER CUSTOMER DRAWING</text></svg>