<svg xmlns="http://www.w3.org/2000/svg" viewBox="0 0 280 200" width="280" height="200" role="img"><defs><radialGradient id="bg" cx=".5" cy=".42" r=".95"><stop offset="0" stop-color="#FAFBFC"/><stop offset=".55" stop-color="#EDEFF1"/><stop offset="1" stop-color="#D6DADE"/></radialGradient><radialGradient id="shdw" cx=".5" cy=".5" r=".5"><stop offset="0" stop-color="#0c1116" stop-opacity=".38"/><stop offset=".65" stop-color="#0c1116" stop-opacity=".16"/><stop offset="1" stop-color="#0c1116" stop-opacity="0"/></radialGradient><filter id="soft" x="-20%" y="-20%" width="140%" height="140%"><feGaussianBlur stdDeviation="1.1"/></filter><linearGradient id="hd" x1="0" y1="0" x2="0" y2="1"><stop offset="0" stop-color="#6e7a86"/><stop offset=".16" stop-color="#b4c0cb"/><stop offset=".32" stop-color="#eef3f7"/><stop offset=".42" stop-color="#fbfdff"/><stop offset=".58" stop-color="#c9d3dc"/><stop offset=".82" stop-color="#86919c"/><stop offset="1" stop-color="#5a6570"/></linearGradient><linearGradient id="sh" x1="0" y1="0" x2="0" y2="1"><stop offset="0" stop-color="#6e7a86"/><stop offset=".16" stop-color="#b4c0cb"/><stop offset=".32" stop-color="#eef3f7"/><stop offset=".42" stop-color="#fbfdff"/><stop offset=".58" stop-color="#c9d3dc"/><stop offset=".82" stop-color="#86919c"/><stop offset="1" stop-color="#5a6570"/></linearGradient><linearGradient id="nv" x1="0" y1="0" x2="1" y2="0"><stop offset="0" stop-color="#6e7a86"/><stop offset=".2" stop-color="#b4c0cb"/><stop offset=".38" stop-color="#fbfdff"/><stop offset=".62" stop-color="#c9d3dc"/><stop offset="1" stop-color="#5a6570"/></linearGradient></defs><rect width="280" height="200" fill="url(#bg)"/><rect x="34" y="30" width="212" height="142" rx="8" fill="#ffffff" opacity=".45" stroke="#9aa4ad" stroke-width="1.2" stroke-dasharray="6 4"/><rect x="34" y="30" width="212" height="18" fill="#C8511B" opacity=".9" rx="8"/><text x="44" y="43" font-family="Arial" font-size="9" font-weight="bold" fill="#fff">CL-KIT · M8 ASSEMBLY</text><line x1="48" y1="112" x2="240" y2="112" stroke="#C8511B" stroke-width="1" stroke-dasharray="5 4" opacity=".8"/><rect x="66" y="97.0" width="12" height="30" fill="url(#hd)"/><path d="M66 97.0 L66 105.1 L68.64 97.0 Z" fill="#b4c0cb"/><path d="M66 127.0 L66 118.9 L68.64 127.0 Z" fill="#86919c"/><line x1="66" y1="105.1" x2="78" y2="105.1" stroke="#86919c" stroke-width="1" opacity=".7"/><line x1="66" y1="118.9" x2="78" y2="118.9" stroke="#5a6570" stroke-width="1" opacity=".7"/><rect x="66" y="105.1" width="12" height="6.0" fill="#ffffff" opacity=".4" filter="url(#soft)"/><rect x="76.4" y="97.0" width="1.6" height="30" fill="#5a6570" opacity=".6"/><path d="M78.0 120.5 L80.7 103.5 L84.4 103.5 L81.7 120.5 Z" fill="#eef3f7"/><line x1="78.0" y1="120.5" x2="80.7" y2="103.5" stroke="#5a6570" stroke-width="1.1" opacity=".8"/><path d="M84.0 120.5 L86.7 103.5 L90.4 103.5 L87.7 120.5 Z" fill="#b4c0cb"/><line x1="84.0" y1="120.5" x2="86.7" y2="103.5" stroke="#5a6570" stroke-width="1.1" opacity=".8"/><path d="M90.0 120.5 L92.7 103.5 L96.4 103.5 L93.7 120.5 Z" fill="#eef3f7"/><line x1="90.0" y1="120.5" x2="92.7" y2="103.5" stroke="#5a6570" stroke-width="1.1" opacity=".8"/><path d="M96.0 120.5 L98.7 103.5 L102.4 103.5 L99.7 120.5 Z" fill="#b4c0cb"/><line x1="96.0" y1="120.5" x2="98.7" y2="103.5" stroke="#5a6570" stroke-width="1.1" opacity=".8"/><path d="M102.0 120.5 L104.7 103.5 L108.4 103.5 L105.7 120.5 Z" fill="#eef3f7"/><line x1="102.0" y1="120.5" x2="104.7" y2="103.5" stroke="#5a6570" stroke-width="1.1" opacity=".8"/><path d="M108.0 120.5 L110.7 103.5 L114.4 103.5 L111.7 120.5 Z" fill="#b4c0cb"/><line x1="108.0" y1="120.5" x2="110.7" y2="103.5" stroke="#5a6570" stroke-width="1.1" opacity=".8"/><path d="M114.0 120.5 L116.7 103.5 L120.4 103.5 L117.7 120.5 Z" fill="#eef3f7"/><line x1="114.0" y1="120.5" x2="116.7" y2="103.5" stroke="#5a6570" stroke-width="1.1" opacity=".8"/><rect x="78" y="106.22" width="42" height="2.89" fill="#ffffff" opacity=".5" filter="url(#soft)"/><rect x="78" y="116.76" width="42" height="3.74" fill="#5a6570" opacity=".35" filter="url(#soft)"/><path d="M122 103.5 L129 107.24 L129 116.76 L122 120.5 Z" fill="#c9d3dc"/><path d="M122 103.5 L129 107.24 L129 112 L122 112 Z" fill="#eef3f7" opacity=".7"/><ellipse cx="152" cy="112" rx="7" ry="21" fill="#eef3f7" stroke="#5a6570" stroke-width="1"/><ellipse cx="152" cy="112" rx="3" ry="9" fill="#14181c"/><path d="M178 92 a8 20 0 1 0 0.01 0" fill="none" stroke="#c9d3dc" stroke-width="6"/><line x1="176" y1="91" x2="183" y2="97" stroke="#5a6570" stroke-width="2.4"/><polygon points="229.6,121.0 214.0,130.0 198.4,121.0 198.4,103.0 214.0,94.0 229.6,103.0" fill="url(#nv)" stroke="#5a6570" stroke-width="1"/><circle cx="214" cy="112" r="8" fill="#14181c"/><circle cx="214" cy="112" r="10.5" fill="none" stroke="#b4c0cb" stroke-width="1.2"/></svg>