<svg xmlns="http://www.w3.org/2000/svg" viewBox="0 0 280 200" width="280" height="200" role="img"><defs><radialGradient id="bg" cx=".5" cy=".42" r=".95"><stop offset="0" stop-color="#FAFBFC"/><stop offset=".55" stop-color="#EDEFF1"/><stop offset="1" stop-color="#D6DADE"/></radialGradient><radialGradient id="shdw" cx=".5" cy=".5" r=".5"><stop offset="0" stop-color="#0c1116" stop-opacity=".38"/><stop offset=".65" stop-color="#0c1116" stop-opacity=".16"/><stop offset="1" stop-color="#0c1116" stop-opacity="0"/></radialGradient><filter id="soft" x="-20%" y="-20%" width="140%" height="140%"><feGaussianBlur stdDeviation="1.1"/></filter><radialGradient id="ball" cx=".38" cy=".34" r=".85"><stop offset="0" stop-color="#ffffff"/><stop offset=".45" stop-color="#f2f6f8"/><stop offset=".75" stop-color="#c3ccd3"/><stop offset="1" stop-color="#525c66"/></radialGradient><linearGradient id="sh" x1="0" y1="0" x2="0" y2="1"><stop offset="0" stop-color="#65707a"/><stop offset=".16" stop-color="#aeb9c2"/><stop offset=".32" stop-color="#f2f6f8"/><stop offset=".42" stop-color="#ffffff"/><stop offset=".58" stop-color="#c3ccd3"/><stop offset=".82" stop-color="#7c868f"/><stop offset="1" stop-color="#525c66"/></linearGradient></defs><rect width="280" height="200" fill="url(#bg)"/><ellipse cx="140.0" cy="152" rx="92" ry="7" fill="url(#shdw)"/><path d="M118.0 114.0 L121.2 94.0 L125.5 94.0 L122.3 114.0 Z" fill="#f2f6f8"/><line x1="118.0" y1="114.0" x2="121.2" y2="94.0" stroke="#525c66" stroke-width="1.1" opacity=".8"/><path d="M125.0 114.0 L128.2 94.0 L132.5 94.0 L129.3 114.0 Z" fill="#aeb9c2"/><line x1="125.0" y1="114.0" x2="128.2" y2="94.0" stroke="#525c66" stroke-width="1.1" opacity=".8"/><path d="M132.0 114.0 L135.2 94.0 L139.5 94.0 L136.3 114.0 Z" fill="#f2f6f8"/><line x1="132.0" y1="114.0" x2="135.2" y2="94.0" stroke="#525c66" stroke-width="1.1" opacity=".8"/><path d="M139.0 114.0 L142.2 94.0 L146.5 94.0 L143.3 114.0 Z" fill="#aeb9c2"/><line x1="139.0" y1="114.0" x2="142.2" y2="94.0" stroke="#525c66" stroke-width="1.1" opacity=".8"/><path d="M146.0 114.0 L149.2 94.0 L153.5 94.0 L150.3 114.0 Z" fill="#f2f6f8"/><line x1="146.0" y1="114.0" x2="149.2" y2="94.0" stroke="#525c66" stroke-width="1.1" opacity=".8"/><path d="M153.0 114.0 L156.2 94.0 L160.5 94.0 L157.3 114.0 Z" fill="#aeb9c2"/><line x1="153.0" y1="114.0" x2="156.2" y2="94.0" stroke="#525c66" stroke-width="1.1" opacity=".8"/><path d="M160.0 114.0 L163.2 94.0 L167.5 94.0 L164.3 114.0 Z" fill="#f2f6f8"/><line x1="160.0" y1="114.0" x2="163.2" y2="94.0" stroke="#525c66" stroke-width="1.1" opacity=".8"/><path d="M167.0 114.0 L170.2 94.0 L174.5 94.0 L171.3 114.0 Z" fill="#aeb9c2"/><line x1="167.0" y1="114.0" x2="170.2" y2="94.0" stroke="#525c66" stroke-width="1.1" opacity=".8"/><path d="M174.0 114.0 L177.2 94.0 L181.5 94.0 L178.3 114.0 Z" fill="#f2f6f8"/><line x1="174.0" y1="114.0" x2="177.2" y2="94.0" stroke="#525c66" stroke-width="1.1" opacity=".8"/><path d="M181.0 114.0 L184.2 94.0 L188.5 94.0 L185.3 114.0 Z" fill="#aeb9c2"/><line x1="181.0" y1="114.0" x2="184.2" y2="94.0" stroke="#525c66" stroke-width="1.1" opacity=".8"/><path d="M188.0 114.0 L191.2 94.0 L195.5 94.0 L192.3 114.0 Z" fill="#f2f6f8"/><line x1="188.0" y1="114.0" x2="191.2" y2="94.0" stroke="#525c66" stroke-width="1.1" opacity=".8"/><path d="M195.0 114.0 L198.2 94.0 L202.5 94.0 L199.3 114.0 Z" fill="#aeb9c2"/><line x1="195.0" y1="114.0" x2="198.2" y2="94.0" stroke="#525c66" stroke-width="1.1" opacity=".8"/><path d="M202.0 114.0 L205.2 94.0 L209.5 94.0 L206.3 114.0 Z" fill="#f2f6f8"/><line x1="202.0" y1="114.0" x2="205.2" y2="94.0" stroke="#525c66" stroke-width="1.1" opacity=".8"/><path d="M209.0 114.0 L212.2 94.0 L216.5 94.0 L213.3 114.0 Z" fill="#aeb9c2"/><line x1="209.0" y1="114.0" x2="212.2" y2="94.0" stroke="#525c66" stroke-width="1.1" opacity=".8"/><path d="M216.0 114.0 L219.2 94.0 L223.5 94.0 L220.3 114.0 Z" fill="#f2f6f8"/><line x1="216.0" y1="114.0" x2="219.2" y2="94.0" stroke="#525c66" stroke-width="1.1" opacity=".8"/><rect x="118" y="97.2" width="105" height="3.4000000000000004" fill="#ffffff" opacity=".5" filter="url(#soft)"/><rect x="118" y="109.6" width="105" height="4.4" fill="#525c66" opacity=".35" filter="url(#soft)"/><path d="M228 94.0 L235 98.4 L235 109.6 L228 114.0 Z" fill="#c3ccd3"/><path d="M228 94.0 L235 98.4 L235 104 L228 104 Z" fill="#f2f6f8" opacity=".7"/><circle cx="92" cy="104" r="33" fill="url(#ball)"/><ellipse cx="80" cy="92" rx="11" ry="7" fill="#ffffff" opacity=".85" filter="url(#soft)"/><rect x="118" y="94" width="8" height="20" fill="url(#sh)"/></svg>