<svg xmlns="http://www.w3.org/2000/svg" viewBox="0 0 280 200" width="280" height="200" role="img"><defs><radialGradient id="bg" cx=".5" cy=".42" r=".95"><stop offset="0" stop-color="#FAFBFC"/><stop offset=".55" stop-color="#EDEFF1"/><stop offset="1" stop-color="#D6DADE"/></radialGradient><radialGradient id="shdw" cx=".5" cy=".5" r=".5"><stop offset="0" stop-color="#0c1116" stop-opacity=".38"/><stop offset=".65" stop-color="#0c1116" stop-opacity=".16"/><stop offset="1" stop-color="#0c1116" stop-opacity="0"/></radialGradient><filter id="soft" x="-20%" y="-20%" width="140%" height="140%"><feGaussianBlur stdDeviation="1.1"/></filter><linearGradient id="hd" x1="0" y1="0" x2="0" y2="1"><stop offset="0" stop-color="#6e7a86"/><stop offset=".16" stop-color="#b4c0cb"/><stop offset=".32" stop-color="#eef3f7"/><stop offset=".42" stop-color="#fbfdff"/><stop offset=".58" stop-color="#c9d3dc"/><stop offset=".82" stop-color="#86919c"/><stop offset="1" stop-color="#5a6570"/></linearGradient><linearGradient id="sh" x1="0" y1="0" x2="0" y2="1"><stop offset="0" stop-color="#6e7a86"/><stop offset=".16" stop-color="#b4c0cb"/><stop offset=".32" stop-color="#eef3f7"/><stop offset=".42" stop-color="#fbfdff"/><stop offset=".58" stop-color="#c9d3dc"/><stop offset=".82" stop-color="#86919c"/><stop offset="1" stop-color="#5a6570"/></linearGradient><radialGradient id="hf" cx=".38" cy=".34" r=".85"><stop offset="0" stop-color="#fbfdff"/><stop offset=".45" stop-color="#eef3f7"/><stop offset=".75" stop-color="#c9d3dc"/><stop offset="1" stop-color="#5a6570"/></radialGradient></defs><rect width="280" height="200" fill="url(#bg)"/><ellipse cx="140.0" cy="130.5" rx="85.68" ry="7" fill="url(#shdw)"/><rect x="92" y="90.0" width="55.2" height="20" rx="2" fill="url(#sh)"/><rect x="92" y="93.6" width="55.2" height="3.2" fill="#ffffff" opacity=".55" filter="url(#soft)"/><path d="M145.2 110.0 L148.3 90.0 L152.7 90.0 L149.5 110.0 Z" fill="#eef3f7"/><line x1="145.2" y1="110.0" x2="148.3" y2="90.0" stroke="#5a6570" stroke-width="1.1" opacity=".8"/><path d="M152.2 110.0 L155.3 90.0 L159.7 90.0 L156.5 110.0 Z" fill="#b4c0cb"/><line x1="152.2" y1="110.0" x2="155.3" y2="90.0" stroke="#5a6570" stroke-width="1.1" opacity=".8"/><path d="M159.2 110.0 L162.3 90.0 L166.7 90.0 L163.5 110.0 Z" fill="#eef3f7"/><line x1="159.2" y1="110.0" x2="162.3" y2="90.0" stroke="#5a6570" stroke-width="1.1" opacity=".8"/><path d="M166.2 110.0 L169.3 90.0 L173.7 90.0 L170.5 110.0 Z" fill="#b4c0cb"/><line x1="166.2" y1="110.0" x2="169.3" y2="90.0" stroke="#5a6570" stroke-width="1.1" opacity=".8"/><path d="M173.2 110.0 L176.3 90.0 L180.7 90.0 L177.5 110.0 Z" fill="#eef3f7"/><line x1="173.2" y1="110.0" x2="176.3" y2="90.0" stroke="#5a6570" stroke-width="1.1" opacity=".8"/><path d="M180.2 110.0 L183.3 90.0 L187.7 90.0 L184.5 110.0 Z" fill="#b4c0cb"/><line x1="180.2" y1="110.0" x2="183.3" y2="90.0" stroke="#5a6570" stroke-width="1.1" opacity=".8"/><path d="M187.2 110.0 L190.3 90.0 L194.7 90.0 L191.5 110.0 Z" fill="#eef3f7"/><line x1="187.2" y1="110.0" x2="190.3" y2="90.0" stroke="#5a6570" stroke-width="1.1" opacity=".8"/><path d="M194.2 110.0 L197.3 90.0 L201.7 90.0 L198.5 110.0 Z" fill="#b4c0cb"/><line x1="194.2" y1="110.0" x2="197.3" y2="90.0" stroke="#5a6570" stroke-width="1.1" opacity=".8"/><path d="M201.2 110.0 L204.3 90.0 L208.7 90.0 L205.5 110.0 Z" fill="#eef3f7"/><line x1="201.2" y1="110.0" x2="204.3" y2="90.0" stroke="#5a6570" stroke-width="1.1" opacity=".8"/><path d="M208.2 110.0 L211.3 90.0 L215.7 90.0 L212.5 110.0 Z" fill="#b4c0cb"/><line x1="208.2" y1="110.0" x2="211.3" y2="90.0" stroke="#5a6570" stroke-width="1.1" opacity=".8"/><path d="M215.2 110.0 L218.3 90.0 L222.7 90.0 L219.5 110.0 Z" fill="#eef3f7"/><line x1="215.2" y1="110.0" x2="218.3" y2="90.0" stroke="#5a6570" stroke-width="1.1" opacity=".8"/><rect x="145.2" y="93.2" width="77" height="3.4000000000000004" fill="#ffffff" opacity=".5" filter="url(#soft)"/><rect x="145.2" y="105.6" width="77" height="4.4" fill="#5a6570" opacity=".35" filter="url(#soft)"/><path d="M222.2 90.0 L229.2 94.4 L229.2 105.6 L222.2 110.0 Z" fill="#c9d3dc"/><path d="M222.2 90.0 L229.2 94.4 L229.2 100 L222.2 100 Z" fill="#eef3f7" opacity=".7"/><rect x="79" y="83.5" width="13" height="33" fill="url(#hd)"/><path d="M79 83.5 L79 92.41 L81.86 83.5 Z" fill="#b4c0cb"/><path d="M79 116.5 L79 107.59 L81.86 116.5 Z" fill="#86919c"/><line x1="79" y1="92.41" x2="92" y2="92.41" stroke="#86919c" stroke-width="1" opacity=".7"/><line x1="79" y1="107.59" x2="92" y2="107.59" stroke="#5a6570" stroke-width="1" opacity=".7"/><rect x="79" y="92.41" width="13" height="6.6000000000000005" fill="#ffffff" opacity=".4" filter="url(#soft)"/><rect x="90.4" y="83.5" width="1.6" height="33" fill="#5a6570" opacity=".6"/><rect x="69" y="90" width="10" height="20" fill="url(#sh)"/><rect x="77" y="92" width="3" height="16" fill="#5a6570"/><text x="14" y="40" font-family="Arial" font-size="0" fill="none"> </text><g transform="rotate(-14 226 142)"><rect x="224" y="127.0" width="12" height="30" fill="url(#hd)"/><path d="M224 127.0 L224 135.1 L226.64 127.0 Z" fill="#b4c0cb"/><path d="M224 157.0 L224 148.9 L226.64 157.0 Z" fill="#86919c"/><line x1="224" y1="135.1" x2="236" y2="135.1" stroke="#86919c" stroke-width="1" opacity=".7"/><line x1="224" y1="148.9" x2="236" y2="148.9" stroke="#5a6570" stroke-width="1" opacity=".7"/><rect x="224" y="135.1" width="12" height="6.0" fill="#ffffff" opacity=".4" filter="url(#soft)"/><rect x="234.4" y="127.0" width="1.6" height="30" fill="#5a6570" opacity=".6"/></g><ellipse cx="226" cy="156" rx="22" ry="4.5" fill="url(#shdw)"/></svg>