<svg xmlns="http://www.w3.org/2000/svg" viewBox="0 0 280 200" width="280" height="200" role="img"><defs><radialGradient id="bg" cx=".5" cy=".42" r=".95"><stop offset="0" stop-color="#FAFBFC"/><stop offset=".55" stop-color="#EDEFF1"/><stop offset="1" stop-color="#D6DADE"/></radialGradient><radialGradient id="shdw" cx=".5" cy=".5" r=".5"><stop offset="0" stop-color="#0c1116" stop-opacity=".38"/><stop offset=".65" stop-color="#0c1116" stop-opacity=".16"/><stop offset="1" stop-color="#0c1116" stop-opacity="0"/></radialGradient><filter id="soft" x="-20%" y="-20%" width="140%" height="140%"><feGaussianBlur stdDeviation="1.1"/></filter><linearGradient id="b" x1="0" y1="0" x2="0" y2="1"><stop offset="0" stop-color="#65707a"/><stop offset=".16" stop-color="#aeb9c2"/><stop offset=".32" stop-color="#f2f6f8"/><stop offset=".42" stop-color="#ffffff"/><stop offset=".58" stop-color="#c3ccd3"/><stop offset=".82" stop-color="#7c868f"/><stop offset="1" stop-color="#525c66"/></linearGradient><linearGradient id="cab" x1="0" y1="0" x2="0" y2="1"><stop offset="0" stop-color="#65707a"/><stop offset=".16" stop-color="#aeb9c2"/><stop offset=".32" stop-color="#f2f6f8"/><stop offset=".42" stop-color="#ffffff"/><stop offset=".58" stop-color="#c3ccd3"/><stop offset=".82" stop-color="#7c868f"/><stop offset="1" stop-color="#525c66"/></linearGradient></defs><rect width="280" height="200" fill="url(#bg)"/><ellipse cx="140" cy="142" rx="104" ry="6" fill="url(#shdw)"/><rect x="20" y="99" width="60" height="6" rx="3" fill="url(#cab)"/><line x1="24" y1="99" x2="28" y2="105" stroke="#7c868f" stroke-width="1"/><line x1="31" y1="99" x2="35" y2="105" stroke="#7c868f" stroke-width="1"/><line x1="38" y1="99" x2="42" y2="105" stroke="#7c868f" stroke-width="1"/><line x1="45" y1="99" x2="49" y2="105" stroke="#7c868f" stroke-width="1"/><line x1="52" y1="99" x2="56" y2="105" stroke="#7c868f" stroke-width="1"/><line x1="59" y1="99" x2="63" y2="105" stroke="#7c868f" stroke-width="1"/><line x1="66" y1="99" x2="70" y2="105" stroke="#7c868f" stroke-width="1"/><line x1="73" y1="99" x2="77" y2="105" stroke="#7c868f" stroke-width="1"/><path d="M80.0 108.5 L82.2 95.5 L85.3 95.5 L83.1 108.5 Z" fill="#f2f6f8"/><line x1="80.0" y1="108.5" x2="82.2" y2="95.5" stroke="#525c66" stroke-width="1.1" opacity=".8"/><path d="M85.0 108.5 L87.2 95.5 L90.3 95.5 L88.1 108.5 Z" fill="#aeb9c2"/><line x1="85.0" y1="108.5" x2="87.2" y2="95.5" stroke="#525c66" stroke-width="1.1" opacity=".8"/><path d="M90.0 108.5 L92.2 95.5 L95.3 95.5 L93.1 108.5 Z" fill="#f2f6f8"/><line x1="90.0" y1="108.5" x2="92.2" y2="95.5" stroke="#525c66" stroke-width="1.1" opacity=".8"/><path d="M95.0 108.5 L97.2 95.5 L100.3 95.5 L98.1 108.5 Z" fill="#aeb9c2"/><line x1="95.0" y1="108.5" x2="97.2" y2="95.5" stroke="#525c66" stroke-width="1.1" opacity=".8"/><path d="M100.0 108.5 L102.2 95.5 L105.3 95.5 L103.1 108.5 Z" fill="#f2f6f8"/><line x1="100.0" y1="108.5" x2="102.2" y2="95.5" stroke="#525c66" stroke-width="1.1" opacity=".8"/><path d="M105.0 108.5 L107.2 95.5 L110.3 95.5 L108.1 108.5 Z" fill="#aeb9c2"/><line x1="105.0" y1="108.5" x2="107.2" y2="95.5" stroke="#525c66" stroke-width="1.1" opacity=".8"/><path d="M110.0 108.5 L112.2 95.5 L115.3 95.5 L113.1 108.5 Z" fill="#f2f6f8"/><line x1="110.0" y1="108.5" x2="112.2" y2="95.5" stroke="#525c66" stroke-width="1.1" opacity=".8"/><path d="M115.0 108.5 L117.2 95.5 L120.3 95.5 L118.1 108.5 Z" fill="#aeb9c2"/><line x1="115.0" y1="108.5" x2="117.2" y2="95.5" stroke="#525c66" stroke-width="1.1" opacity=".8"/><rect x="80" y="97.58" width="40" height="2.21" fill="#ffffff" opacity=".5" filter="url(#soft)"/><rect x="80" y="105.64" width="40" height="2.86" fill="#525c66" opacity=".35" filter="url(#soft)"/><rect x="116" y="88" width="12" height="28" rx="2" fill="#c3ccd3" stroke="#525c66" stroke-width="1"/><rect x="128" y="85" width="86" height="34" rx="8" fill="url(#b)" stroke="#525c66" stroke-width="1"/><line x1="134" y1="85" x2="140" y2="119" stroke="#7c868f" stroke-width="1.3" opacity=".8"/><line x1="140" y1="85" x2="134" y2="119" stroke="#7c868f" stroke-width="1.3" opacity=".8"/><line x1="141" y1="85" x2="147" y2="119" stroke="#7c868f" stroke-width="1.3" opacity=".8"/><line x1="147" y1="85" x2="141" y2="119" stroke="#7c868f" stroke-width="1.3" opacity=".8"/><line x1="148" y1="85" x2="154" y2="119" stroke="#7c868f" stroke-width="1.3" opacity=".8"/><line x1="154" y1="85" x2="148" y2="119" stroke="#7c868f" stroke-width="1.3" opacity=".8"/><line x1="155" y1="85" x2="161" y2="119" stroke="#7c868f" stroke-width="1.3" opacity=".8"/><line x1="161" y1="85" x2="155" y2="119" stroke="#7c868f" stroke-width="1.3" opacity=".8"/><line x1="162" y1="85" x2="168" y2="119" stroke="#7c868f" stroke-width="1.3" opacity=".8"/><line x1="168" y1="85" x2="162" y2="119" stroke="#7c868f" stroke-width="1.3" opacity=".8"/><line x1="169" y1="85" x2="175" y2="119" stroke="#7c868f" stroke-width="1.3" opacity=".8"/><line x1="175" y1="85" x2="169" y2="119" stroke="#7c868f" stroke-width="1.3" opacity=".8"/><line x1="176" y1="85" x2="182" y2="119" stroke="#7c868f" stroke-width="1.3" opacity=".8"/><line x1="182" y1="85" x2="176" y2="119" stroke="#7c868f" stroke-width="1.3" opacity=".8"/><line x1="183" y1="85" x2="189" y2="119" stroke="#7c868f" stroke-width="1.3" opacity=".8"/><line x1="189" y1="85" x2="183" y2="119" stroke="#7c868f" stroke-width="1.3" opacity=".8"/><line x1="190" y1="85" x2="196" y2="119" stroke="#7c868f" stroke-width="1.3" opacity=".8"/><line x1="196" y1="85" x2="190" y2="119" stroke="#7c868f" stroke-width="1.3" opacity=".8"/><line x1="197" y1="85" x2="203" y2="119" stroke="#7c868f" stroke-width="1.3" opacity=".8"/><line x1="203" y1="85" x2="197" y2="119" stroke="#7c868f" stroke-width="1.3" opacity=".8"/><line x1="204" y1="85" x2="210" y2="119" stroke="#7c868f" stroke-width="1.3" opacity=".8"/><line x1="210" y1="85" x2="204" y2="119" stroke="#7c868f" stroke-width="1.3" opacity=".8"/><rect x="128" y="92" width="86" height="6" fill="#fff" opacity=".5"/><rect x="214" y="99" width="46" height="6" rx="3" fill="url(#cab)"/><line x1="218" y1="99" x2="222" y2="105" stroke="#7c868f" stroke-width="1"/><line x1="225" y1="99" x2="229" y2="105" stroke="#7c868f" stroke-width="1"/><line x1="232" y1="99" x2="236" y2="105" stroke="#7c868f" stroke-width="1"/><line x1="239" y1="99" x2="243" y2="105" stroke="#7c868f" stroke-width="1"/><line x1="246" y1="99" x2="250" y2="105" stroke="#7c868f" stroke-width="1"/><line x1="253" y1="99" x2="257" y2="105" stroke="#7c868f" stroke-width="1"/></svg>