<svg xmlns="http://www.w3.org/2000/svg" viewBox="0 0 280 200" width="280" height="200" role="img"><defs><radialGradient id="bg" cx=".5" cy=".42" r=".95"><stop offset="0" stop-color="#FAFBFC"/><stop offset=".55" stop-color="#EDEFF1"/><stop offset="1" stop-color="#D6DADE"/></radialGradient><radialGradient id="shdw" cx=".5" cy=".5" r=".5"><stop offset="0" stop-color="#0c1116" stop-opacity=".38"/><stop offset=".65" stop-color="#0c1116" stop-opacity=".16"/><stop offset="1" stop-color="#0c1116" stop-opacity="0"/></radialGradient><filter id="soft" x="-20%" y="-20%" width="140%" height="140%"><feGaussianBlur stdDeviation="1.1"/></filter><linearGradient id="sh" x1="0" y1="0" x2="0" y2="1"><stop offset="0" stop-color="#6e7a86"/><stop offset=".16" stop-color="#b4c0cb"/><stop offset=".32" stop-color="#eef3f7"/><stop offset=".42" stop-color="#fbfdff"/><stop offset=".58" stop-color="#c9d3dc"/><stop offset=".82" stop-color="#86919c"/><stop offset="1" stop-color="#5a6570"/></linearGradient><radialGradient id="cam" cx=".38" cy=".34" r=".85"><stop offset="0" stop-color="#fbfdff"/><stop offset=".45" stop-color="#eef3f7"/><stop offset=".75" stop-color="#c9d3dc"/><stop offset="1" stop-color="#5a6570"/></radialGradient><radialGradient id="cam2" cx=".38" cy=".34" r=".85"><stop offset="0" stop-color="#fbfdff"/><stop offset=".45" stop-color="#eef3f7"/><stop offset=".75" stop-color="#c9d3dc"/><stop offset="1" stop-color="#5a6570"/></radialGradient></defs><rect width="280" height="200" fill="url(#bg)"/><ellipse cx="140" cy="158" rx="104" ry="7" fill="url(#shdw)"/><path d="M56 79.0 L56 105.0 L49.95 105.0 Q42.25 92 49.95 79.0 Z" fill="url(#sh)"/><path d="M50.5 83.16 Q45.55 92 50.5 97.2" stroke="#ffffff" stroke-width="2.4" fill="none" opacity=".6" filter="url(#soft)"/><rect x="54.5" y="79.0" width="1.5" height="26" fill="#5a6570" opacity=".55"/><rect x="56" y="86.0" width="38" height="12" rx="2" fill="url(#sh)"/><rect x="56" y="88.16" width="38" height="1.92" fill="#ffffff" opacity=".55" filter="url(#soft)"/><path d="M94.0 100.0 L97.2 84.0 L101.5 84.0 L98.3 100.0 Z" fill="#eef3f7"/><line x1="94.0" y1="100.0" x2="97.2" y2="84.0" stroke="#5a6570" stroke-width="1.1" opacity=".8"/><path d="M101.0 100.0 L104.2 84.0 L108.5 84.0 L105.3 100.0 Z" fill="#b4c0cb"/><line x1="101.0" y1="100.0" x2="104.2" y2="84.0" stroke="#5a6570" stroke-width="1.1" opacity=".8"/><path d="M108.0 100.0 L111.2 84.0 L115.5 84.0 L112.3 100.0 Z" fill="#eef3f7"/><line x1="108.0" y1="100.0" x2="111.2" y2="84.0" stroke="#5a6570" stroke-width="1.1" opacity=".8"/><path d="M115.0 100.0 L118.2 84.0 L122.5 84.0 L119.3 100.0 Z" fill="#b4c0cb"/><line x1="115.0" y1="100.0" x2="118.2" y2="84.0" stroke="#5a6570" stroke-width="1.1" opacity=".8"/><path d="M122.0 100.0 L125.2 84.0 L129.5 84.0 L126.3 100.0 Z" fill="#eef3f7"/><line x1="122.0" y1="100.0" x2="125.2" y2="84.0" stroke="#5a6570" stroke-width="1.1" opacity=".8"/><path d="M129.0 100.0 L132.2 84.0 L136.5 84.0 L133.3 100.0 Z" fill="#b4c0cb"/><line x1="129.0" y1="100.0" x2="132.2" y2="84.0" stroke="#5a6570" stroke-width="1.1" opacity=".8"/><path d="M136.0 100.0 L139.2 84.0 L143.5 84.0 L140.3 100.0 Z" fill="#eef3f7"/><line x1="136.0" y1="100.0" x2="139.2" y2="84.0" stroke="#5a6570" stroke-width="1.1" opacity=".8"/><rect x="94" y="86.56" width="49" height="2.72" fill="#ffffff" opacity=".5" filter="url(#soft)"/><rect x="94" y="96.48" width="49" height="3.52" fill="#5a6570" opacity=".35" filter="url(#soft)"/><path d="M144 84.0 L151 87.52 L151 96.48 L144 100.0 Z" fill="#c9d3dc"/><path d="M144 84.0 L151 87.52 L151 92 L144 92 Z" fill="#eef3f7" opacity=".7"/><circle cx="198" cy="96" r="22" fill="url(#cam)" stroke="#86919c" stroke-width="1.2"/><g transform="rotate(0 198 96)"><path d="M185 96 a13 13 0 0 1 26 0 l-7 0 a6 6 0 0 0 -12 0 Z" fill="#5a6570"/></g><rect x="195.6" y="88" width="4.8" height="16" rx="1.6" fill="#5a6570"/><circle cx="248" cy="96" r="22" fill="url(#cam)" stroke="#86919c" stroke-width="1.2"/><g transform="rotate(70 248 96)"><path d="M235 96 a13 13 0 0 1 26 0 l-7 0 a6 6 0 0 0 -12 0 Z" fill="#5a6570"/></g><rect x="245.6" y="88" width="4.8" height="16" rx="1.6" fill="#5a6570"/></svg>