<svg xmlns="http://www.w3.org/2000/svg" viewBox="0 0 280 200" width="280" height="200" role="img"><defs><radialGradient id="bg" cx=".5" cy=".42" r=".95"><stop offset="0" stop-color="#FAFBFC"/><stop offset=".55" stop-color="#EDEFF1"/><stop offset="1" stop-color="#D6DADE"/></radialGradient><radialGradient id="shdw" cx=".5" cy=".5" r=".5"><stop offset="0" stop-color="#0c1116" stop-opacity=".38"/><stop offset=".65" stop-color="#0c1116" stop-opacity=".16"/><stop offset="1" stop-color="#0c1116" stop-opacity="0"/></radialGradient><filter id="soft" x="-20%" y="-20%" width="140%" height="140%"><feGaussianBlur stdDeviation="1.1"/></filter><linearGradient id="body" x1="0" y1="0" x2="1" y2="0"><stop offset="0" stop-color="#6e7a86"/><stop offset=".2" stop-color="#b4c0cb"/><stop offset=".38" stop-color="#fbfdff"/><stop offset=".62" stop-color="#c9d3dc"/><stop offset="1" stop-color="#5a6570"/></linearGradient><radialGradient id="face" cx=".38" cy=".34" r=".85"><stop offset="0" stop-color="#ffffff"/><stop offset=".45" stop-color="#f2f6f8"/><stop offset=".75" stop-color="#c3ccd3"/><stop offset="1" stop-color="#525c66"/></radialGradient></defs><rect width="280" height="200" fill="url(#bg)"/><ellipse cx="140" cy="168" rx="98" ry="7" fill="url(#shdw)"/><ellipse cx="140" cy="148" rx="80" ry="22" fill="#86919c"/><ellipse cx="140" cy="140" rx="80" ry="22" fill="#fbfdff"/><path d="M60 140 L60 148 A80 22 0 0 0 220 148 L220 140" fill="#c9d3dc"/><rect x="104" y="62" width="72" height="80" fill="url(#body)"/><rect x="124" y="62" width="13" height="80" fill="#fff" opacity=".5"/><rect x="160" y="62" width="14" height="80" fill="#5a6570" opacity=".45"/><line x1="140" y1="66" x2="140" y2="140" stroke="#86919c" stroke-width="1" opacity=".6"/><circle cx="112" cy="74" r="1" fill="#86919c" opacity=".7"/><circle cx="135" cy="91" r="1" fill="#86919c" opacity=".7"/><circle cx="158" cy="108" r="1" fill="#86919c" opacity=".7"/><circle cx="125" cy="125" r="1" fill="#86919c" opacity=".7"/><circle cx="148" cy="82" r="1" fill="#86919c" opacity=".7"/><circle cx="115" cy="99" r="1" fill="#86919c" opacity=".7"/><circle cx="138" cy="116" r="1" fill="#86919c" opacity=".7"/><circle cx="161" cy="133" r="1" fill="#86919c" opacity=".7"/><circle cx="128" cy="90" r="1" fill="#86919c" opacity=".7"/><circle cx="151" cy="107" r="1" fill="#86919c" opacity=".7"/><ellipse cx="140" cy="62" rx="36" ry="12" fill="url(#face)" stroke="#7c868f" stroke-width=".8"/><ellipse cx="140" cy="62" rx="31" ry="10.4" fill="none" stroke="#c3ccd3" stroke-width=".8" opacity=".85"/><ellipse cx="140" cy="62" rx="24" ry="8.0" fill="none" stroke="#c3ccd3" stroke-width=".8" opacity=".85"/><ellipse cx="140" cy="62" rx="17" ry="5.6000000000000005" fill="none" stroke="#c3ccd3" stroke-width=".8" opacity=".85"/><ellipse cx="140" cy="62" rx="10" ry="3.200000000000001" fill="none" stroke="#c3ccd3" stroke-width=".8" opacity=".85"/><ellipse cx="140" cy="62" rx="13" ry="4.4" fill="#101418"/><ellipse cx="140" cy="61" rx="13" ry="4.4" fill="none" stroke="#aeb9c2" stroke-width="1.2"/><ellipse cx="84" cy="138" rx="10" ry="4.6" fill="url(#face)"/><ellipse cx="84" cy="138" rx="5.2" ry="2.4" fill="#101418"/><ellipse cx="140" cy="154" rx="10" ry="4.6" fill="url(#face)"/><ellipse cx="140" cy="154" rx="5.2" ry="2.4" fill="#101418"/><ellipse cx="196" cy="138" rx="10" ry="4.6" fill="url(#face)"/><ellipse cx="196" cy="138" rx="5.2" ry="2.4" fill="#101418"/></svg>