<svg xmlns="http://www.w3.org/2000/svg" viewBox="0 0 280 200" width="280" height="200" role="img"><defs><radialGradient id="bg" cx=".5" cy=".42" r=".95"><stop offset="0" stop-color="#FAFBFC"/><stop offset=".55" stop-color="#EDEFF1"/><stop offset="1" stop-color="#D6DADE"/></radialGradient><radialGradient id="shdw" cx=".5" cy=".5" r=".5"><stop offset="0" stop-color="#0c1116" stop-opacity=".38"/><stop offset=".65" stop-color="#0c1116" stop-opacity=".16"/><stop offset="1" stop-color="#0c1116" stop-opacity="0"/></radialGradient><filter id="soft" x="-20%" y="-20%" width="140%" height="140%"><feGaussianBlur stdDeviation="1.1"/></filter></defs><rect width="280" height="200" fill="url(#bg)"/><ellipse cx="70" cy="138" rx="42" ry="7" fill="url(#shdw)"/><ellipse cx="162" cy="128" rx="30" ry="7" fill="url(#shdw)"/><ellipse cx="232" cy="148" rx="28" ry="7" fill="url(#shdw)"/><path d="M92 60 A38 38 0 1 0 99 79" fill="none" stroke="#c3ccd3" stroke-width="14"/><path d="M92 60 A38 38 0 1 0 99 79" fill="none" stroke="#f2f6f8" stroke-width="7"/><path d="M92 60 A38 38 0 1 0 99 79" fill="none" stroke="#ffffff" stroke-width="2" opacity=".7"/><circle cx="92" cy="60" r="6.5" fill="#ffffff" stroke="#525c66" stroke-width="1"/><circle cx="99" cy="79" r="6.5" fill="#ffffff" stroke="#525c66" stroke-width="1"/><circle cx="92" cy="60" r="2.6" fill="#14181c"/><circle cx="99" cy="79" r="2.6" fill="#14181c"/><path d="M178 96 A24 24 0 1 0 178 114" fill="none" stroke="#c3ccd3" stroke-width="12"/><path d="M178 96 A24 24 0 1 0 178 114" fill="none" stroke="#f2f6f8" stroke-width="5.6"/><rect x="166" y="92" width="15" height="8" rx="2" fill="#f2f6f8" stroke="#7c868f" stroke-width=".8"/><rect x="166" y="110" width="15" height="8" rx="2" fill="#f2f6f8" stroke="#7c868f" stroke-width=".8"/><rect x="132" y="101" width="13" height="8" rx="2" fill="#f2f6f8" stroke="#7c868f" stroke-width=".8"/><path d="M208 118 h48 v9 h-17 v20 h-14 v-20 h-17 Z" fill="#ffffff" stroke="#525c66" stroke-width="1"/><rect x="210" y="119.5" width="44" height="2.6" fill="#fff" opacity=".65"/><g font-family="Arial" font-size="8.6" fill="#3a434c"><text x="48" y="158">C-CLIP</text><text x="146" y="62">E-CLIP</text><text x="200" y="168">TEE WASHER</text></g></svg>