<svg xmlns="http://www.w3.org/2000/svg" viewBox="0 0 280 200" width="280" height="200" role="img"><defs><radialGradient id="bg" cx=".5" cy=".42" r=".95"><stop offset="0" stop-color="#FAFBFC"/><stop offset=".55" stop-color="#EDEFF1"/><stop offset="1" stop-color="#D6DADE"/></radialGradient><radialGradient id="shdw" cx=".5" cy=".5" r=".5"><stop offset="0" stop-color="#0c1116" stop-opacity=".38"/><stop offset=".65" stop-color="#0c1116" stop-opacity=".16"/><stop offset="1" stop-color="#0c1116" stop-opacity="0"/></radialGradient><filter id="soft" x="-20%" y="-20%" width="140%" height="140%"><feGaussianBlur stdDeviation="1.1"/></filter><linearGradient id="cone" x1="0" y1="0" x2="1" y2="0"><stop offset="0" stop-color="#6e7a86"/><stop offset=".2" stop-color="#b4c0cb"/><stop offset=".38" stop-color="#fbfdff"/><stop offset=".62" stop-color="#c9d3dc"/><stop offset="1" stop-color="#5a6570"/></linearGradient></defs><rect width="280" height="200" fill="url(#bg)"/><ellipse cx="140" cy="164" rx="62" ry="7" fill="url(#shdw)"/><polygon points="161.0,39.8 182.0,58.0 182.0,96.0 161.0,77.8" fill="#eef3f7"/><polygon points="182.0,58.0 161.0,76.2 161.0,114.2 182.0,96.0" fill="#c9d3dc"/><polygon points="161.0,76.2 119.0,76.2 119.0,114.2 161.0,114.2" fill="#86919c"/><polygon points="182.0,58.0 161.0,76.2 119.0,76.2 98.0,58.0 119.0,39.8 161.0,39.8" fill="url(#nt)" stroke="#86919c" stroke-width=".6"/><ellipse cx="140" cy="58" rx="15" ry="7.5" fill="#5a6570"/><ellipse cx="140" cy="59.5" rx="12.299999999999999" ry="6.1499999999999995" fill="#0d0f11"/><ellipse cx="140" cy="58" rx="13.5" ry="6.75" fill="none" stroke="#b4c0cb" stroke-width=".8" opacity=".8"/><ellipse cx="140" cy="100" rx="40" ry="13" fill="#eef3f7"/><path d="M100 100 L100 106 A40 13 0 0 0 180 106 L180 100" fill="#c9d3dc"/><path d="M100 106 L127 148 L153 148 L180 106 Z" fill="url(#cone)"/><path d="M114 106 L134 144 L141 144 L128 106 Z" fill="#fff" opacity=".55"/><path d="M162 106 L147 144 L153 148 L174 108 Z" fill="#5a6570" opacity=".4"/><ellipse cx="140" cy="148" rx="13" ry="4" fill="#86919c"/><ellipse cx="140" cy="148" rx="8" ry="2.6" fill="#101418"/></svg>