<svg xmlns="http://www.w3.org/2000/svg" viewBox="0 0 280 200" width="280" height="200" role="img"><defs><radialGradient id="bg" cx=".5" cy=".42" r=".95"><stop offset="0" stop-color="#FAFBFC"/><stop offset=".55" stop-color="#EDEFF1"/><stop offset="1" stop-color="#D6DADE"/></radialGradient><radialGradient id="shdw" cx=".5" cy=".5" r=".5"><stop offset="0" stop-color="#0c1116" stop-opacity=".38"/><stop offset=".65" stop-color="#0c1116" stop-opacity=".16"/><stop offset="1" stop-color="#0c1116" stop-opacity="0"/></radialGradient><filter id="soft" x="-20%" y="-20%" width="140%" height="140%"><feGaussianBlur stdDeviation="1.1"/></filter><linearGradient id="hd" x1="0" y1="0" x2="0" y2="1"><stop offset="0" stop-color="#65707a"/><stop offset=".16" stop-color="#aeb9c2"/><stop offset=".32" stop-color="#f2f6f8"/><stop offset=".42" stop-color="#ffffff"/><stop offset=".58" stop-color="#c3ccd3"/><stop offset=".82" stop-color="#7c868f"/><stop offset="1" stop-color="#525c66"/></linearGradient><linearGradient id="sh" x1="0" y1="0" x2="0" y2="1"><stop offset="0" stop-color="#65707a"/><stop offset=".16" stop-color="#aeb9c2"/><stop offset=".32" stop-color="#f2f6f8"/><stop offset=".42" stop-color="#ffffff"/><stop offset=".58" stop-color="#c3ccd3"/><stop offset=".82" stop-color="#7c868f"/><stop offset="1" stop-color="#525c66"/></linearGradient><radialGradient id="hf" cx=".38" cy=".34" r=".85"><stop offset="0" stop-color="#ffffff"/><stop offset=".45" stop-color="#f2f6f8"/><stop offset=".75" stop-color="#c3ccd3"/><stop offset="1" stop-color="#525c66"/></radialGradient></defs><rect width="280" height="200" fill="url(#bg)"/><ellipse cx="140.0" cy="133.0" rx="75.60000000000001" ry="7" fill="url(#shdw)"/><rect x="70" y="89.0" width="55.99999999999999" height="22" rx="2" fill="url(#sh)"/><rect x="70" y="92.96" width="55.99999999999999" height="3.52" fill="#ffffff" opacity=".55" filter="url(#soft)"/><path d="M124.0 111.0 L127.2 89.0 L131.5 89.0 L128.3 111.0 Z" fill="#f2f6f8"/><line x1="124.0" y1="111.0" x2="127.2" y2="89.0" stroke="#525c66" stroke-width="1.1" opacity=".8"/><path d="M131.0 111.0 L134.2 89.0 L138.5 89.0 L135.3 111.0 Z" fill="#aeb9c2"/><line x1="131.0" y1="111.0" x2="134.2" y2="89.0" stroke="#525c66" stroke-width="1.1" opacity=".8"/><path d="M138.0 111.0 L141.2 89.0 L145.5 89.0 L142.3 111.0 Z" fill="#f2f6f8"/><line x1="138.0" y1="111.0" x2="141.2" y2="89.0" stroke="#525c66" stroke-width="1.1" opacity=".8"/><path d="M145.0 111.0 L148.2 89.0 L152.5 89.0 L149.3 111.0 Z" fill="#aeb9c2"/><line x1="145.0" y1="111.0" x2="148.2" y2="89.0" stroke="#525c66" stroke-width="1.1" opacity=".8"/><path d="M152.0 111.0 L155.2 89.0 L159.5 89.0 L156.3 111.0 Z" fill="#f2f6f8"/><line x1="152.0" y1="111.0" x2="155.2" y2="89.0" stroke="#525c66" stroke-width="1.1" opacity=".8"/><path d="M159.0 111.0 L162.2 89.0 L166.5 89.0 L163.3 111.0 Z" fill="#aeb9c2"/><line x1="159.0" y1="111.0" x2="162.2" y2="89.0" stroke="#525c66" stroke-width="1.1" opacity=".8"/><path d="M166.0 111.0 L169.2 89.0 L173.5 89.0 L170.3 111.0 Z" fill="#f2f6f8"/><line x1="166.0" y1="111.0" x2="169.2" y2="89.0" stroke="#525c66" stroke-width="1.1" opacity=".8"/><path d="M173.0 111.0 L176.2 89.0 L180.5 89.0 L177.3 111.0 Z" fill="#aeb9c2"/><line x1="173.0" y1="111.0" x2="176.2" y2="89.0" stroke="#525c66" stroke-width="1.1" opacity=".8"/><rect x="124.0" y="92.52" width="56" height="3.74" fill="#ffffff" opacity=".5" filter="url(#soft)"/><rect x="124.0" y="106.16" width="56" height="4.84" fill="#525c66" opacity=".35" filter="url(#soft)"/><path d="M180.0 89.0 L187.0 93.84 L187.0 106.16 L180.0 111.0 Z" fill="#c3ccd3"/><path d="M180.0 89.0 L187.0 93.84 L187.0 100 L180.0 100 Z" fill="#f2f6f8" opacity=".7"/><rect x="55" y="81.0" width="15" height="38" fill="url(#hd)"/><path d="M55 81.0 L55 91.26 L58.3 81.0 Z" fill="#aeb9c2"/><path d="M55 119.0 L55 108.74 L58.3 119.0 Z" fill="#7c868f"/><line x1="55" y1="91.26" x2="70" y2="91.26" stroke="#7c868f" stroke-width="1" opacity=".7"/><line x1="55" y1="108.74" x2="70" y2="108.74" stroke="#525c66" stroke-width="1" opacity=".7"/><rect x="55" y="91.26" width="15" height="7.6000000000000005" fill="#ffffff" opacity=".4" filter="url(#soft)"/><rect x="68.4" y="81.0" width="1.6" height="38" fill="#525c66" opacity=".6"/><rect x="103" y="84" width="34" height="32" rx="2" fill="url(#sh)" stroke="#7c868f" stroke-width=".8"/><rect x="103" y="90" width="34" height="5" fill="#fff" opacity=".5"/></svg>