<svg xmlns="http://www.w3.org/2000/svg" viewBox="0 0 280 200" width="280" height="200" role="img"><defs><radialGradient id="bg" cx=".5" cy=".42" r=".95"><stop offset="0" stop-color="#FAFBFC"/><stop offset=".55" stop-color="#EDEFF1"/><stop offset="1" stop-color="#D6DADE"/></radialGradient><radialGradient id="shdw" cx=".5" cy=".5" r=".5"><stop offset="0" stop-color="#0c1116" stop-opacity=".38"/><stop offset=".65" stop-color="#0c1116" stop-opacity=".16"/><stop offset="1" stop-color="#0c1116" stop-opacity="0"/></radialGradient><filter id="soft" x="-20%" y="-20%" width="140%" height="140%"><feGaussianBlur stdDeviation="1.1"/></filter><linearGradient id="hd" x1="0" y1="0" x2="0" y2="1"><stop offset="0" stop-color="#15181b"/><stop offset=".16" stop-color="#33383e"/><stop offset=".32" stop-color="#5d646c"/><stop offset=".42" stop-color="#7d858e"/><stop offset=".58" stop-color="#454b52"/><stop offset=".82" stop-color="#23272c"/><stop offset="1" stop-color="#101316"/></linearGradient><linearGradient id="sh" x1="0" y1="0" x2="0" y2="1"><stop offset="0" stop-color="#15181b"/><stop offset=".16" stop-color="#33383e"/><stop offset=".32" stop-color="#5d646c"/><stop offset=".42" stop-color="#7d858e"/><stop offset=".58" stop-color="#454b52"/><stop offset=".82" stop-color="#23272c"/><stop offset="1" stop-color="#101316"/></linearGradient><radialGradient id="hf" cx=".38" cy=".34" r=".85"><stop offset="0" stop-color="#7d858e"/><stop offset=".45" stop-color="#5d646c"/><stop offset=".75" stop-color="#454b52"/><stop offset="1" stop-color="#101316"/></radialGradient></defs><rect width="280" height="200" fill="url(#bg)"/><ellipse cx="140.0" cy="131.0" rx="91.84" ry="7" fill="url(#shdw)"/><rect x="72.0" y="90.0" width="62.0" height="20" rx="2" fill="url(#sh)"/><rect x="72.0" y="93.6" width="62.0" height="3.2" fill="#ffffff" opacity=".55" filter="url(#soft)"/><path d="M132.0 110.0 L135.2 90.0 L139.5 90.0 L136.3 110.0 Z" fill="#5d646c"/><line x1="132.0" y1="110.0" x2="135.2" y2="90.0" stroke="#101316" stroke-width="1.1" opacity=".8"/><path d="M139.0 110.0 L142.2 90.0 L146.5 90.0 L143.3 110.0 Z" fill="#33383e"/><line x1="139.0" y1="110.0" x2="142.2" y2="90.0" stroke="#101316" stroke-width="1.1" opacity=".8"/><path d="M146.0 110.0 L149.2 90.0 L153.5 90.0 L150.3 110.0 Z" fill="#5d646c"/><line x1="146.0" y1="110.0" x2="149.2" y2="90.0" stroke="#101316" stroke-width="1.1" opacity=".8"/><path d="M153.0 110.0 L156.2 90.0 L160.5 90.0 L157.3 110.0 Z" fill="#33383e"/><line x1="153.0" y1="110.0" x2="156.2" y2="90.0" stroke="#101316" stroke-width="1.1" opacity=".8"/><path d="M160.0 110.0 L163.2 90.0 L167.5 90.0 L164.3 110.0 Z" fill="#5d646c"/><line x1="160.0" y1="110.0" x2="163.2" y2="90.0" stroke="#101316" stroke-width="1.1" opacity=".8"/><path d="M167.0 110.0 L170.2 90.0 L174.5 90.0 L171.3 110.0 Z" fill="#33383e"/><line x1="167.0" y1="110.0" x2="170.2" y2="90.0" stroke="#101316" stroke-width="1.1" opacity=".8"/><path d="M174.0 110.0 L177.2 90.0 L181.5 90.0 L178.3 110.0 Z" fill="#5d646c"/><line x1="174.0" y1="110.0" x2="177.2" y2="90.0" stroke="#101316" stroke-width="1.1" opacity=".8"/><path d="M181.0 110.0 L184.2 90.0 L188.5 90.0 L185.3 110.0 Z" fill="#33383e"/><line x1="181.0" y1="110.0" x2="184.2" y2="90.0" stroke="#101316" stroke-width="1.1" opacity=".8"/><path d="M188.0 110.0 L191.2 90.0 L195.5 90.0 L192.3 110.0 Z" fill="#5d646c"/><line x1="188.0" y1="110.0" x2="191.2" y2="90.0" stroke="#101316" stroke-width="1.1" opacity=".8"/><path d="M195.0 110.0 L198.2 90.0 L202.5 90.0 L199.3 110.0 Z" fill="#33383e"/><line x1="195.0" y1="110.0" x2="198.2" y2="90.0" stroke="#101316" stroke-width="1.1" opacity=".8"/><path d="M202.0 110.0 L205.2 90.0 L209.5 90.0 L206.3 110.0 Z" fill="#5d646c"/><line x1="202.0" y1="110.0" x2="205.2" y2="90.0" stroke="#101316" stroke-width="1.1" opacity=".8"/><rect x="132.0" y="93.2" width="77" height="3.4000000000000004" fill="#ffffff" opacity=".5" filter="url(#soft)"/><rect x="132.0" y="105.6" width="77" height="4.4" fill="#101316" opacity=".35" filter="url(#soft)"/><path d="M209.0 90.0 L216.0 94.4 L216.0 105.6 L209.0 110.0 Z" fill="#454b52"/><path d="M209.0 90.0 L216.0 94.4 L216.0 100 L209.0 100 Z" fill="#5d646c" opacity=".7"/><rect x="58.0" y="83.0" width="14" height="34" fill="url(#hd)"/><path d="M58.0 83.0 L58.0 92.18 L61.08 83.0 Z" fill="#33383e"/><path d="M58.0 117.0 L58.0 107.82 L61.08 117.0 Z" fill="#23272c"/><line x1="58.0" y1="92.18" x2="72.0" y2="92.18" stroke="#23272c" stroke-width="1" opacity=".7"/><line x1="58.0" y1="107.82" x2="72.0" y2="107.82" stroke="#101316" stroke-width="1" opacity=".7"/><rect x="58.0" y="92.18" width="14" height="6.800000000000001" fill="#ffffff" opacity=".4" filter="url(#soft)"/><rect x="70.4" y="83.0" width="1.6" height="34" fill="#101316" opacity=".6"/><ellipse cx="102.0" cy="95" rx="26" ry="24" fill="url(#hd)" stroke="#7d858e" stroke-width="1.2"/><ellipse cx="102.0" cy="95" rx="26" ry="24" fill="none" stroke="#fff" stroke-width="1" opacity=".35"/><circle cx="102.0" cy="102" r="4.5" fill="#101316"/><line x1="102.0" y1="102" x2="102.0" y2="95" stroke="#C8511B" stroke-width="1.4"/><line x1="134.0" y1="102" x2="164.0" y2="102" stroke="#C8511B" stroke-width="1" stroke-dasharray="4 3"/><line x1="134.0" y1="95" x2="164.0" y2="95" stroke="#C8511B" stroke-width="1" stroke-dasharray="4 3"/></svg>