<svg xmlns="http://www.w3.org/2000/svg" viewBox="0 0 280 200" width="280" height="200" role="img"><defs><radialGradient id="bg" cx=".5" cy=".42" r=".95"><stop offset="0" stop-color="#FAFBFC"/><stop offset=".55" stop-color="#EDEFF1"/><stop offset="1" stop-color="#D6DADE"/></radialGradient><radialGradient id="shdw" cx=".5" cy=".5" r=".5"><stop offset="0" stop-color="#0c1116" stop-opacity=".38"/><stop offset=".65" stop-color="#0c1116" stop-opacity=".16"/><stop offset="1" stop-color="#0c1116" stop-opacity="0"/></radialGradient><filter id="soft" x="-20%" y="-20%" width="140%" height="140%"><feGaussianBlur stdDeviation="1.1"/></filter><linearGradient id="hd" x1="0" y1="0" x2="0" y2="1"><stop offset="0" stop-color="#6e7a86"/><stop offset=".16" stop-color="#b4c0cb"/><stop offset=".32" stop-color="#eef3f7"/><stop offset=".42" stop-color="#fbfdff"/><stop offset=".58" stop-color="#c9d3dc"/><stop offset=".82" stop-color="#86919c"/><stop offset="1" stop-color="#5a6570"/></linearGradient><linearGradient id="sh" x1="0" y1="0" x2="0" y2="1"><stop offset="0" stop-color="#6e7a86"/><stop offset=".16" stop-color="#b4c0cb"/><stop offset=".32" stop-color="#eef3f7"/><stop offset=".42" stop-color="#fbfdff"/><stop offset=".58" stop-color="#c9d3dc"/><stop offset=".82" stop-color="#86919c"/><stop offset="1" stop-color="#5a6570"/></linearGradient><radialGradient id="hf" cx=".38" cy=".34" r=".85"><stop offset="0" stop-color="#fbfdff"/><stop offset=".45" stop-color="#eef3f7"/><stop offset=".75" stop-color="#c9d3dc"/><stop offset="1" stop-color="#5a6570"/></radialGradient></defs><rect width="280" height="200" fill="url(#bg)"/><ellipse cx="140.0" cy="124.0" rx="89.60000000000001" ry="7" fill="url(#shdw)"/><rect x="68.0" y="90.0" width="59.76" height="20" rx="2" fill="url(#sh)"/><rect x="68.0" y="93.6" width="59.76" height="3.2" fill="#ffffff" opacity=".55" filter="url(#soft)"/><path d="M125.8 110.0 L128.9 90.0 L133.2 90.0 L130.1 110.0 Z" fill="#eef3f7"/><line x1="125.8" y1="110.0" x2="128.9" y2="90.0" stroke="#5a6570" stroke-width="1.1" opacity=".8"/><path d="M132.8 110.0 L135.9 90.0 L140.2 90.0 L137.1 110.0 Z" fill="#b4c0cb"/><line x1="132.8" y1="110.0" x2="135.9" y2="90.0" stroke="#5a6570" stroke-width="1.1" opacity=".8"/><path d="M139.8 110.0 L142.9 90.0 L147.2 90.0 L144.1 110.0 Z" fill="#eef3f7"/><line x1="139.8" y1="110.0" x2="142.9" y2="90.0" stroke="#5a6570" stroke-width="1.1" opacity=".8"/><path d="M146.8 110.0 L149.9 90.0 L154.2 90.0 L151.1 110.0 Z" fill="#b4c0cb"/><line x1="146.8" y1="110.0" x2="149.9" y2="90.0" stroke="#5a6570" stroke-width="1.1" opacity=".8"/><path d="M153.8 110.0 L156.9 90.0 L161.2 90.0 L158.1 110.0 Z" fill="#eef3f7"/><line x1="153.8" y1="110.0" x2="156.9" y2="90.0" stroke="#5a6570" stroke-width="1.1" opacity=".8"/><path d="M160.8 110.0 L163.9 90.0 L168.2 90.0 L165.1 110.0 Z" fill="#b4c0cb"/><line x1="160.8" y1="110.0" x2="163.9" y2="90.0" stroke="#5a6570" stroke-width="1.1" opacity=".8"/><path d="M167.8 110.0 L170.9 90.0 L175.2 90.0 L172.1 110.0 Z" fill="#eef3f7"/><line x1="167.8" y1="110.0" x2="170.9" y2="90.0" stroke="#5a6570" stroke-width="1.1" opacity=".8"/><path d="M174.8 110.0 L177.9 90.0 L182.2 90.0 L179.1 110.0 Z" fill="#b4c0cb"/><line x1="174.8" y1="110.0" x2="177.9" y2="90.0" stroke="#5a6570" stroke-width="1.1" opacity=".8"/><path d="M181.8 110.0 L184.9 90.0 L189.2 90.0 L186.1 110.0 Z" fill="#eef3f7"/><line x1="181.8" y1="110.0" x2="184.9" y2="90.0" stroke="#5a6570" stroke-width="1.1" opacity=".8"/><path d="M188.8 110.0 L191.9 90.0 L196.2 90.0 L193.1 110.0 Z" fill="#b4c0cb"/><line x1="188.8" y1="110.0" x2="191.9" y2="90.0" stroke="#5a6570" stroke-width="1.1" opacity=".8"/><path d="M195.8 110.0 L198.9 90.0 L203.2 90.0 L200.1 110.0 Z" fill="#eef3f7"/><line x1="195.8" y1="110.0" x2="198.9" y2="90.0" stroke="#5a6570" stroke-width="1.1" opacity=".8"/><path d="M202.8 110.0 L205.9 90.0 L210.2 90.0 L207.1 110.0 Z" fill="#b4c0cb"/><line x1="202.8" y1="110.0" x2="205.9" y2="90.0" stroke="#5a6570" stroke-width="1.1" opacity=".8"/><rect x="125.75999999999999" y="93.2" width="84" height="3.4000000000000004" fill="#ffffff" opacity=".5" filter="url(#soft)"/><rect x="125.75999999999999" y="105.6" width="84" height="4.4" fill="#5a6570" opacity=".35" filter="url(#soft)"/><path d="M209.76 90.0 L216.76 94.4 L216.76 105.6 L209.76 110.0 Z" fill="#c9d3dc"/><path d="M209.76 90.0 L216.76 94.4 L216.76 100 L209.76 100 Z" fill="#eef3f7" opacity=".7"/><path d="M68.0 90.0 L68.0 110.0 L63.6 110.0 Q58.0 100 63.6 90.0 Z" fill="url(#hd)"/><path d="M64.0 93.2 Q60.4 100 64.0 104.0" stroke="#ffffff" stroke-width="2.4" fill="none" opacity=".6" filter="url(#soft)"/><rect x="66.5" y="90.0" width="1.5" height="20" fill="#5a6570" opacity=".55"/><rect x="61.0" y="60" width="7" height="80" rx="2.5" fill="url(#hd)" stroke="#86919c" stroke-width="1"/><rect x="62.4" y="60" width="1.8" height="80" fill="#fff" opacity=".6"/><rect x="68.0" y="87" width="15" height="26" fill="url(#sh)" stroke="#5a6570" stroke-width="1"/><line x1="68.0" y1="87" x2="83.0" y2="87" stroke="#fff" stroke-width="1.6" opacity=".6"/></svg>