<svg xmlns="http://www.w3.org/2000/svg" viewBox="0 0 280 200" width="280" height="200" role="img"><defs><radialGradient id="bg" cx=".5" cy=".42" r=".95"><stop offset="0" stop-color="#FAFBFC"/><stop offset=".55" stop-color="#EDEFF1"/><stop offset="1" stop-color="#D6DADE"/></radialGradient><radialGradient id="shdw" cx=".5" cy=".5" r=".5"><stop offset="0" stop-color="#0c1116" stop-opacity=".38"/><stop offset=".65" stop-color="#0c1116" stop-opacity=".16"/><stop offset="1" stop-color="#0c1116" stop-opacity="0"/></radialGradient><filter id="soft" x="-20%" y="-20%" width="140%" height="140%"><feGaussianBlur stdDeviation="1.1"/></filter></defs><rect width="280" height="200" fill="url(#bg)"/><ellipse cx="140" cy="158" rx="84" ry="7" fill="url(#shdw)"/><polygon points="161.0,65.8 182.0,84.0 182.0,126.0 161.0,107.8" fill="#eef3f7"/><polygon points="182.0,84.0 161.0,102.2 161.0,144.2 182.0,126.0" fill="#c9d3dc"/><polygon points="161.0,102.2 119.0,102.2 119.0,144.2 161.0,144.2" fill="#86919c"/><polygon points="182.0,84.0 161.0,102.2 119.0,102.2 98.0,84.0 119.0,65.8 161.0,65.8" fill="url(#nt)" stroke="#86919c" stroke-width=".6"/><ellipse cx="140" cy="84" rx="17" ry="8.5" fill="#5a6570"/><ellipse cx="140" cy="85.5" rx="13.94" ry="6.97" fill="#0d0f11"/><ellipse cx="140" cy="84" rx="15.3" ry="7.65" fill="none" stroke="#b4c0cb" stroke-width=".8" opacity=".8"/><ellipse cx="140" cy="132" rx="68" ry="22" fill="#c9d3dc"/><ellipse cx="140" cy="126" rx="68" ry="22" fill="#eef3f7"/><line x1="200.0" y1="130.0" x2="208.0" y2="131.0" stroke="#5a6570" stroke-width="1.6"/><line x1="198.3" y1="134.6" x2="206.0" y2="136.3" stroke="#5a6570" stroke-width="1.6"/><line x1="193.1" y1="139.0" x2="200.2" y2="141.2" stroke="#5a6570" stroke-width="1.6"/><line x1="184.9" y1="142.9" x2="190.9" y2="145.6" stroke="#5a6570" stroke-width="1.6"/><line x1="174.1" y1="146.0" x2="178.6" y2="149.1" stroke="#5a6570" stroke-width="1.6"/><line x1="161.3" y1="148.1" x2="164.1" y2="151.6" stroke="#5a6570" stroke-width="1.6"/><line x1="147.2" y1="149.3" x2="148.2" y2="152.8" stroke="#5a6570" stroke-width="1.6"/><line x1="132.8" y1="149.3" x2="131.8" y2="152.8" stroke="#5a6570" stroke-width="1.6"/><line x1="118.7" y1="148.1" x2="115.9" y2="151.6" stroke="#5a6570" stroke-width="1.6"/><line x1="105.9" y1="146.0" x2="101.4" y2="149.1" stroke="#5a6570" stroke-width="1.6"/><line x1="95.1" y1="142.9" x2="89.1" y2="145.6" stroke="#5a6570" stroke-width="1.6"/><line x1="86.9" y1="139.0" x2="79.8" y2="141.2" stroke="#5a6570" stroke-width="1.6"/><line x1="81.7" y1="134.6" x2="74.0" y2="136.3" stroke="#5a6570" stroke-width="1.6"/><line x1="80.0" y1="130.0" x2="72.0" y2="131.0" stroke="#5a6570" stroke-width="1.6"/><line x1="81.7" y1="125.4" x2="74.0" y2="125.7" stroke="#5a6570" stroke-width="1.6"/><line x1="198.3" y1="125.4" x2="206.0" y2="125.7" stroke="#5a6570" stroke-width="1.6"/></svg>