<svg xmlns="http://www.w3.org/2000/svg" viewBox="0 0 280 200" width="280" height="200" role="img"><defs><radialGradient id="bg" cx=".5" cy=".42" r=".95"><stop offset="0" stop-color="#FAFBFC"/><stop offset=".55" stop-color="#EDEFF1"/><stop offset="1" stop-color="#D6DADE"/></radialGradient><radialGradient id="shdw" cx=".5" cy=".5" r=".5"><stop offset="0" stop-color="#0c1116" stop-opacity=".38"/><stop offset=".65" stop-color="#0c1116" stop-opacity=".16"/><stop offset="1" stop-color="#0c1116" stop-opacity="0"/></radialGradient><filter id="soft" x="-20%" y="-20%" width="140%" height="140%"><feGaussianBlur stdDeviation="1.1"/></filter><radialGradient id="d" cx=".38" cy=".34" r=".85"><stop offset="0" stop-color="#fbfdff"/><stop offset=".45" stop-color="#eef3f7"/><stop offset=".75" stop-color="#c9d3dc"/><stop offset="1" stop-color="#5a6570"/></radialGradient><linearGradient id="pn" x1="0" y1="0" x2="0" y2="1"><stop offset="0" stop-color="#6e7a86"/><stop offset=".16" stop-color="#b4c0cb"/><stop offset=".32" stop-color="#eef3f7"/><stop offset=".42" stop-color="#fbfdff"/><stop offset=".58" stop-color="#c9d3dc"/><stop offset=".82" stop-color="#86919c"/><stop offset="1" stop-color="#5a6570"/></linearGradient></defs><rect width="280" height="200" fill="url(#bg)"/><path d="M30 128 L160 88 L262 116 L132 158 Z" fill="url(#pn)" stroke="#5a6570" stroke-width="1"/><ellipse cx="150" cy="120" rx="34" ry="13" fill="#14181c"/><ellipse cx="150" cy="118.5" rx="34" ry="13" fill="none" stroke="#86919c" stroke-width="1.6"/><ellipse cx="150" cy="66" rx="38" ry="15" fill="url(#d)" stroke="#86919c" stroke-width="1"/><ellipse cx="150" cy="62" rx="24" ry="8" fill="#fff" opacity=".55" filter="url(#soft)"/><path d="M112 66 L112 74 A38 15 0 0 0 188 74 L188 66" fill="#c9d3dc"/><line x1="150" y1="86" x2="150" y2="106" stroke="#C8511B" stroke-width="1.6" stroke-dasharray="4 3"/><path d="M150 110 l-4 -7 h8 Z" fill="#C8511B"/></svg>