<svg xmlns="http://www.w3.org/2000/svg" viewBox="0 0 280 200" width="280" height="200" role="img"><defs><radialGradient id="bg" cx=".5" cy=".42" r=".95"><stop offset="0" stop-color="#FAFBFC"/><stop offset=".55" stop-color="#EDEFF1"/><stop offset="1" stop-color="#D6DADE"/></radialGradient><radialGradient id="shdw" cx=".5" cy=".5" r=".5"><stop offset="0" stop-color="#0c1116" stop-opacity=".38"/><stop offset=".65" stop-color="#0c1116" stop-opacity=".16"/><stop offset="1" stop-color="#0c1116" stop-opacity="0"/></radialGradient><filter id="soft" x="-20%" y="-20%" width="140%" height="140%"><feGaussianBlur stdDeviation="1.1"/></filter><linearGradient id="band" x1="0" y1="0" x2="1" y2="0"><stop offset="0" stop-color="#65707a"/><stop offset=".2" stop-color="#aeb9c2"/><stop offset=".38" stop-color="#ffffff"/><stop offset=".62" stop-color="#c3ccd3"/><stop offset="1" stop-color="#525c66"/></linearGradient></defs><rect width="280" height="200" fill="url(#bg)"/><ellipse cx="140" cy="166" rx="78" ry="7" fill="url(#shdw)"/><circle cx="140" cy="104" r="56" fill="none" stroke="url(#band)" stroke-width="15"/><circle cx="140" cy="104" r="61" fill="none" stroke="#525c66" stroke-width="1.4" opacity=".6"/><circle cx="140" cy="104" r="50" fill="none" stroke="#525c66" stroke-width="1.2" opacity=".5"/><rect x="105.3" y="145.3" width="5.2" height="9.2" rx="2" fill="#7c868f" transform="rotate(215 107.9 149.9)" opacity=".85"/><rect x="93.9" y="134.6" width="5.2" height="9.2" rx="2" fill="#7c868f" transform="rotate(231 96.5 139.2)" opacity=".85"/><rect x="85.9" y="121.3" width="5.2" height="9.2" rx="2" fill="#7c868f" transform="rotate(247 88.5 125.9)" opacity=".85"/><rect x="81.8" y="106.2" width="5.2" height="9.2" rx="2" fill="#7c868f" transform="rotate(263 84.4 110.8)" opacity=".85"/><rect x="82.1" y="90.6" width="5.2" height="9.2" rx="2" fill="#7c868f" transform="rotate(279 84.7 95.2)" opacity=".85"/><rect x="86.6" y="75.7" width="5.2" height="9.2" rx="2" fill="#7c868f" transform="rotate(295 89.2 80.3)" opacity=".85"/><rect x="95.1" y="62.7" width="5.2" height="9.2" rx="2" fill="#7c868f" transform="rotate(311 97.7 67.3)" opacity=".85"/><rect x="106.9" y="52.4" width="5.2" height="9.2" rx="2" fill="#7c868f" transform="rotate(327 109.5 57.0)" opacity=".85"/><rect x="121.0" y="45.8" width="5.2" height="9.2" rx="2" fill="#7c868f" transform="rotate(343 123.6 50.4)" opacity=".85"/><rect x="136.4" y="43.4" width="5.2" height="9.2" rx="2" fill="#7c868f" transform="rotate(359 139.0 48.0)" opacity=".85"/><rect x="151.9" y="45.3" width="5.2" height="9.2" rx="2" fill="#7c868f" transform="rotate(375 154.5 49.9)" opacity=".85"/><rect x="166.2" y="51.4" width="5.2" height="9.2" rx="2" fill="#7c868f" transform="rotate(391 168.8 56.0)" opacity=".85"/><rect x="178.4" y="61.2" width="5.2" height="9.2" rx="2" fill="#7c868f" transform="rotate(407 181.0 65.8)" opacity=".85"/><rect x="187.3" y="74.0" width="5.2" height="9.2" rx="2" fill="#7c868f" transform="rotate(423 189.9 78.6)" opacity=".85"/><rect x="192.4" y="88.7" width="5.2" height="9.2" rx="2" fill="#7c868f" transform="rotate(439 195.0 93.3)" opacity=".85"/><rect x="193.2" y="104.3" width="5.2" height="9.2" rx="2" fill="#7c868f" transform="rotate(455 195.8 108.9)" opacity=".85"/><rect x="189.7" y="119.5" width="5.2" height="9.2" rx="2" fill="#7c868f" transform="rotate(471 192.3 124.1)" opacity=".85"/><rect x="182.1" y="133.1" width="5.2" height="9.2" rx="2" fill="#7c868f" transform="rotate(487 184.7 137.7)" opacity=".85"/><rect x="171.1" y="144.1" width="5.2" height="9.2" rx="2" fill="#7c868f" transform="rotate(503 173.7 148.7)" opacity=".85"/><g transform="rotate(-24 140 48)"><rect x="112" y="34" width="56" height="26" rx="6" fill="#c3ccd3" stroke="#525c66" stroke-width="1"/><rect x="112" y="39" width="56" height="6" fill="#fff" opacity=".55"/><rect x="162" y="38" width="26" height="18" rx="3" fill="url(#band)" stroke="#525c66" stroke-width="1"/><line x1="166" y1="38" x2="166" y2="56" stroke="#525c66" stroke-width="1.2"/><line x1="170" y1="38" x2="170" y2="56" stroke="#525c66" stroke-width="1.2"/><line x1="174" y1="38" x2="174" y2="56" stroke="#525c66" stroke-width="1.2"/><line x1="178" y1="38" x2="178" y2="56" stroke="#525c66" stroke-width="1.2"/><line x1="182" y1="38" x2="182" y2="56" stroke="#525c66" stroke-width="1.2"/><rect x="186" y="41" width="7" height="12" fill="#f2f6f8" stroke="#525c66" stroke-width="1"/></g></svg>