<svg xmlns="http://www.w3.org/2000/svg" viewBox="0 0 280 200" width="280" height="200" role="img"><defs><radialGradient id="bg" cx=".5" cy=".42" r=".95"><stop offset="0" stop-color="#FAFBFC"/><stop offset=".55" stop-color="#EDEFF1"/><stop offset="1" stop-color="#D6DADE"/></radialGradient><radialGradient id="shdw" cx=".5" cy=".5" r=".5"><stop offset="0" stop-color="#0c1116" stop-opacity=".38"/><stop offset=".65" stop-color="#0c1116" stop-opacity=".16"/><stop offset="1" stop-color="#0c1116" stop-opacity="0"/></radialGradient><filter id="soft" x="-20%" y="-20%" width="140%" height="140%"><feGaussianBlur stdDeviation="1.1"/></filter><linearGradient id="b" x1="0" y1="0" x2="0" y2="1"><stop offset="0" stop-color="#7a5a1d"/><stop offset=".16" stop-color="#c2933a"/><stop offset=".32" stop-color="#ecc56a"/><stop offset=".42" stop-color="#fbe7a8"/><stop offset=".58" stop-color="#d2a347"/><stop offset=".82" stop-color="#8d6a23"/><stop offset="1" stop-color="#5f4716"/></linearGradient></defs><rect width="280" height="200" fill="url(#bg)"/><ellipse cx="140" cy="158" rx="86" ry="7" fill="url(#shdw)"/><rect x="56" y="70" width="84" height="60" rx="4" fill="url(#b)" stroke="#5f4716" stroke-width="1"/><line x1="60" y1="70" x2="68" y2="130" stroke="#8d6a23" stroke-width="1.4" opacity=".85"/><line x1="68" y1="70" x2="60" y2="130" stroke="#8d6a23" stroke-width="1.4" opacity=".85"/><line x1="68" y1="70" x2="76" y2="130" stroke="#8d6a23" stroke-width="1.4" opacity=".85"/><line x1="76" y1="70" x2="68" y2="130" stroke="#8d6a23" stroke-width="1.4" opacity=".85"/><line x1="76" y1="70" x2="84" y2="130" stroke="#8d6a23" stroke-width="1.4" opacity=".85"/><line x1="84" y1="70" x2="76" y2="130" stroke="#8d6a23" stroke-width="1.4" opacity=".85"/><line x1="84" y1="70" x2="92" y2="130" stroke="#8d6a23" stroke-width="1.4" opacity=".85"/><line x1="92" y1="70" x2="84" y2="130" stroke="#8d6a23" stroke-width="1.4" opacity=".85"/><line x1="92" y1="70" x2="100" y2="130" stroke="#8d6a23" stroke-width="1.4" opacity=".85"/><line x1="100" y1="70" x2="92" y2="130" stroke="#8d6a23" stroke-width="1.4" opacity=".85"/><line x1="100" y1="70" x2="108" y2="130" stroke="#8d6a23" stroke-width="1.4" opacity=".85"/><line x1="108" y1="70" x2="100" y2="130" stroke="#8d6a23" stroke-width="1.4" opacity=".85"/><line x1="108" y1="70" x2="116" y2="130" stroke="#8d6a23" stroke-width="1.4" opacity=".85"/><line x1="116" y1="70" x2="108" y2="130" stroke="#8d6a23" stroke-width="1.4" opacity=".85"/><line x1="116" y1="70" x2="124" y2="130" stroke="#8d6a23" stroke-width="1.4" opacity=".85"/><line x1="124" y1="70" x2="116" y2="130" stroke="#8d6a23" stroke-width="1.4" opacity=".85"/><line x1="124" y1="70" x2="132" y2="130" stroke="#8d6a23" stroke-width="1.4" opacity=".85"/><line x1="132" y1="70" x2="124" y2="130" stroke="#8d6a23" stroke-width="1.4" opacity=".85"/><line x1="132" y1="70" x2="140" y2="130" stroke="#8d6a23" stroke-width="1.4" opacity=".85"/><line x1="140" y1="70" x2="132" y2="130" stroke="#8d6a23" stroke-width="1.4" opacity=".85"/><rect x="56" y="88" width="84" height="7" fill="#fff" opacity=".45"/><rect x="140" y="70" width="84" height="60" fill="#fff" stroke="#5f4716" stroke-width="1.2"/><rect x="140" y="70" width="84" height="13" fill="#ecc56a" stroke="#5f4716" stroke-width=".8"/><rect x="140" y="117" width="84" height="13" fill="#ecc56a" stroke="#5f4716" stroke-width=".8"/><path d="M146 83 l4.5 7 l-4.5 0 Z" fill="#d2a347"/><path d="M146 117 l4.5 -7 l-4.5 0 Z" fill="#d2a347"/><path d="M155 83 l4.5 7 l-4.5 0 Z" fill="#d2a347"/><path d="M155 117 l4.5 -7 l-4.5 0 Z" fill="#d2a347"/><path d="M164 83 l4.5 7 l-4.5 0 Z" fill="#d2a347"/><path d="M164 117 l4.5 -7 l-4.5 0 Z" fill="#d2a347"/><path d="M173 83 l4.5 7 l-4.5 0 Z" fill="#d2a347"/><path d="M173 117 l4.5 -7 l-4.5 0 Z" fill="#d2a347"/><path d="M182 83 l4.5 7 l-4.5 0 Z" fill="#d2a347"/><path d="M182 117 l4.5 -7 l-4.5 0 Z" fill="#d2a347"/><path d="M191 83 l4.5 7 l-4.5 0 Z" fill="#d2a347"/><path d="M191 117 l4.5 -7 l-4.5 0 Z" fill="#d2a347"/><path d="M200 83 l4.5 7 l-4.5 0 Z" fill="#d2a347"/><path d="M200 117 l4.5 -7 l-4.5 0 Z" fill="#d2a347"/><path d="M209 83 l4.5 7 l-4.5 0 Z" fill="#d2a347"/><path d="M209 117 l4.5 -7 l-4.5 0 Z" fill="#d2a347"/><path d="M218 83 l4.5 7 l-4.5 0 Z" fill="#d2a347"/><path d="M218 117 l4.5 -7 l-4.5 0 Z" fill="#d2a347"/><g stroke="#8d6a23" stroke-width=".7" opacity=".8"><line x1="142" y1="70" x2="136" y2="83"/><line x1="148" y1="70" x2="142" y2="83"/><line x1="154" y1="70" x2="148" y2="83"/><line x1="160" y1="70" x2="154" y2="83"/><line x1="166" y1="70" x2="160" y2="83"/><line x1="172" y1="70" x2="166" y2="83"/><line x1="178" y1="70" x2="172" y2="83"/><line x1="184" y1="70" x2="178" y2="83"/><line x1="190" y1="70" x2="184" y2="83"/><line x1="196" y1="70" x2="190" y2="83"/><line x1="202" y1="70" x2="196" y2="83"/><line x1="208" y1="70" x2="202" y2="83"/><line x1="214" y1="70" x2="208" y2="83"/><line x1="220" y1="70" x2="214" y2="83"/><line x1="226" y1="70" x2="220" y2="83"/><line x1="142" y1="117" x2="136" y2="130"/><line x1="148" y1="117" x2="142" y2="130"/><line x1="154" y1="117" x2="148" y2="130"/><line x1="160" y1="117" x2="154" y2="130"/><line x1="166" y1="117" x2="160" y2="130"/><line x1="172" y1="117" x2="166" y2="130"/><line x1="178" y1="117" x2="172" y2="130"/><line x1="184" y1="117" x2="178" y2="130"/><line x1="190" y1="117" x2="184" y2="130"/><line x1="196" y1="117" x2="190" y2="130"/><line x1="202" y1="117" x2="196" y2="130"/><line x1="208" y1="117" x2="202" y2="130"/><line x1="214" y1="117" x2="208" y2="130"/><line x1="220" y1="117" x2="214" y2="130"/><line x1="226" y1="117" x2="220" y2="130"/></g><line x1="140" y1="62" x2="140" y2="138" stroke="#1B2430" stroke-width="1" stroke-dasharray="8 3 2 3"/></svg>