<svg xmlns="http://www.w3.org/2000/svg" viewBox="0 0 280 200" width="280" height="200" role="img"><defs><radialGradient id="bg" cx=".5" cy=".42" r=".95"><stop offset="0" stop-color="#FAFBFC"/><stop offset=".55" stop-color="#EDEFF1"/><stop offset="1" stop-color="#D6DADE"/></radialGradient><radialGradient id="shdw" cx=".5" cy=".5" r=".5"><stop offset="0" stop-color="#0c1116" stop-opacity=".38"/><stop offset=".65" stop-color="#0c1116" stop-opacity=".16"/><stop offset="1" stop-color="#0c1116" stop-opacity="0"/></radialGradient><filter id="soft" x="-20%" y="-20%" width="140%" height="140%"><feGaussianBlur stdDeviation="1.1"/></filter><linearGradient id="hd" x1="0" y1="0" x2="0" y2="1"><stop offset="0" stop-color="#6e7a86"/><stop offset=".16" stop-color="#b4c0cb"/><stop offset=".32" stop-color="#eef3f7"/><stop offset=".42" stop-color="#fbfdff"/><stop offset=".58" stop-color="#c9d3dc"/><stop offset=".82" stop-color="#86919c"/><stop offset="1" stop-color="#5a6570"/></linearGradient><linearGradient id="sh" x1="0" y1="0" x2="0" y2="1"><stop offset="0" stop-color="#6e7a86"/><stop offset=".16" stop-color="#b4c0cb"/><stop offset=".32" stop-color="#eef3f7"/><stop offset=".42" stop-color="#fbfdff"/><stop offset=".58" stop-color="#c9d3dc"/><stop offset=".82" stop-color="#86919c"/><stop offset="1" stop-color="#5a6570"/></linearGradient><radialGradient id="hf" cx=".38" cy=".34" r=".85"><stop offset="0" stop-color="#fbfdff"/><stop offset=".45" stop-color="#eef3f7"/><stop offset=".75" stop-color="#c9d3dc"/><stop offset="1" stop-color="#5a6570"/></radialGradient></defs><rect width="280" height="200" fill="url(#bg)"/><ellipse cx="140.0" cy="153.0" rx="100.80000000000001" ry="7" fill="url(#shdw)"/><rect x="80.0" y="78.0" width="77.0" height="44" rx="2" fill="url(#sh)"/><rect x="80.0" y="85.92" width="77.0" height="7.04" fill="#ffffff" opacity=".55" filter="url(#soft)"/><path d="M155.0 122.0 L158.2 78.0 L162.5 78.0 L159.3 122.0 Z" fill="#eef3f7"/><line x1="155.0" y1="122.0" x2="158.2" y2="78.0" stroke="#5a6570" stroke-width="1.1" opacity=".8"/><path d="M162.0 122.0 L165.2 78.0 L169.5 78.0 L166.3 122.0 Z" fill="#b4c0cb"/><line x1="162.0" y1="122.0" x2="165.2" y2="78.0" stroke="#5a6570" stroke-width="1.1" opacity=".8"/><path d="M169.0 122.0 L172.2 78.0 L176.5 78.0 L173.3 122.0 Z" fill="#eef3f7"/><line x1="169.0" y1="122.0" x2="172.2" y2="78.0" stroke="#5a6570" stroke-width="1.1" opacity=".8"/><path d="M176.0 122.0 L179.2 78.0 L183.5 78.0 L180.3 122.0 Z" fill="#b4c0cb"/><line x1="176.0" y1="122.0" x2="179.2" y2="78.0" stroke="#5a6570" stroke-width="1.1" opacity=".8"/><path d="M183.0 122.0 L186.2 78.0 L190.5 78.0 L187.3 122.0 Z" fill="#eef3f7"/><line x1="183.0" y1="122.0" x2="186.2" y2="78.0" stroke="#5a6570" stroke-width="1.1" opacity=".8"/><path d="M190.0 122.0 L193.2 78.0 L197.5 78.0 L194.3 122.0 Z" fill="#b4c0cb"/><line x1="190.0" y1="122.0" x2="193.2" y2="78.0" stroke="#5a6570" stroke-width="1.1" opacity=".8"/><path d="M197.0 122.0 L200.2 78.0 L204.5 78.0 L201.3 122.0 Z" fill="#eef3f7"/><line x1="197.0" y1="122.0" x2="200.2" y2="78.0" stroke="#5a6570" stroke-width="1.1" opacity=".8"/><path d="M204.0 122.0 L207.2 78.0 L211.5 78.0 L208.3 122.0 Z" fill="#b4c0cb"/><line x1="204.0" y1="122.0" x2="207.2" y2="78.0" stroke="#5a6570" stroke-width="1.1" opacity=".8"/><path d="M211.0 122.0 L214.2 78.0 L218.5 78.0 L215.3 122.0 Z" fill="#eef3f7"/><line x1="211.0" y1="122.0" x2="214.2" y2="78.0" stroke="#5a6570" stroke-width="1.1" opacity=".8"/><rect x="155.0" y="85.04" width="63" height="7.48" fill="#ffffff" opacity=".5" filter="url(#soft)"/><rect x="155.0" y="112.32" width="63" height="9.68" fill="#5a6570" opacity=".35" filter="url(#soft)"/><path d="M218.0 78.0 L225.0 87.68 L225.0 112.32 L218.0 122.0 Z" fill="#c9d3dc"/><path d="M218.0 78.0 L225.0 87.68 L225.0 100 L218.0 100 Z" fill="#eef3f7" opacity=".7"/><rect x="50.0" y="61.0" width="30" height="78" fill="url(#hd)"/><path d="M50.0 61.0 L50.0 82.06 L56.6 61.0 Z" fill="#b4c0cb"/><path d="M50.0 139.0 L50.0 117.94 L56.6 139.0 Z" fill="#86919c"/><line x1="50.0" y1="82.06" x2="80.0" y2="82.06" stroke="#86919c" stroke-width="1" opacity=".7"/><line x1="50.0" y1="117.94" x2="80.0" y2="117.94" stroke="#5a6570" stroke-width="1" opacity=".7"/><rect x="50.0" y="82.06" width="30" height="15.600000000000001" fill="#ffffff" opacity=".4" filter="url(#soft)"/><rect x="78.4" y="61.0" width="1.6" height="78" fill="#5a6570" opacity=".6"/></svg>