<svg xmlns="http://www.w3.org/2000/svg" viewBox="0 0 280 200" width="280" height="200" role="img"><defs><radialGradient id="bg" cx=".5" cy=".42" r=".95"><stop offset="0" stop-color="#FAFBFC"/><stop offset=".55" stop-color="#EDEFF1"/><stop offset="1" stop-color="#D6DADE"/></radialGradient><radialGradient id="shdw" cx=".5" cy=".5" r=".5"><stop offset="0" stop-color="#0c1116" stop-opacity=".38"/><stop offset=".65" stop-color="#0c1116" stop-opacity=".16"/><stop offset="1" stop-color="#0c1116" stop-opacity="0"/></radialGradient><filter id="soft" x="-20%" y="-20%" width="140%" height="140%"><feGaussianBlur stdDeviation="1.1"/></filter><linearGradient id="pl" x1="0" y1="0" x2="0" y2="1"><stop offset="0" stop-color="#6e7a86"/><stop offset=".16" stop-color="#b4c0cb"/><stop offset=".32" stop-color="#eef3f7"/><stop offset=".42" stop-color="#fbfdff"/><stop offset=".58" stop-color="#c9d3dc"/><stop offset=".82" stop-color="#86919c"/><stop offset="1" stop-color="#5a6570"/></linearGradient></defs><rect width="280" height="200" fill="url(#bg)"/><ellipse cx="140" cy="166" rx="104" ry="7" fill="url(#shdw)"/><path d="M40 120 L120 84 L240 112 L160 150 Z" fill="url(#pl)" stroke="#5a6570" stroke-width="1.2"/><path d="M40 120 L40 92 L120 56 L120 84 Z" fill="#eef3f7" stroke="#5a6570" stroke-width="1.2"/><path d="M240 112 L240 84 L160 122 L160 150 Z" fill="#86919c" stroke="#5a6570" stroke-width="1.2"/><path d="M120 56 L240 84 L240 112 L120 84 Z" fill="#c9d3dc" stroke="#5a6570" stroke-width="1.2"/><ellipse cx="78" cy="108" rx="8.5" ry="4.6" fill="#14181c"/><ellipse cx="140" cy="122" rx="8.5" ry="4.6" fill="#14181c"/><ellipse cx="200" cy="130" rx="8.5" ry="4.6" fill="#14181c"/><circle cx="78" cy="80" r="6" fill="#14181c"/><circle cx="180" cy="100" r="6" fill="#14181c"/></svg>