<svg xmlns="http://www.w3.org/2000/svg" viewBox="0 0 280 200" width="280" height="200" role="img"><defs><radialGradient id="bg" cx=".5" cy=".42" r=".95"><stop offset="0" stop-color="#FAFBFC"/><stop offset=".55" stop-color="#EDEFF1"/><stop offset="1" stop-color="#D6DADE"/></radialGradient><radialGradient id="shdw" cx=".5" cy=".5" r=".5"><stop offset="0" stop-color="#0c1116" stop-opacity=".38"/><stop offset=".65" stop-color="#0c1116" stop-opacity=".16"/><stop offset="1" stop-color="#0c1116" stop-opacity="0"/></radialGradient><filter id="soft" x="-20%" y="-20%" width="140%" height="140%"><feGaussianBlur stdDeviation="1.1"/></filter><linearGradient id="hd" x1="0" y1="0" x2="0" y2="1"><stop offset="0" stop-color="#65707a"/><stop offset=".16" stop-color="#aeb9c2"/><stop offset=".32" stop-color="#f2f6f8"/><stop offset=".42" stop-color="#ffffff"/><stop offset=".58" stop-color="#c3ccd3"/><stop offset=".82" stop-color="#7c868f"/><stop offset="1" stop-color="#525c66"/></linearGradient><linearGradient id="sh" x1="0" y1="0" x2="0" y2="1"><stop offset="0" stop-color="#65707a"/><stop offset=".16" stop-color="#aeb9c2"/><stop offset=".32" stop-color="#f2f6f8"/><stop offset=".42" stop-color="#ffffff"/><stop offset=".58" stop-color="#c3ccd3"/><stop offset=".82" stop-color="#7c868f"/><stop offset="1" stop-color="#525c66"/></linearGradient></defs><rect width="280" height="200" fill="url(#bg)"/><ellipse cx="140.0" cy="160" rx="118" ry="6" fill="url(#shdw)"/><g transform="rotate(-17 140 100)"><rect x="36" y="92.5" width="90" height="15" rx="2" fill="url(#sh)"/><rect x="36" y="95.2" width="90" height="2.4" fill="#ffffff" opacity=".55" filter="url(#soft)"/><path d="M126.0 107.5 L128.7 92.5 L132.4 92.5 L129.7 107.5 Z" fill="#f2f6f8"/><line x1="126.0" y1="107.5" x2="128.7" y2="92.5" stroke="#525c66" stroke-width="1.1" opacity=".8"/><path d="M132.0 107.5 L134.7 92.5 L138.4 92.5 L135.7 107.5 Z" fill="#aeb9c2"/><line x1="132.0" y1="107.5" x2="134.7" y2="92.5" stroke="#525c66" stroke-width="1.1" opacity=".8"/><path d="M138.0 107.5 L140.7 92.5 L144.4 92.5 L141.7 107.5 Z" fill="#f2f6f8"/><line x1="138.0" y1="107.5" x2="140.7" y2="92.5" stroke="#525c66" stroke-width="1.1" opacity=".8"/><path d="M144.0 107.5 L146.7 92.5 L150.4 92.5 L147.7 107.5 Z" fill="#aeb9c2"/><line x1="144.0" y1="107.5" x2="146.7" y2="92.5" stroke="#525c66" stroke-width="1.1" opacity=".8"/><path d="M150.0 107.5 L152.7 92.5 L156.4 92.5 L153.7 107.5 Z" fill="#f2f6f8"/><line x1="150.0" y1="107.5" x2="152.7" y2="92.5" stroke="#525c66" stroke-width="1.1" opacity=".8"/><path d="M156.0 107.5 L158.7 92.5 L162.4 92.5 L159.7 107.5 Z" fill="#aeb9c2"/><line x1="156.0" y1="107.5" x2="158.7" y2="92.5" stroke="#525c66" stroke-width="1.1" opacity=".8"/><path d="M162.0 107.5 L164.7 92.5 L168.4 92.5 L165.7 107.5 Z" fill="#f2f6f8"/><line x1="162.0" y1="107.5" x2="164.7" y2="92.5" stroke="#525c66" stroke-width="1.1" opacity=".8"/><path d="M168.0 107.5 L170.7 92.5 L174.4 92.5 L171.7 107.5 Z" fill="#aeb9c2"/><line x1="168.0" y1="107.5" x2="170.7" y2="92.5" stroke="#525c66" stroke-width="1.1" opacity=".8"/><path d="M174.0 107.5 L176.7 92.5 L180.4 92.5 L177.7 107.5 Z" fill="#f2f6f8"/><line x1="174.0" y1="107.5" x2="176.7" y2="92.5" stroke="#525c66" stroke-width="1.1" opacity=".8"/><path d="M180.0 107.5 L182.7 92.5 L186.4 92.5 L183.7 107.5 Z" fill="#aeb9c2"/><line x1="180.0" y1="107.5" x2="182.7" y2="92.5" stroke="#525c66" stroke-width="1.1" opacity=".8"/><path d="M186.0 107.5 L188.7 92.5 L192.4 92.5 L189.7 107.5 Z" fill="#f2f6f8"/><line x1="186.0" y1="107.5" x2="188.7" y2="92.5" stroke="#525c66" stroke-width="1.1" opacity=".8"/><path d="M192.0 107.5 L194.7 92.5 L198.4 92.5 L195.7 107.5 Z" fill="#aeb9c2"/><line x1="192.0" y1="107.5" x2="194.7" y2="92.5" stroke="#525c66" stroke-width="1.1" opacity=".8"/><path d="M198.0 107.5 L200.7 92.5 L204.4 92.5 L201.7 107.5 Z" fill="#f2f6f8"/><line x1="198.0" y1="107.5" x2="200.7" y2="92.5" stroke="#525c66" stroke-width="1.1" opacity=".8"/><path d="M204.0 107.5 L206.7 92.5 L210.4 92.5 L207.7 107.5 Z" fill="#aeb9c2"/><line x1="204.0" y1="107.5" x2="206.7" y2="92.5" stroke="#525c66" stroke-width="1.1" opacity=".8"/><path d="M210.0 107.5 L212.7 92.5 L216.4 92.5 L213.7 107.5 Z" fill="#f2f6f8"/><line x1="210.0" y1="107.5" x2="212.7" y2="92.5" stroke="#525c66" stroke-width="1.1" opacity=".8"/><path d="M216.0 107.5 L218.7 92.5 L222.4 92.5 L219.7 107.5 Z" fill="#aeb9c2"/><line x1="216.0" y1="107.5" x2="218.7" y2="92.5" stroke="#525c66" stroke-width="1.1" opacity=".8"/><path d="M222.0 107.5 L224.7 92.5 L228.4 92.5 L225.7 107.5 Z" fill="#f2f6f8"/><line x1="222.0" y1="107.5" x2="224.7" y2="92.5" stroke="#525c66" stroke-width="1.1" opacity=".8"/><path d="M228.0 107.5 L230.7 92.5 L234.4 92.5 L231.7 107.5 Z" fill="#aeb9c2"/><line x1="228.0" y1="107.5" x2="230.7" y2="92.5" stroke="#525c66" stroke-width="1.1" opacity=".8"/><path d="M234.0 107.5 L236.7 92.5 L240.4 92.5 L237.7 107.5 Z" fill="#f2f6f8"/><line x1="234.0" y1="107.5" x2="236.7" y2="92.5" stroke="#525c66" stroke-width="1.1" opacity=".8"/><rect x="126" y="94.9" width="114" height="2.5500000000000003" fill="#ffffff" opacity=".5" filter="url(#soft)"/><rect x="126" y="104.2" width="114" height="3.3" fill="#525c66" opacity=".35" filter="url(#soft)"/><path d="M242 92.5 L249 95.8 L249 104.2 L242 107.5 Z" fill="#c3ccd3"/><path d="M242 92.5 L249 95.8 L249 100 L242 100 Z" fill="#f2f6f8" opacity=".7"/><path d="M36 87.0 L36 113.0 L30.5 113.0 Q23.5 100 30.5 87.0 Z" fill="url(#hd)"/><path d="M31.0 91.16 Q26.5 100 31.0 105.2" stroke="#ffffff" stroke-width="2.4" fill="none" opacity=".6" filter="url(#soft)"/><rect x="34.5" y="87.0" width="1.5" height="26" fill="#525c66" opacity=".55"/></g></svg>