<svg xmlns="http://www.w3.org/2000/svg" viewBox="0 0 280 200" width="280" height="200" role="img"><defs><radialGradient id="bg" cx=".5" cy=".42" r=".95"><stop offset="0" stop-color="#FAFBFC"/><stop offset=".55" stop-color="#EDEFF1"/><stop offset="1" stop-color="#D6DADE"/></radialGradient><radialGradient id="shdw" cx=".5" cy=".5" r=".5"><stop offset="0" stop-color="#0c1116" stop-opacity=".38"/><stop offset=".65" stop-color="#0c1116" stop-opacity=".16"/><stop offset="1" stop-color="#0c1116" stop-opacity="0"/></radialGradient><filter id="soft" x="-20%" y="-20%" width="140%" height="140%"><feGaussianBlur stdDeviation="1.1"/></filter></defs><rect width="280" height="200" fill="url(#bg)"/><ellipse cx="140" cy="156" rx="80" ry="7" fill="url(#shdw)"/><ellipse cx="140" cy="70" rx="34" ry="13" fill="#ded5bb"/><rect x="106" y="70" width="68" height="16" fill="#f4eeda"/><ellipse cx="140" cy="86" rx="34" ry="13" fill="#fcf8ea" opacity="0"/><ellipse cx="140" cy="70" rx="34" ry="13" fill="#fcf8ea"/><ellipse cx="140" cy="70" rx="16" ry="6.2" fill="#2a241a"/><g transform="translate(0 30)"><polygon points="164.0,43.2 188.0,64.0 188.0,110.0 164.0,89.2" fill="#f2f6f8"/><polygon points="188.0,64.0 164.0,84.8 164.0,130.8 188.0,110.0" fill="#c3ccd3"/><polygon points="164.0,84.8 116.0,84.8 116.0,130.8 164.0,130.8" fill="#7c868f"/><polygon points="188.0,64.0 164.0,84.8 116.0,84.8 92.0,64.0 116.0,43.2 164.0,43.2" fill="url(#nt)" stroke="#7c868f" stroke-width=".6"/></g><rect x="108" y="62" width="64" height="20" fill="#f4eeda"/><rect x="108" y="66" width="64" height="4" fill="#fff" opacity=".6"/><ellipse cx="140" cy="62" rx="32" ry="12" fill="#fcf8ea"/><ellipse cx="140" cy="62" rx="15" ry="5.6" fill="#26211a"/><ellipse cx="140" cy="62" rx="13" ry="4.8" fill="none" stroke="#b7ad93" stroke-width="1"/><ellipse cx="140" cy="82" rx="32" ry="12" fill="#ded5bb" opacity="0"/></svg>