<svg xmlns="http://www.w3.org/2000/svg" viewBox="0 0 280 200" width="280" height="200" role="img"><defs><radialGradient id="bg" cx=".5" cy=".42" r=".95"><stop offset="0" stop-color="#FAFBFC"/><stop offset=".55" stop-color="#EDEFF1"/><stop offset="1" stop-color="#D6DADE"/></radialGradient><radialGradient id="shdw" cx=".5" cy=".5" r=".5"><stop offset="0" stop-color="#0c1116" stop-opacity=".38"/><stop offset=".65" stop-color="#0c1116" stop-opacity=".16"/><stop offset="1" stop-color="#0c1116" stop-opacity="0"/></radialGradient><filter id="soft" x="-20%" y="-20%" width="140%" height="140%"><feGaussianBlur stdDeviation="1.1"/></filter><linearGradient id="hd" x1="0" y1="0" x2="0" y2="1"><stop offset="0" stop-color="#6e7a86"/><stop offset=".16" stop-color="#b4c0cb"/><stop offset=".32" stop-color="#eef3f7"/><stop offset=".42" stop-color="#fbfdff"/><stop offset=".58" stop-color="#c9d3dc"/><stop offset=".82" stop-color="#86919c"/><stop offset="1" stop-color="#5a6570"/></linearGradient><linearGradient id="sh" x1="0" y1="0" x2="0" y2="1"><stop offset="0" stop-color="#6e7a86"/><stop offset=".16" stop-color="#b4c0cb"/><stop offset=".32" stop-color="#eef3f7"/><stop offset=".42" stop-color="#fbfdff"/><stop offset=".58" stop-color="#c9d3dc"/><stop offset=".82" stop-color="#86919c"/><stop offset="1" stop-color="#5a6570"/></linearGradient><radialGradient id="hf" cx=".38" cy=".34" r=".85"><stop offset="0" stop-color="#fbfdff"/><stop offset=".45" stop-color="#eef3f7"/><stop offset=".75" stop-color="#c9d3dc"/><stop offset="1" stop-color="#5a6570"/></radialGradient></defs><rect width="280" height="200" fill="url(#bg)"/><ellipse cx="140.0" cy="137.0" rx="98.56" ry="7" fill="url(#shdw)"/><rect x="70.0" y="88.0" width="49.400000000000006" height="24" rx="2" fill="url(#sh)"/><rect x="70.0" y="92.32" width="49.400000000000006" height="3.84" fill="#ffffff" opacity=".55" filter="url(#soft)"/><path d="M117.4 112.0 L120.6 88.0 L124.9 88.0 L121.7 112.0 Z" fill="#eef3f7"/><line x1="117.4" y1="112.0" x2="120.6" y2="88.0" stroke="#5a6570" stroke-width="1.1" opacity=".8"/><path d="M124.4 112.0 L127.6 88.0 L131.9 88.0 L128.7 112.0 Z" fill="#b4c0cb"/><line x1="124.4" y1="112.0" x2="127.6" y2="88.0" stroke="#5a6570" stroke-width="1.1" opacity=".8"/><path d="M131.4 112.0 L134.6 88.0 L138.9 88.0 L135.7 112.0 Z" fill="#eef3f7"/><line x1="131.4" y1="112.0" x2="134.6" y2="88.0" stroke="#5a6570" stroke-width="1.1" opacity=".8"/><path d="M138.4 112.0 L141.6 88.0 L145.9 88.0 L142.7 112.0 Z" fill="#b4c0cb"/><line x1="138.4" y1="112.0" x2="141.6" y2="88.0" stroke="#5a6570" stroke-width="1.1" opacity=".8"/><path d="M145.4 112.0 L148.6 88.0 L152.9 88.0 L149.7 112.0 Z" fill="#eef3f7"/><line x1="145.4" y1="112.0" x2="148.6" y2="88.0" stroke="#5a6570" stroke-width="1.1" opacity=".8"/><path d="M152.4 112.0 L155.6 88.0 L159.9 88.0 L156.7 112.0 Z" fill="#b4c0cb"/><line x1="152.4" y1="112.0" x2="155.6" y2="88.0" stroke="#5a6570" stroke-width="1.1" opacity=".8"/><path d="M159.4 112.0 L162.6 88.0 L166.9 88.0 L163.7 112.0 Z" fill="#eef3f7"/><line x1="159.4" y1="112.0" x2="162.6" y2="88.0" stroke="#5a6570" stroke-width="1.1" opacity=".8"/><path d="M166.4 112.0 L169.6 88.0 L173.9 88.0 L170.7 112.0 Z" fill="#b4c0cb"/><line x1="166.4" y1="112.0" x2="169.6" y2="88.0" stroke="#5a6570" stroke-width="1.1" opacity=".8"/><path d="M173.4 112.0 L176.6 88.0 L180.9 88.0 L177.7 112.0 Z" fill="#eef3f7"/><line x1="173.4" y1="112.0" x2="176.6" y2="88.0" stroke="#5a6570" stroke-width="1.1" opacity=".8"/><path d="M180.4 112.0 L183.6 88.0 L187.9 88.0 L184.7 112.0 Z" fill="#b4c0cb"/><line x1="180.4" y1="112.0" x2="183.6" y2="88.0" stroke="#5a6570" stroke-width="1.1" opacity=".8"/><path d="M187.4 112.0 L190.6 88.0 L194.9 88.0 L191.7 112.0 Z" fill="#eef3f7"/><line x1="187.4" y1="112.0" x2="190.6" y2="88.0" stroke="#5a6570" stroke-width="1.1" opacity=".8"/><path d="M194.4 112.0 L197.6 88.0 L201.9 88.0 L198.7 112.0 Z" fill="#b4c0cb"/><line x1="194.4" y1="112.0" x2="197.6" y2="88.0" stroke="#5a6570" stroke-width="1.1" opacity=".8"/><path d="M201.4 112.0 L204.6 88.0 L208.9 88.0 L205.7 112.0 Z" fill="#eef3f7"/><line x1="201.4" y1="112.0" x2="204.6" y2="88.0" stroke="#5a6570" stroke-width="1.1" opacity=".8"/><path d="M208.4 112.0 L211.6 88.0 L215.9 88.0 L212.7 112.0 Z" fill="#b4c0cb"/><line x1="208.4" y1="112.0" x2="211.6" y2="88.0" stroke="#5a6570" stroke-width="1.1" opacity=".8"/><rect x="117.4" y="91.84" width="98" height="4.08" fill="#ffffff" opacity=".5" filter="url(#soft)"/><rect x="117.4" y="106.72" width="98" height="5.28" fill="#5a6570" opacity=".35" filter="url(#soft)"/><path d="M215.4 88.0 L222.4 93.28 L222.4 106.72 L215.4 112.0 Z" fill="#c9d3dc"/><path d="M215.4 88.0 L222.4 93.28 L222.4 100 L215.4 100 Z" fill="#eef3f7" opacity=".7"/><path d="M70.0 77.0 L70.0 123.0 L60.1 123.0 Q47.5 100 60.1 77.0 Z" fill="url(#hd)"/><path d="M61.0 84.36 Q52.900000000000006 100 61.0 109.2" stroke="#ffffff" stroke-width="2.4" fill="none" opacity=".6" filter="url(#soft)"/><rect x="68.5" y="77.0" width="1.5" height="46" fill="#5a6570" opacity=".55"/><path d="M70.0 77 L70.0 123 L53.0 119 L53.0 81 Z" fill="url(#hd)"/><line x1="61.5" y1="78.8" x2="61.5" y2="121.2" stroke="#5a6570" stroke-width="1.6" opacity=".75"/><rect x="53.0" y="87" width="17" height="8" fill="#fff" opacity=".4"/></svg>