<svg xmlns="http://www.w3.org/2000/svg" viewBox="0 0 280 200" width="280" height="200" role="img"><defs><radialGradient id="bg" cx=".5" cy=".42" r=".95"><stop offset="0" stop-color="#FAFBFC"/><stop offset=".55" stop-color="#EDEFF1"/><stop offset="1" stop-color="#D6DADE"/></radialGradient><radialGradient id="shdw" cx=".5" cy=".5" r=".5"><stop offset="0" stop-color="#0c1116" stop-opacity=".38"/><stop offset=".65" stop-color="#0c1116" stop-opacity=".16"/><stop offset="1" stop-color="#0c1116" stop-opacity="0"/></radialGradient><filter id="soft" x="-20%" y="-20%" width="140%" height="140%"><feGaussianBlur stdDeviation="1.1"/></filter><linearGradient id="body" x1="0" y1="0" x2="1" y2="0"><stop offset="0" stop-color="#65707a"/><stop offset=".2" stop-color="#aeb9c2"/><stop offset=".38" stop-color="#ffffff"/><stop offset=".62" stop-color="#c3ccd3"/><stop offset="1" stop-color="#525c66"/></linearGradient></defs><rect width="280" height="200" fill="url(#bg)"/><ellipse cx="140" cy="168" rx="64" ry="7" fill="url(#shdw)"/><polygon points="98,46 182,46 182,150 98,150" fill="url(#body)"/><line x1="119" y1="46" x2="119" y2="150" stroke="#7c868f" stroke-width="1.2"/><line x1="161" y1="46" x2="161" y2="150" stroke="#525c66" stroke-width="1.2"/><rect x="124" y="46" width="14" height="104" fill="#fff" opacity=".5"/><polygon points="98,46 109,38 171,38 182,46" fill="#f2f6f8"/><ellipse cx="140" cy="40.5" rx="30" ry="7.5" fill="#c3ccd3"/><ellipse cx="140" cy="40.5" rx="21" ry="5.2" fill="#101418"/><ellipse cx="140" cy="46" rx="20.0" ry="5.0" fill="none" stroke="#aeb9c2" stroke-width="1" opacity=".7"/><ellipse cx="140" cy="51" rx="18.4" ry="4.5" fill="none" stroke="#aeb9c2" stroke-width="1" opacity=".7"/><ellipse cx="140" cy="56" rx="16.8" ry="4.0" fill="none" stroke="#aeb9c2" stroke-width="1" opacity=".7"/><ellipse cx="140" cy="61" rx="15.2" ry="3.5" fill="none" stroke="#aeb9c2" stroke-width="1" opacity=".7"/><ellipse cx="140" cy="152" rx="42" ry="9" fill="#525c66" opacity=".5"/></svg>