<svg xmlns="http://www.w3.org/2000/svg" viewBox="0 0 280 200" width="280" height="200" role="img"><defs><radialGradient id="bg" cx=".5" cy=".42" r=".95"><stop offset="0" stop-color="#FAFBFC"/><stop offset=".55" stop-color="#EDEFF1"/><stop offset="1" stop-color="#D6DADE"/></radialGradient><radialGradient id="shdw" cx=".5" cy=".5" r=".5"><stop offset="0" stop-color="#0c1116" stop-opacity=".38"/><stop offset=".65" stop-color="#0c1116" stop-opacity=".16"/><stop offset="1" stop-color="#0c1116" stop-opacity="0"/></radialGradient><filter id="soft" x="-20%" y="-20%" width="140%" height="140%"><feGaussianBlur stdDeviation="1.1"/></filter><radialGradient id="gr" cx=".38" cy=".34" r=".85"><stop offset="0" stop-color="#4a4e53"/><stop offset=".45" stop-color="#3a3d41"/><stop offset=".75" stop-color="#2c2f33"/><stop offset="1" stop-color="#121315"/></radialGradient><linearGradient id="pc" x1="0" y1="0" x2="0" y2="1"><stop offset="0" stop-color="#1f2937"/><stop offset=".16" stop-color="#374151"/><stop offset=".32" stop-color="#56627a"/><stop offset=".42" stop-color="#6b7894"/><stop offset=".58" stop-color="#414d63"/><stop offset=".82" stop-color="#28344a"/><stop offset="1" stop-color="#1a2333"/></linearGradient><radialGradient id="orr" cx=".38" cy=".34" r=".85"><stop offset="0" stop-color="#4a4e53"/><stop offset=".45" stop-color="#3a3d41"/><stop offset=".75" stop-color="#2c2f33"/><stop offset="1" stop-color="#121315"/></radialGradient></defs><rect width="280" height="200" fill="url(#bg)"/><ellipse cx="70" cy="142" rx="44" ry="7" fill="url(#shdw)"/><ellipse cx="152" cy="156" rx="36" ry="7" fill="url(#shdw)"/><ellipse cx="224" cy="140" rx="38" ry="7" fill="url(#shdw)"/><ellipse cx="70" cy="104" rx="40" ry="26" fill="url(#gr)"/><ellipse cx="70" cy="100" rx="40" ry="26" fill="#4a4e53"/><ellipse cx="70" cy="100" rx="26" ry="16" fill="#26282b"/><ellipse cx="70" cy="100" rx="17" ry="10" fill="#0c0d0f"/><path d="M40 88 a40 26 0 0 1 24 -13" stroke="#6b6f75" stroke-width="3" fill="none" opacity=".8" stroke-linecap="round"/><ellipse cx="152" cy="78" rx="22" ry="8" fill="#6b7894"/><ellipse cx="152" cy="75" rx="22" ry="8" fill="#56627a"/><path d="M140 88 L152 79 L164 88 Z" fill="#374151" stroke="#1f2937" stroke-width=".8"/><path d="M140 104 L152 95 L164 104 Z" fill="#56627a" stroke="#1f2937" stroke-width=".8"/><path d="M140 120 L152 111 L164 120 Z" fill="#374151" stroke="#1f2937" stroke-width=".8"/><path d="M140 136 L152 127 L164 136 Z" fill="#56627a" stroke="#1f2937" stroke-width=".8"/><rect x="148" y="84" width="8" height="62" fill="#414d63"/><ellipse cx="224" cy="100" rx="36" ry="23" fill="none" stroke="url(#orr)" stroke-width="11"/><path d="M196 88 a36 23 0 0 1 22 -10" stroke="#777b81" stroke-width="3" fill="none" opacity=".8" stroke-linecap="round"/></svg>