<svg xmlns="http://www.w3.org/2000/svg" viewBox="0 0 280 200" width="280" height="200" role="img"><defs><radialGradient id="bg" cx=".5" cy=".42" r=".95"><stop offset="0" stop-color="#FAFBFC"/><stop offset=".55" stop-color="#EDEFF1"/><stop offset="1" stop-color="#D6DADE"/></radialGradient><radialGradient id="shdw" cx=".5" cy=".5" r=".5"><stop offset="0" stop-color="#0c1116" stop-opacity=".38"/><stop offset=".65" stop-color="#0c1116" stop-opacity=".16"/><stop offset="1" stop-color="#0c1116" stop-opacity="0"/></radialGradient><filter id="soft" x="-20%" y="-20%" width="140%" height="140%"><feGaussianBlur stdDeviation="1.1"/></filter><radialGradient id="m" cx=".38" cy=".34" r=".85"><stop offset="0" stop-color="#fbfdff"/><stop offset=".45" stop-color="#eef3f7"/><stop offset=".75" stop-color="#c9d3dc"/><stop offset="1" stop-color="#5a6570"/></radialGradient></defs><rect width="280" height="200" fill="url(#bg)"/><ellipse cx="104" cy="158" rx="62" ry="7" fill="url(#shdw)"/><circle cx="104" cy="98" r="52" fill="url(#m)" stroke="#5a6570" stroke-width="1.2"/><line x1="119.8" y1="104.4" x2="139.2" y2="112.2" stroke="#5a6570" stroke-width="2.6"/><line x1="110.6" y1="113.6" x2="118.8" y2="133.0" stroke="#5a6570" stroke-width="2.6"/><line x1="97.6" y1="113.8" x2="89.8" y2="133.2" stroke="#5a6570" stroke-width="2.6"/><line x1="88.4" y1="104.6" x2="69.0" y2="112.8" stroke="#5a6570" stroke-width="2.6"/><line x1="88.2" y1="91.6" x2="68.8" y2="83.8" stroke="#5a6570" stroke-width="2.6"/><line x1="97.4" y1="82.4" x2="89.2" y2="63.0" stroke="#5a6570" stroke-width="2.6"/><line x1="110.4" y1="82.2" x2="118.2" y2="62.8" stroke="#5a6570" stroke-width="2.6"/><line x1="119.6" y1="91.4" x2="139.0" y2="83.2" stroke="#5a6570" stroke-width="2.6"/><circle cx="104" cy="98" r="17" fill="#101418"/><circle cx="104" cy="98" r="38" fill="none" stroke="#b4c0cb" stroke-width="2" opacity=".8"/><rect x="216" y="56" width="13" height="96" rx="3" fill="#fbfdff" stroke="#5a6570" stroke-width="1"/><path d="M196 104 L216 96 M252 104 L229 96" stroke="#c9d3dc" stroke-width="5" stroke-linecap="round"/><path d="M192 104 h64" stroke="#eef3f7" stroke-width="4" stroke-linecap="round"/></svg>