<svg xmlns="http://www.w3.org/2000/svg" viewBox="0 0 280 200" width="280" height="200" role="img"><defs><radialGradient id="bg" cx=".5" cy=".42" r=".95"><stop offset="0" stop-color="#FAFBFC"/><stop offset=".55" stop-color="#EDEFF1"/><stop offset="1" stop-color="#D6DADE"/></radialGradient><radialGradient id="shdw" cx=".5" cy=".5" r=".5"><stop offset="0" stop-color="#0c1116" stop-opacity=".38"/><stop offset=".65" stop-color="#0c1116" stop-opacity=".16"/><stop offset="1" stop-color="#0c1116" stop-opacity="0"/></radialGradient><filter id="soft" x="-20%" y="-20%" width="140%" height="140%"><feGaussianBlur stdDeviation="1.1"/></filter><linearGradient id="pl" x1="0" y1="0" x2="0" y2="1"><stop offset="0" stop-color="#15181b"/><stop offset=".16" stop-color="#33383e"/><stop offset=".32" stop-color="#5d646c"/><stop offset=".42" stop-color="#7d858e"/><stop offset=".58" stop-color="#454b52"/><stop offset=".82" stop-color="#23272c"/><stop offset="1" stop-color="#101316"/></linearGradient><radialGradient id="rl" cx=".38" cy=".34" r=".85"><stop offset="0" stop-color="#ffffff"/><stop offset=".45" stop-color="#f2f6f8"/><stop offset=".75" stop-color="#c3ccd3"/><stop offset="1" stop-color="#525c66"/></radialGradient></defs><rect width="280" height="200" fill="url(#bg)"/><ellipse cx="140" cy="148" rx="110" ry="6" fill="url(#shdw)"/><circle cx="52" cy="100" r="15" fill="url(#rl)" stroke="#525c66" stroke-width="1"/><circle cx="52" cy="100" r="5.4" fill="#7c868f"/><circle cx="52" cy="100" r="2.6" fill="#0e1114"/><circle cx="48" cy="95" r="3.4" fill="#fff" opacity=".8" filter="url(#soft)"/><circle cx="96" cy="100" r="15" fill="url(#rl)" stroke="#525c66" stroke-width="1"/><circle cx="96" cy="100" r="5.4" fill="#7c868f"/><circle cx="96" cy="100" r="2.6" fill="#0e1114"/><circle cx="92" cy="95" r="3.4" fill="#fff" opacity=".8" filter="url(#soft)"/><circle cx="140" cy="100" r="15" fill="url(#rl)" stroke="#525c66" stroke-width="1"/><circle cx="140" cy="100" r="5.4" fill="#7c868f"/><circle cx="140" cy="100" r="2.6" fill="#0e1114"/><circle cx="136" cy="95" r="3.4" fill="#fff" opacity=".8" filter="url(#soft)"/><circle cx="184" cy="100" r="15" fill="url(#rl)" stroke="#525c66" stroke-width="1"/><circle cx="184" cy="100" r="5.4" fill="#7c868f"/><circle cx="184" cy="100" r="2.6" fill="#0e1114"/><circle cx="180" cy="95" r="3.4" fill="#fff" opacity=".8" filter="url(#soft)"/><circle cx="228" cy="100" r="15" fill="url(#rl)" stroke="#525c66" stroke-width="1"/><circle cx="228" cy="100" r="5.4" fill="#7c868f"/><circle cx="228" cy="100" r="2.6" fill="#0e1114"/><circle cx="224" cy="95" r="3.4" fill="#fff" opacity=".8" filter="url(#soft)"/><path d="M52 81 h44 a19 19 0 0 1 0 38 h-44 a19 19 0 0 1 0 -38 Z" fill="url(#pl)" stroke="#7d858e" stroke-width="1" opacity=".96"/><rect x="46" y="92" width="56" height="5" fill="#9aa1a8" opacity=".5"/><circle cx="52" cy="100" r="4.6" fill="#f2f6f8"/><circle cx="96" cy="100" r="4.6" fill="#f2f6f8"/><path d="M140 81 h44 a19 19 0 0 1 0 38 h-44 a19 19 0 0 1 0 -38 Z" fill="url(#pl)" stroke="#7d858e" stroke-width="1" opacity=".96"/><rect x="134" y="92" width="56" height="5" fill="#9aa1a8" opacity=".5"/><circle cx="140" cy="100" r="4.6" fill="#f2f6f8"/><circle cx="184" cy="100" r="4.6" fill="#f2f6f8"/><path d="M96 84 h44 a16 16 0 0 1 0 32 h-44 a16 16 0 0 1 0 -32 Z" fill="none" stroke="#5d646c" stroke-width="2.4"/><path d="M184 84 h44 a16 16 0 0 1 0 32 h-44 a16 16 0 0 1 0 -32 Z" fill="none" stroke="#5d646c" stroke-width="2.4"/></svg>