<svg xmlns="http://www.w3.org/2000/svg" viewBox="0 0 280 200" width="280" height="200" role="img"><defs><radialGradient id="bg" cx=".5" cy=".42" r=".95"><stop offset="0" stop-color="#FAFBFC"/><stop offset=".55" stop-color="#EDEFF1"/><stop offset="1" stop-color="#D6DADE"/></radialGradient><radialGradient id="shdw" cx=".5" cy=".5" r=".5"><stop offset="0" stop-color="#0c1116" stop-opacity=".38"/><stop offset=".65" stop-color="#0c1116" stop-opacity=".16"/><stop offset="1" stop-color="#0c1116" stop-opacity="0"/></radialGradient><filter id="soft" x="-20%" y="-20%" width="140%" height="140%"><feGaussianBlur stdDeviation="1.1"/></filter><linearGradient id="hd" x1="0" y1="0" x2="0" y2="1"><stop offset="0" stop-color="#65707a"/><stop offset=".16" stop-color="#aeb9c2"/><stop offset=".32" stop-color="#f2f6f8"/><stop offset=".42" stop-color="#ffffff"/><stop offset=".58" stop-color="#c3ccd3"/><stop offset=".82" stop-color="#7c868f"/><stop offset="1" stop-color="#525c66"/></linearGradient><linearGradient id="sh" x1="0" y1="0" x2="0" y2="1"><stop offset="0" stop-color="#65707a"/><stop offset=".16" stop-color="#aeb9c2"/><stop offset=".32" stop-color="#f2f6f8"/><stop offset=".42" stop-color="#ffffff"/><stop offset=".58" stop-color="#c3ccd3"/><stop offset=".82" stop-color="#7c868f"/><stop offset="1" stop-color="#525c66"/></linearGradient><radialGradient id="hf" cx=".38" cy=".34" r=".85"><stop offset="0" stop-color="#ffffff"/><stop offset=".45" stop-color="#f2f6f8"/><stop offset=".75" stop-color="#c3ccd3"/><stop offset="1" stop-color="#525c66"/></radialGradient><linearGradient id="rb" x1="0" y1="0" x2="0" y2="1"><stop offset="0" stop-color="#17181a"/><stop offset=".16" stop-color="#26282b"/><stop offset=".32" stop-color="#3a3d41"/><stop offset=".42" stop-color="#4a4e53"/><stop offset=".58" stop-color="#2c2f33"/><stop offset=".82" stop-color="#1c1e21"/><stop offset="1" stop-color="#121315"/></linearGradient></defs><rect width="280" height="200" fill="url(#bg)"/><ellipse cx="140.0" cy="131.0" rx="93.52000000000001" ry="7" fill="url(#shdw)"/><rect x="69.5" y="90.0" width="71.3" height="20" rx="2" fill="url(#sh)"/><rect x="69.5" y="93.6" width="71.3" height="3.2" fill="#ffffff" opacity=".55" filter="url(#soft)"/><path d="M138.8 110.0 L142.0 90.0 L146.3 90.0 L143.1 110.0 Z" fill="#f2f6f8"/><line x1="138.8" y1="110.0" x2="142.0" y2="90.0" stroke="#525c66" stroke-width="1.1" opacity=".8"/><path d="M145.8 110.0 L149.0 90.0 L153.3 90.0 L150.1 110.0 Z" fill="#aeb9c2"/><line x1="145.8" y1="110.0" x2="149.0" y2="90.0" stroke="#525c66" stroke-width="1.1" opacity=".8"/><path d="M152.8 110.0 L156.0 90.0 L160.3 90.0 L157.1 110.0 Z" fill="#f2f6f8"/><line x1="152.8" y1="110.0" x2="156.0" y2="90.0" stroke="#525c66" stroke-width="1.1" opacity=".8"/><path d="M159.8 110.0 L163.0 90.0 L167.3 90.0 L164.1 110.0 Z" fill="#aeb9c2"/><line x1="159.8" y1="110.0" x2="163.0" y2="90.0" stroke="#525c66" stroke-width="1.1" opacity=".8"/><path d="M166.8 110.0 L170.0 90.0 L174.3 90.0 L171.1 110.0 Z" fill="#f2f6f8"/><line x1="166.8" y1="110.0" x2="170.0" y2="90.0" stroke="#525c66" stroke-width="1.1" opacity=".8"/><path d="M173.8 110.0 L177.0 90.0 L181.3 90.0 L178.1 110.0 Z" fill="#aeb9c2"/><line x1="173.8" y1="110.0" x2="177.0" y2="90.0" stroke="#525c66" stroke-width="1.1" opacity=".8"/><path d="M180.8 110.0 L184.0 90.0 L188.3 90.0 L185.1 110.0 Z" fill="#f2f6f8"/><line x1="180.8" y1="110.0" x2="184.0" y2="90.0" stroke="#525c66" stroke-width="1.1" opacity=".8"/><path d="M187.8 110.0 L191.0 90.0 L195.3 90.0 L192.1 110.0 Z" fill="#aeb9c2"/><line x1="187.8" y1="110.0" x2="191.0" y2="90.0" stroke="#525c66" stroke-width="1.1" opacity=".8"/><path d="M194.8 110.0 L198.0 90.0 L202.3 90.0 L199.1 110.0 Z" fill="#f2f6f8"/><line x1="194.8" y1="110.0" x2="198.0" y2="90.0" stroke="#525c66" stroke-width="1.1" opacity=".8"/><path d="M201.8 110.0 L205.0 90.0 L209.3 90.0 L206.1 110.0 Z" fill="#aeb9c2"/><line x1="201.8" y1="110.0" x2="205.0" y2="90.0" stroke="#525c66" stroke-width="1.1" opacity=".8"/><path d="M208.8 110.0 L212.0 90.0 L216.3 90.0 L213.1 110.0 Z" fill="#f2f6f8"/><line x1="208.8" y1="110.0" x2="212.0" y2="90.0" stroke="#525c66" stroke-width="1.1" opacity=".8"/><rect x="138.8" y="93.2" width="77" height="3.4000000000000004" fill="#ffffff" opacity=".5" filter="url(#soft)"/><rect x="138.8" y="105.6" width="77" height="4.4" fill="#525c66" opacity=".35" filter="url(#soft)"/><path d="M215.8 90.0 L222.8 94.4 L222.8 105.6 L215.8 110.0 Z" fill="#c3ccd3"/><path d="M215.8 90.0 L222.8 94.4 L222.8 100 L215.8 100 Z" fill="#f2f6f8" opacity=".7"/><rect x="56.5" y="83.0" width="13" height="34" fill="url(#hd)"/><path d="M56.5 83.0 L56.5 92.18 L59.36 83.0 Z" fill="#aeb9c2"/><path d="M56.5 117.0 L56.5 107.82 L59.36 117.0 Z" fill="#7c868f"/><line x1="56.5" y1="92.18" x2="69.5" y2="92.18" stroke="#7c868f" stroke-width="1" opacity=".7"/><line x1="56.5" y1="107.82" x2="69.5" y2="107.82" stroke="#525c66" stroke-width="1" opacity=".7"/><rect x="56.5" y="92.18" width="13" height="6.800000000000001" fill="#ffffff" opacity=".4" filter="url(#soft)"/><rect x="67.9" y="83.0" width="1.6" height="34" fill="#525c66" opacity=".6"/><rect x="75.5" y="79" width="48" height="42" rx="9" fill="url(#rb)"/><rect x="75.5" y="87" width="48" height="6" rx="3" fill="#5a5e64" opacity=".8"/><g stroke="#1c1e21" stroke-width="1.4"><line x1="82.5" y1="79" x2="82.5" y2="121"/><line x1="90.5" y1="79" x2="90.5" y2="121"/><line x1="98.5" y1="79" x2="98.5" y2="121"/><line x1="106.5" y1="79" x2="106.5" y2="121"/><line x1="114.5" y1="79" x2="114.5" y2="121"/></g></svg>