<svg xmlns="http://www.w3.org/2000/svg" viewBox="0 0 280 200" width="280" height="200" role="img"><defs><radialGradient id="bg" cx=".5" cy=".42" r=".95"><stop offset="0" stop-color="#FAFBFC"/><stop offset=".55" stop-color="#EDEFF1"/><stop offset="1" stop-color="#D6DADE"/></radialGradient><radialGradient id="shdw" cx=".5" cy=".5" r=".5"><stop offset="0" stop-color="#0c1116" stop-opacity=".38"/><stop offset=".65" stop-color="#0c1116" stop-opacity=".16"/><stop offset="1" stop-color="#0c1116" stop-opacity="0"/></radialGradient><filter id="soft" x="-20%" y="-20%" width="140%" height="140%"><feGaussianBlur stdDeviation="1.1"/></filter><linearGradient id="fer" x1="0" y1="0" x2="0" y2="1"><stop offset="0" stop-color="#65707a"/><stop offset=".16" stop-color="#aeb9c2"/><stop offset=".32" stop-color="#f2f6f8"/><stop offset=".42" stop-color="#ffffff"/><stop offset=".58" stop-color="#c3ccd3"/><stop offset=".82" stop-color="#7c868f"/><stop offset="1" stop-color="#525c66"/></linearGradient></defs><rect width="280" height="200" fill="url(#bg)"/><ellipse cx="140" cy="144" rx="108" ry="6" fill="url(#shdw)"/><path d="M76 90 C116 74 168 112 212 96" fill="none" stroke="#7c868f" stroke-width="10" stroke-linecap="round"/><path d="M76 90 C116 74 168 112 212 96" fill="none" stroke="#f2f6f8" stroke-width="6" stroke-linecap="round"/><path d="M76 88.5 C116 72.5 168 110.5 212 94.5" fill="none" stroke="#ffffff" stroke-width="1.6" opacity=".8"/><line x1="84.5" y1="82.7" x2="86.3" y2="91.7" stroke="#7c868f" stroke-width="1.2" opacity=".85" transform="rotate(24 85.4 87.2)"/><line x1="95.0" y1="81.5" x2="95.4" y2="90.7" stroke="#7c868f" stroke-width="1.2" opacity=".85" transform="rotate(24 95.2 86.1)"/><line x1="105.7" y1="81.6" x2="105.0" y2="90.8" stroke="#7c868f" stroke-width="1.2" opacity=".85" transform="rotate(24 105.4 86.2)"/><line x1="116.4" y1="82.9" x2="115.0" y2="92.0" stroke="#7c868f" stroke-width="1.2" opacity=".85" transform="rotate(24 115.7 87.4)"/><line x1="127.3" y1="84.9" x2="125.4" y2="93.9" stroke="#7c868f" stroke-width="1.2" opacity=".85" transform="rotate(24 126.3 89.4)"/><line x1="138.1" y1="87.3" x2="136.0" y2="96.2" stroke="#7c868f" stroke-width="1.2" opacity=".85" transform="rotate(24 137.1 91.7)"/><line x1="149.0" y1="89.8" x2="146.9" y2="98.7" stroke="#7c868f" stroke-width="1.2" opacity=".85" transform="rotate(24 147.9 94.3)"/><line x1="159.7" y1="92.1" x2="157.9" y2="101.2" stroke="#7c868f" stroke-width="1.2" opacity=".85" transform="rotate(24 158.8 96.6)"/><line x1="170.4" y1="94.0" x2="169.0" y2="103.1" stroke="#7c868f" stroke-width="1.2" opacity=".85" transform="rotate(24 169.7 98.6)"/><line x1="180.8" y1="95.2" x2="180.2" y2="104.4" stroke="#7c868f" stroke-width="1.2" opacity=".85" transform="rotate(24 180.5 99.8)"/><line x1="191.0" y1="95.3" x2="191.4" y2="104.5" stroke="#7c868f" stroke-width="1.2" opacity=".85" transform="rotate(24 191.2 99.9)"/><line x1="200.9" y1="94.3" x2="202.5" y2="103.3" stroke="#7c868f" stroke-width="1.2" opacity=".85" transform="rotate(24 201.7 98.8)"/><circle cx="54" cy="92" r="16" fill="none" stroke="#c3ccd3" stroke-width="9"/><circle cx="54" cy="92" r="16" fill="none" stroke="#f2f6f8" stroke-width="4.4"/><rect x="68" y="84" width="22" height="13" rx="5" fill="url(#fer)" stroke="#525c66" stroke-width="1"/><line x1="73" y1="84" x2="73" y2="97" stroke="#7c868f" stroke-width="1.2"/><line x1="84" y1="84" x2="84" y2="97" stroke="#7c868f" stroke-width="1.2"/><rect x="210" y="90" width="22" height="13" rx="5" fill="url(#fer)" stroke="#525c66" stroke-width="1"/><line x1="216" y1="90" x2="216" y2="103" stroke="#7c868f" stroke-width="1.2"/><line x1="226" y1="90" x2="226" y2="103" stroke="#7c868f" stroke-width="1.2"/><path d="M232.0 102.5 L234.2 90.5 L237.3 90.5 L235.1 102.5 Z" fill="#f2f6f8"/><line x1="232.0" y1="102.5" x2="234.2" y2="90.5" stroke="#525c66" stroke-width="1.1" opacity=".8"/><path d="M237.0 102.5 L239.2 90.5 L242.3 90.5 L240.1 102.5 Z" fill="#aeb9c2"/><line x1="237.0" y1="102.5" x2="239.2" y2="90.5" stroke="#525c66" stroke-width="1.1" opacity=".8"/><path d="M242.0 102.5 L244.2 90.5 L247.3 90.5 L245.1 102.5 Z" fill="#f2f6f8"/><line x1="242.0" y1="102.5" x2="244.2" y2="90.5" stroke="#525c66" stroke-width="1.1" opacity=".8"/><path d="M247.0 102.5 L249.2 90.5 L252.3 90.5 L250.1 102.5 Z" fill="#aeb9c2"/><line x1="247.0" y1="102.5" x2="249.2" y2="90.5" stroke="#525c66" stroke-width="1.1" opacity=".8"/><path d="M252.0 102.5 L254.2 90.5 L257.4 90.5 L255.1 102.5 Z" fill="#f2f6f8"/><line x1="252.0" y1="102.5" x2="254.2" y2="90.5" stroke="#525c66" stroke-width="1.1" opacity=".8"/><rect x="232" y="92.42" width="25" height="2.04" fill="#ffffff" opacity=".5" filter="url(#soft)"/><rect x="232" y="99.86" width="25" height="2.64" fill="#525c66" opacity=".35" filter="url(#soft)"/></svg>