<svg xmlns="http://www.w3.org/2000/svg" viewBox="0 0 280 200" width="280" height="200" role="img"><defs><radialGradient id="bg" cx=".5" cy=".42" r=".95"><stop offset="0" stop-color="#FAFBFC"/><stop offset=".55" stop-color="#EDEFF1"/><stop offset="1" stop-color="#D6DADE"/></radialGradient><radialGradient id="shdw" cx=".5" cy=".5" r=".5"><stop offset="0" stop-color="#0c1116" stop-opacity=".38"/><stop offset=".65" stop-color="#0c1116" stop-opacity=".16"/><stop offset="1" stop-color="#0c1116" stop-opacity="0"/></radialGradient><filter id="soft" x="-20%" y="-20%" width="140%" height="140%"><feGaussianBlur stdDeviation="1.1"/></filter><linearGradient id="hd" x1="0" y1="0" x2="0" y2="1"><stop offset="0" stop-color="#6e7a86"/><stop offset=".16" stop-color="#b4c0cb"/><stop offset=".32" stop-color="#eef3f7"/><stop offset=".42" stop-color="#fbfdff"/><stop offset=".58" stop-color="#c9d3dc"/><stop offset=".82" stop-color="#86919c"/><stop offset="1" stop-color="#5a6570"/></linearGradient><linearGradient id="sh" x1="0" y1="0" x2="0" y2="1"><stop offset="0" stop-color="#6e7a86"/><stop offset=".16" stop-color="#b4c0cb"/><stop offset=".32" stop-color="#eef3f7"/><stop offset=".42" stop-color="#fbfdff"/><stop offset=".58" stop-color="#c9d3dc"/><stop offset=".82" stop-color="#86919c"/><stop offset="1" stop-color="#5a6570"/></linearGradient><radialGradient id="hf" cx=".38" cy=".34" r=".85"><stop offset="0" stop-color="#fbfdff"/><stop offset=".45" stop-color="#eef3f7"/><stop offset=".75" stop-color="#c9d3dc"/><stop offset="1" stop-color="#5a6570"/></radialGradient></defs><rect width="280" height="200" fill="url(#bg)"/><ellipse cx="140.0" cy="135.0" rx="92.96000000000001" ry="7" fill="url(#shdw)"/><rect x="73.0" y="89.0" width="11.000000000000007" height="22" rx="2" fill="url(#sh)"/><rect x="73.0" y="92.96" width="11.000000000000007" height="3.52" fill="#ffffff" opacity=".55" filter="url(#soft)"/><path d="M82.0 111.0 L85.2 89.0 L89.5 89.0 L86.3 111.0 Z" fill="#eef3f7"/><line x1="82.0" y1="111.0" x2="85.2" y2="89.0" stroke="#5a6570" stroke-width="1.1" opacity=".8"/><path d="M89.0 111.0 L92.2 89.0 L96.5 89.0 L93.3 111.0 Z" fill="#b4c0cb"/><line x1="89.0" y1="111.0" x2="92.2" y2="89.0" stroke="#5a6570" stroke-width="1.1" opacity=".8"/><path d="M96.0 111.0 L99.2 89.0 L103.5 89.0 L100.3 111.0 Z" fill="#eef3f7"/><line x1="96.0" y1="111.0" x2="99.2" y2="89.0" stroke="#5a6570" stroke-width="1.1" opacity=".8"/><path d="M103.0 111.0 L106.2 89.0 L110.5 89.0 L107.3 111.0 Z" fill="#b4c0cb"/><line x1="103.0" y1="111.0" x2="106.2" y2="89.0" stroke="#5a6570" stroke-width="1.1" opacity=".8"/><path d="M110.0 111.0 L113.2 89.0 L117.5 89.0 L114.3 111.0 Z" fill="#eef3f7"/><line x1="110.0" y1="111.0" x2="113.2" y2="89.0" stroke="#5a6570" stroke-width="1.1" opacity=".8"/><path d="M117.0 111.0 L120.2 89.0 L124.5 89.0 L121.3 111.0 Z" fill="#b4c0cb"/><line x1="117.0" y1="111.0" x2="120.2" y2="89.0" stroke="#5a6570" stroke-width="1.1" opacity=".8"/><path d="M124.0 111.0 L127.2 89.0 L131.5 89.0 L128.3 111.0 Z" fill="#eef3f7"/><line x1="124.0" y1="111.0" x2="127.2" y2="89.0" stroke="#5a6570" stroke-width="1.1" opacity=".8"/><path d="M131.0 111.0 L134.2 89.0 L138.5 89.0 L135.3 111.0 Z" fill="#b4c0cb"/><line x1="131.0" y1="111.0" x2="134.2" y2="89.0" stroke="#5a6570" stroke-width="1.1" opacity=".8"/><path d="M138.0 111.0 L141.2 89.0 L145.5 89.0 L142.3 111.0 Z" fill="#eef3f7"/><line x1="138.0" y1="111.0" x2="141.2" y2="89.0" stroke="#5a6570" stroke-width="1.1" opacity=".8"/><path d="M145.0 111.0 L148.2 89.0 L152.5 89.0 L149.3 111.0 Z" fill="#b4c0cb"/><line x1="145.0" y1="111.0" x2="148.2" y2="89.0" stroke="#5a6570" stroke-width="1.1" opacity=".8"/><path d="M152.0 111.0 L155.2 89.0 L159.5 89.0 L156.3 111.0 Z" fill="#eef3f7"/><line x1="152.0" y1="111.0" x2="155.2" y2="89.0" stroke="#5a6570" stroke-width="1.1" opacity=".8"/><path d="M159.0 111.0 L162.2 89.0 L166.5 89.0 L163.3 111.0 Z" fill="#b4c0cb"/><line x1="159.0" y1="111.0" x2="162.2" y2="89.0" stroke="#5a6570" stroke-width="1.1" opacity=".8"/><path d="M166.0 111.0 L169.2 89.0 L173.5 89.0 L170.3 111.0 Z" fill="#eef3f7"/><line x1="166.0" y1="111.0" x2="169.2" y2="89.0" stroke="#5a6570" stroke-width="1.1" opacity=".8"/><path d="M173.0 111.0 L176.2 89.0 L180.5 89.0 L177.3 111.0 Z" fill="#b4c0cb"/><line x1="173.0" y1="111.0" x2="176.2" y2="89.0" stroke="#5a6570" stroke-width="1.1" opacity=".8"/><path d="M180.0 111.0 L183.2 89.0 L187.5 89.0 L184.3 111.0 Z" fill="#eef3f7"/><line x1="180.0" y1="111.0" x2="183.2" y2="89.0" stroke="#5a6570" stroke-width="1.1" opacity=".8"/><path d="M187.0 111.0 L190.2 89.0 L194.5 89.0 L191.3 111.0 Z" fill="#b4c0cb"/><line x1="187.0" y1="111.0" x2="190.2" y2="89.0" stroke="#5a6570" stroke-width="1.1" opacity=".8"/><path d="M194.0 111.0 L197.2 89.0 L201.5 89.0 L198.3 111.0 Z" fill="#eef3f7"/><line x1="194.0" y1="111.0" x2="197.2" y2="89.0" stroke="#5a6570" stroke-width="1.1" opacity=".8"/><path d="M201.0 111.0 L204.2 89.0 L208.5 89.0 L205.3 111.0 Z" fill="#b4c0cb"/><line x1="201.0" y1="111.0" x2="204.2" y2="89.0" stroke="#5a6570" stroke-width="1.1" opacity=".8"/><path d="M208.0 111.0 L211.2 89.0 L215.5 89.0 L212.3 111.0 Z" fill="#eef3f7"/><line x1="208.0" y1="111.0" x2="211.2" y2="89.0" stroke="#5a6570" stroke-width="1.1" opacity=".8"/><rect x="82.0" y="92.52" width="133" height="3.74" fill="#ffffff" opacity=".5" filter="url(#soft)"/><rect x="82.0" y="106.16" width="133" height="4.84" fill="#5a6570" opacity=".35" filter="url(#soft)"/><path d="M215.0 89.0 L222.0 93.84 L222.0 106.16 L215.0 111.0 Z" fill="#c9d3dc"/><path d="M215.0 89.0 L222.0 93.84 L222.0 100 L215.0 100 Z" fill="#eef3f7" opacity=".7"/><path d="M73.0 79.0 L73.0 121.0 L64.2 121.0 Q53.0 100 64.2 79.0 Z" fill="url(#hd)"/><path d="M65.0 85.72 Q57.8 100 65.0 108.4" stroke="#ffffff" stroke-width="2.4" fill="none" opacity=".6" filter="url(#soft)"/><rect x="71.5" y="79.0" width="1.5" height="42" fill="#5a6570" opacity=".55"/><rect x="77.0" y="69" width="7" height="62" rx="2" fill="url(#hd)" stroke="#86919c" stroke-width="1"/><rect x="78.4" y="69" width="1.8" height="62" fill="#ffffff" opacity=".55"/></svg>