<svg xmlns="http://www.w3.org/2000/svg" viewBox="0 0 280 200" width="280" height="200" role="img"><defs><radialGradient id="bg" cx=".5" cy=".42" r=".95"><stop offset="0" stop-color="#FAFBFC"/><stop offset=".55" stop-color="#EDEFF1"/><stop offset="1" stop-color="#D6DADE"/></radialGradient><radialGradient id="shdw" cx=".5" cy=".5" r=".5"><stop offset="0" stop-color="#0c1116" stop-opacity=".38"/><stop offset=".65" stop-color="#0c1116" stop-opacity=".16"/><stop offset="1" stop-color="#0c1116" stop-opacity="0"/></radialGradient><filter id="soft" x="-20%" y="-20%" width="140%" height="140%"><feGaussianBlur stdDeviation="1.1"/></filter><linearGradient id="hd" x1="0" y1="0" x2="0" y2="1"><stop offset="0" stop-color="#15181b"/><stop offset=".16" stop-color="#33383e"/><stop offset=".32" stop-color="#5d646c"/><stop offset=".42" stop-color="#7d858e"/><stop offset=".58" stop-color="#454b52"/><stop offset=".82" stop-color="#23272c"/><stop offset="1" stop-color="#101316"/></linearGradient><linearGradient id="sh" x1="0" y1="0" x2="0" y2="1"><stop offset="0" stop-color="#15181b"/><stop offset=".16" stop-color="#33383e"/><stop offset=".32" stop-color="#5d646c"/><stop offset=".42" stop-color="#7d858e"/><stop offset=".58" stop-color="#454b52"/><stop offset=".82" stop-color="#23272c"/><stop offset="1" stop-color="#101316"/></linearGradient><radialGradient id="hf" cx=".38" cy=".34" r=".85"><stop offset="0" stop-color="#7d858e"/><stop offset=".45" stop-color="#5d646c"/><stop offset=".75" stop-color="#454b52"/><stop offset="1" stop-color="#101316"/></radialGradient></defs><rect width="280" height="200" fill="url(#bg)"/><ellipse cx="140.0" cy="110.0" rx="53.2" ry="7" fill="url(#shdw)"/><rect x="103.5" y="75.5" width="5.360000000000003" height="13" rx="2" fill="url(#sh)"/><rect x="103.5" y="77.84" width="5.360000000000003" height="2.08" fill="#ffffff" opacity=".55" filter="url(#soft)"/><path d="M106.9 88.5 L110.0 75.5 L114.4 75.5 L111.2 88.5 Z" fill="#5d646c"/><line x1="106.9" y1="88.5" x2="110.0" y2="75.5" stroke="#101316" stroke-width="1.1" opacity=".8"/><path d="M113.9 88.5 L117.0 75.5 L121.4 75.5 L118.2 88.5 Z" fill="#33383e"/><line x1="113.9" y1="88.5" x2="117.0" y2="75.5" stroke="#101316" stroke-width="1.1" opacity=".8"/><path d="M120.9 88.5 L124.0 75.5 L128.3 75.5 L125.2 88.5 Z" fill="#5d646c"/><line x1="120.9" y1="88.5" x2="124.0" y2="75.5" stroke="#101316" stroke-width="1.1" opacity=".8"/><path d="M127.9 88.5 L131.0 75.5 L135.3 75.5 L132.2 88.5 Z" fill="#33383e"/><line x1="127.9" y1="88.5" x2="131.0" y2="75.5" stroke="#101316" stroke-width="1.1" opacity=".8"/><path d="M134.9 88.5 L138.0 75.5 L142.4 75.5 L139.2 88.5 Z" fill="#5d646c"/><line x1="134.9" y1="88.5" x2="138.0" y2="75.5" stroke="#101316" stroke-width="1.1" opacity=".8"/><path d="M141.9 88.5 L145.0 75.5 L149.4 75.5 L146.2 88.5 Z" fill="#33383e"/><line x1="141.9" y1="88.5" x2="145.0" y2="75.5" stroke="#101316" stroke-width="1.1" opacity=".8"/><path d="M148.9 88.5 L152.0 75.5 L156.4 75.5 L153.2 88.5 Z" fill="#5d646c"/><line x1="148.9" y1="88.5" x2="152.0" y2="75.5" stroke="#101316" stroke-width="1.1" opacity=".8"/><path d="M155.9 88.5 L159.0 75.5 L163.4 75.5 L160.2 88.5 Z" fill="#33383e"/><line x1="155.9" y1="88.5" x2="159.0" y2="75.5" stroke="#101316" stroke-width="1.1" opacity=".8"/><path d="M162.9 88.5 L166.0 75.5 L170.4 75.5 L167.2 88.5 Z" fill="#5d646c"/><line x1="162.9" y1="88.5" x2="166.0" y2="75.5" stroke="#101316" stroke-width="1.1" opacity=".8"/><path d="M169.9 88.5 L173.0 75.5 L177.4 75.5 L174.2 88.5 Z" fill="#33383e"/><line x1="169.9" y1="88.5" x2="173.0" y2="75.5" stroke="#101316" stroke-width="1.1" opacity=".8"/><rect x="106.86" y="77.58" width="70" height="2.21" fill="#ffffff" opacity=".5" filter="url(#soft)"/><rect x="106.86" y="85.64" width="70" height="2.86" fill="#101316" opacity=".35" filter="url(#soft)"/><path d="M176.86 75.5 L183.86 78.36 L183.86 85.64 L176.86 88.5 Z" fill="#454b52"/><path d="M176.86 75.5 L183.86 78.36 L183.86 82 L176.86 82 Z" fill="#5d646c" opacity=".7"/><path d="M103.5 68.0 L103.5 96.0 L97.45 96.0 Q89.75 82 97.45 68.0 Z" fill="url(#hd)"/><path d="M98.0 72.48 Q93.05 82 98.0 87.6" stroke="#ffffff" stroke-width="2.4" fill="none" opacity=".6" filter="url(#soft)"/><rect x="102.0" y="68.0" width="1.5" height="28" fill="#101316" opacity=".55"/><circle cx="220" cy="70" r="22" fill="url(#hf)" stroke="#23272c" stroke-width="1"/><circle cx="220" cy="70" r="18.919999999999998" fill="none" stroke="#5d646c" stroke-width="1" opacity=".8"/><polygon points="220.0,58.0 223.3,64.3 230.4,64.0 226.6,70.0 230.4,76.0 223.3,75.7 220.0,82.0 216.7,75.7 209.6,76.0 213.4,70.0 209.6,64.0 216.7,64.3" fill="#000"/><rect x="64" y="138" width="62" height="16" rx="2" fill="#E9D87F" stroke="#B7A23B" stroke-width="1"/><line x1="70" y1="138" x2="70" y2="147" stroke="#4a4324" stroke-width="0.9"/><line x1="75" y1="138" x2="75" y2="143.5" stroke="#4a4324" stroke-width="0.9"/><line x1="80" y1="138" x2="80" y2="143.5" stroke="#4a4324" stroke-width="0.9"/><line x1="85" y1="138" x2="85" y2="143.5" stroke="#4a4324" stroke-width="0.9"/><line x1="90" y1="138" x2="90" y2="143.5" stroke="#4a4324" stroke-width="0.9"/><line x1="95" y1="138" x2="95" y2="147" stroke="#4a4324" stroke-width="0.9"/><line x1="100" y1="138" x2="100" y2="143.5" stroke="#4a4324" stroke-width="0.9"/><line x1="105" y1="138" x2="105" y2="143.5" stroke="#4a4324" stroke-width="0.9"/><line x1="110" y1="138" x2="110" y2="143.5" stroke="#4a4324" stroke-width="0.9"/><line x1="115" y1="138" x2="115" y2="143.5" stroke="#4a4324" stroke-width="0.9"/><line x1="120" y1="138" x2="120" y2="147" stroke="#4a4324" stroke-width="0.9"/><text x="70" y="152.2" font-family="Arial" font-size="6.4" fill="#4a4324">0</text><text x="92" y="152.2" font-family="Arial" font-size="6.4" fill="#4a4324">5</text><text x="115" y="152.2" font-family="Arial" font-size="6.4" fill="#4a4324">10 mm</text></svg>