<svg xmlns="http://www.w3.org/2000/svg" viewBox="0 0 280 200" width="280" height="200" role="img"><defs><radialGradient id="bg" cx=".5" cy=".42" r=".95"><stop offset="0" stop-color="#FAFBFC"/><stop offset=".55" stop-color="#EDEFF1"/><stop offset="1" stop-color="#D6DADE"/></radialGradient><radialGradient id="shdw" cx=".5" cy=".5" r=".5"><stop offset="0" stop-color="#0c1116" stop-opacity=".38"/><stop offset=".65" stop-color="#0c1116" stop-opacity=".16"/><stop offset="1" stop-color="#0c1116" stop-opacity="0"/></radialGradient><filter id="soft" x="-20%" y="-20%" width="140%" height="140%"><feGaussianBlur stdDeviation="1.1"/></filter><linearGradient id="hd" x1="0" y1="0" x2="0" y2="1"><stop offset="0" stop-color="#6e7a86"/><stop offset=".16" stop-color="#b4c0cb"/><stop offset=".32" stop-color="#eef3f7"/><stop offset=".42" stop-color="#fbfdff"/><stop offset=".58" stop-color="#c9d3dc"/><stop offset=".82" stop-color="#86919c"/><stop offset="1" stop-color="#5a6570"/></linearGradient><linearGradient id="sh" x1="0" y1="0" x2="0" y2="1"><stop offset="0" stop-color="#6e7a86"/><stop offset=".16" stop-color="#b4c0cb"/><stop offset=".32" stop-color="#eef3f7"/><stop offset=".42" stop-color="#fbfdff"/><stop offset=".58" stop-color="#c9d3dc"/><stop offset=".82" stop-color="#86919c"/><stop offset="1" stop-color="#5a6570"/></linearGradient><radialGradient id="hf" cx=".38" cy=".34" r=".85"><stop offset="0" stop-color="#fbfdff"/><stop offset=".45" stop-color="#eef3f7"/><stop offset=".75" stop-color="#c9d3dc"/><stop offset="1" stop-color="#5a6570"/></radialGradient></defs><rect width="280" height="200" fill="url(#bg)"/><ellipse cx="140.0" cy="109.0" rx="53.760000000000005" ry="7" fill="url(#shdw)"/><rect x="102.0" y="75.5" width="5.440000000000003" height="13" rx="2" fill="url(#sh)"/><rect x="102.0" y="77.84" width="5.440000000000003" height="2.08" fill="#ffffff" opacity=".55" filter="url(#soft)"/><path d="M105.4 88.5 L108.6 75.5 L112.9 75.5 L109.8 88.5 Z" fill="#eef3f7"/><line x1="105.4" y1="88.5" x2="108.6" y2="75.5" stroke="#5a6570" stroke-width="1.1" opacity=".8"/><path d="M112.4 88.5 L115.6 75.5 L119.9 75.5 L116.8 88.5 Z" fill="#b4c0cb"/><line x1="112.4" y1="88.5" x2="115.6" y2="75.5" stroke="#5a6570" stroke-width="1.1" opacity=".8"/><path d="M119.4 88.5 L122.6 75.5 L126.9 75.5 L123.8 88.5 Z" fill="#eef3f7"/><line x1="119.4" y1="88.5" x2="122.6" y2="75.5" stroke="#5a6570" stroke-width="1.1" opacity=".8"/><path d="M126.4 88.5 L129.6 75.5 L133.9 75.5 L130.8 88.5 Z" fill="#b4c0cb"/><line x1="126.4" y1="88.5" x2="129.6" y2="75.5" stroke="#5a6570" stroke-width="1.1" opacity=".8"/><path d="M133.4 88.5 L136.6 75.5 L140.9 75.5 L137.8 88.5 Z" fill="#eef3f7"/><line x1="133.4" y1="88.5" x2="136.6" y2="75.5" stroke="#5a6570" stroke-width="1.1" opacity=".8"/><path d="M140.4 88.5 L143.6 75.5 L147.9 75.5 L144.8 88.5 Z" fill="#b4c0cb"/><line x1="140.4" y1="88.5" x2="143.6" y2="75.5" stroke="#5a6570" stroke-width="1.1" opacity=".8"/><path d="M147.4 88.5 L150.6 75.5 L154.9 75.5 L151.8 88.5 Z" fill="#eef3f7"/><line x1="147.4" y1="88.5" x2="150.6" y2="75.5" stroke="#5a6570" stroke-width="1.1" opacity=".8"/><path d="M154.4 88.5 L157.6 75.5 L161.9 75.5 L158.8 88.5 Z" fill="#b4c0cb"/><line x1="154.4" y1="88.5" x2="157.6" y2="75.5" stroke="#5a6570" stroke-width="1.1" opacity=".8"/><path d="M161.4 88.5 L164.6 75.5 L168.9 75.5 L165.8 88.5 Z" fill="#eef3f7"/><line x1="161.4" y1="88.5" x2="164.6" y2="75.5" stroke="#5a6570" stroke-width="1.1" opacity=".8"/><path d="M168.4 88.5 L171.6 75.5 L175.9 75.5 L172.8 88.5 Z" fill="#b4c0cb"/><line x1="168.4" y1="88.5" x2="171.6" y2="75.5" stroke="#5a6570" stroke-width="1.1" opacity=".8"/><rect x="105.44" y="77.58" width="70" height="2.21" fill="#ffffff" opacity=".5" filter="url(#soft)"/><rect x="105.44" y="85.64" width="70" height="2.86" fill="#5a6570" opacity=".35" filter="url(#soft)"/><path d="M175.44 75.5 L182.44 78.36 L182.44 85.64 L175.44 88.5 Z" fill="#c9d3dc"/><path d="M175.44 75.5 L182.44 78.36 L182.44 82 L175.44 82 Z" fill="#eef3f7" opacity=".7"/><path d="M102.0 69.0 L102.0 95.0 L96.5 95.0 Q89.5 82 96.5 69.0 Z" fill="url(#hd)"/><path d="M97.0 73.16 Q92.5 82 97.0 87.2" stroke="#ffffff" stroke-width="2.4" fill="none" opacity=".6" filter="url(#soft)"/><rect x="100.5" y="69.0" width="1.5" height="26" fill="#5a6570" opacity=".55"/><g stroke="#1a1d20" stroke-width="2.72" stroke-linecap="round"><line x1="89.0" y1="82" x2="105.0" y2="82"/><line x1="97.0" y1="74" x2="97.0" y2="90"/></g><g stroke="#ffffff" stroke-width="0.8" opacity=".5"><line x1="90.6" y1="81.04" x2="103.4" y2="81.04"/></g><rect x="78" y="132" width="62" height="16" rx="2" fill="#E9D87F" stroke="#B7A23B" stroke-width="1"/><line x1="84" y1="132" x2="84" y2="141" stroke="#4a4324" stroke-width="0.9"/><line x1="89" y1="132" x2="89" y2="137.5" stroke="#4a4324" stroke-width="0.9"/><line x1="94" y1="132" x2="94" y2="137.5" stroke="#4a4324" stroke-width="0.9"/><line x1="99" y1="132" x2="99" y2="137.5" stroke="#4a4324" stroke-width="0.9"/><line x1="104" y1="132" x2="104" y2="137.5" stroke="#4a4324" stroke-width="0.9"/><line x1="109" y1="132" x2="109" y2="141" stroke="#4a4324" stroke-width="0.9"/><line x1="114" y1="132" x2="114" y2="137.5" stroke="#4a4324" stroke-width="0.9"/><line x1="119" y1="132" x2="119" y2="137.5" stroke="#4a4324" stroke-width="0.9"/><line x1="124" y1="132" x2="124" y2="137.5" stroke="#4a4324" stroke-width="0.9"/><line x1="129" y1="132" x2="129" y2="137.5" stroke="#4a4324" stroke-width="0.9"/><line x1="134" y1="132" x2="134" y2="141" stroke="#4a4324" stroke-width="0.9"/><text x="84" y="146.2" font-family="Arial" font-size="6.4" fill="#4a4324">0</text><text x="106" y="146.2" font-family="Arial" font-size="6.4" fill="#4a4324">5</text><text x="129" y="146.2" font-family="Arial" font-size="6.4" fill="#4a4324">10 mm</text></svg>