<svg xmlns="http://www.w3.org/2000/svg" viewBox="0 0 280 200" width="280" height="200" role="img"><defs><radialGradient id="bg" cx=".5" cy=".42" r=".95"><stop offset="0" stop-color="#FAFBFC"/><stop offset=".55" stop-color="#EDEFF1"/><stop offset="1" stop-color="#D6DADE"/></radialGradient><radialGradient id="shdw" cx=".5" cy=".5" r=".5"><stop offset="0" stop-color="#0c1116" stop-opacity=".38"/><stop offset=".65" stop-color="#0c1116" stop-opacity=".16"/><stop offset="1" stop-color="#0c1116" stop-opacity="0"/></radialGradient><filter id="soft" x="-20%" y="-20%" width="140%" height="140%"><feGaussianBlur stdDeviation="1.1"/></filter></defs><rect width="280" height="200" fill="url(#bg)"/><ellipse cx="140" cy="158" rx="82" ry="7" fill="url(#shdw)"/><polygon points="162.0,58.9 184.0,78.0 184.0,112.0 162.0,92.9" fill="#f3dc7a"/><polygon points="184.0,78.0 162.0,97.1 162.0,131.1 184.0,112.0" fill="#dcb74e"/><polygon points="162.0,97.1 118.0,97.1 118.0,131.1 162.0,131.1" fill="#9a7a26"/><polygon points="184.0,78.0 162.0,97.1 118.0,97.1 96.0,78.0 118.0,58.9 162.0,58.9" fill="url(#nt)" stroke="#9a7a26" stroke-width=".6"/><ellipse cx="140" cy="78" rx="17" ry="8.5" fill="#6d5518"/><ellipse cx="140" cy="79.5" rx="13.94" ry="6.97" fill="#0d0f11"/><ellipse cx="140" cy="78" rx="15.3" ry="7.65" fill="none" stroke="#cfa83d" stroke-width=".8" opacity=".8"/><ellipse cx="140" cy="128" rx="56" ry="18" fill="#9a7a26"/><ellipse cx="140" cy="120" rx="56" ry="18" fill="#f3dc7a"/><path d="M84 120 L84 128 A56 18 0 0 0 196 128 L196 120" fill="#dcb74e"/></svg>