<svg xmlns="http://www.w3.org/2000/svg" viewBox="0 0 280 200" width="280" height="200" role="img"><defs><radialGradient id="bg" cx=".5" cy=".42" r=".95"><stop offset="0" stop-color="#FAFBFC"/><stop offset=".55" stop-color="#EDEFF1"/><stop offset="1" stop-color="#D6DADE"/></radialGradient><radialGradient id="shdw" cx=".5" cy=".5" r=".5"><stop offset="0" stop-color="#0c1116" stop-opacity=".38"/><stop offset=".65" stop-color="#0c1116" stop-opacity=".16"/><stop offset="1" stop-color="#0c1116" stop-opacity="0"/></radialGradient><filter id="soft" x="-20%" y="-20%" width="140%" height="140%"><feGaussianBlur stdDeviation="1.1"/></filter><linearGradient id="hd" x1="0" y1="0" x2="0" y2="1"><stop offset="0" stop-color="#8a6a1f"/><stop offset=".16" stop-color="#cfa83d"/><stop offset=".32" stop-color="#f3dc7a"/><stop offset=".42" stop-color="#fff3b8"/><stop offset=".58" stop-color="#dcb74e"/><stop offset=".82" stop-color="#9a7a26"/><stop offset="1" stop-color="#6d5518"/></linearGradient><linearGradient id="sh" x1="0" y1="0" x2="0" y2="1"><stop offset="0" stop-color="#8a6a1f"/><stop offset=".16" stop-color="#cfa83d"/><stop offset=".32" stop-color="#f3dc7a"/><stop offset=".42" stop-color="#fff3b8"/><stop offset=".58" stop-color="#dcb74e"/><stop offset=".82" stop-color="#9a7a26"/><stop offset="1" stop-color="#6d5518"/></linearGradient><radialGradient id="hf" cx=".38" cy=".34" r=".85"><stop offset="0" stop-color="#fff3b8"/><stop offset=".45" stop-color="#f3dc7a"/><stop offset=".75" stop-color="#dcb74e"/><stop offset="1" stop-color="#6d5518"/></radialGradient></defs><rect width="280" height="200" fill="url(#bg)"/><ellipse cx="140.0" cy="133.0" rx="92.4" ry="7" fill="url(#shdw)"/><rect x="72.5" y="89.0" width="77.0" height="22" rx="2" fill="url(#sh)"/><rect x="72.5" y="92.96" width="77.0" height="3.52" fill="#ffffff" opacity=".55" filter="url(#soft)"/><path d="M147.5 111.0 L150.7 89.0 L155.0 89.0 L151.8 111.0 Z" fill="#f3dc7a"/><line x1="147.5" y1="111.0" x2="150.7" y2="89.0" stroke="#6d5518" stroke-width="1.1" opacity=".8"/><path d="M154.5 111.0 L157.7 89.0 L162.0 89.0 L158.8 111.0 Z" fill="#cfa83d"/><line x1="154.5" y1="111.0" x2="157.7" y2="89.0" stroke="#6d5518" stroke-width="1.1" opacity=".8"/><path d="M161.5 111.0 L164.7 89.0 L169.0 89.0 L165.8 111.0 Z" fill="#f3dc7a"/><line x1="161.5" y1="111.0" x2="164.7" y2="89.0" stroke="#6d5518" stroke-width="1.1" opacity=".8"/><path d="M168.5 111.0 L171.7 89.0 L176.0 89.0 L172.8 111.0 Z" fill="#cfa83d"/><line x1="168.5" y1="111.0" x2="171.7" y2="89.0" stroke="#6d5518" stroke-width="1.1" opacity=".8"/><path d="M175.5 111.0 L178.7 89.0 L183.0 89.0 L179.8 111.0 Z" fill="#f3dc7a"/><line x1="175.5" y1="111.0" x2="178.7" y2="89.0" stroke="#6d5518" stroke-width="1.1" opacity=".8"/><path d="M182.5 111.0 L185.7 89.0 L190.0 89.0 L186.8 111.0 Z" fill="#cfa83d"/><line x1="182.5" y1="111.0" x2="185.7" y2="89.0" stroke="#6d5518" stroke-width="1.1" opacity=".8"/><path d="M189.5 111.0 L192.7 89.0 L197.0 89.0 L193.8 111.0 Z" fill="#f3dc7a"/><line x1="189.5" y1="111.0" x2="192.7" y2="89.0" stroke="#6d5518" stroke-width="1.1" opacity=".8"/><path d="M196.5 111.0 L199.7 89.0 L204.0 89.0 L200.8 111.0 Z" fill="#cfa83d"/><line x1="196.5" y1="111.0" x2="199.7" y2="89.0" stroke="#6d5518" stroke-width="1.1" opacity=".8"/><path d="M203.5 111.0 L206.7 89.0 L211.0 89.0 L207.8 111.0 Z" fill="#f3dc7a"/><line x1="203.5" y1="111.0" x2="206.7" y2="89.0" stroke="#6d5518" stroke-width="1.1" opacity=".8"/><rect x="147.5" y="92.52" width="63" height="3.74" fill="#ffffff" opacity=".5" filter="url(#soft)"/><rect x="147.5" y="106.16" width="63" height="4.84" fill="#6d5518" opacity=".35" filter="url(#soft)"/><path d="M210.5 89.0 L217.5 93.84 L217.5 106.16 L210.5 111.0 Z" fill="#dcb74e"/><path d="M210.5 89.0 L217.5 93.84 L217.5 100 L210.5 100 Z" fill="#f3dc7a" opacity=".7"/><rect x="57.5" y="81.0" width="15" height="38" fill="url(#hd)"/><path d="M57.5 81.0 L57.5 91.26 L60.8 81.0 Z" fill="#cfa83d"/><path d="M57.5 119.0 L57.5 108.74 L60.8 119.0 Z" fill="#9a7a26"/><line x1="57.5" y1="91.26" x2="72.5" y2="91.26" stroke="#9a7a26" stroke-width="1" opacity=".7"/><line x1="57.5" y1="108.74" x2="72.5" y2="108.74" stroke="#6d5518" stroke-width="1" opacity=".7"/><rect x="57.5" y="91.26" width="15" height="7.6000000000000005" fill="#ffffff" opacity=".4" filter="url(#soft)"/><rect x="70.9" y="81.0" width="1.6" height="38" fill="#6d5518" opacity=".6"/><rect x="72.5" y="73" width="6" height="54" rx="2" fill="url(#hd)" stroke="#9a7a26" stroke-width=".8"/><rect x="78.5" y="85" width="40" height="30" rx="2" fill="url(#sh)"/><rect x="78.5" y="91" width="40" height="5" fill="#fff" opacity=".55"/></svg>