<svg xmlns="http://www.w3.org/2000/svg" viewBox="0 0 280 200" width="280" height="200" role="img"><defs><radialGradient id="bg" cx=".5" cy=".42" r=".95"><stop offset="0" stop-color="#FAFBFC"/><stop offset=".55" stop-color="#EDEFF1"/><stop offset="1" stop-color="#D6DADE"/></radialGradient><radialGradient id="shdw" cx=".5" cy=".5" r=".5"><stop offset="0" stop-color="#0c1116" stop-opacity=".38"/><stop offset=".65" stop-color="#0c1116" stop-opacity=".16"/><stop offset="1" stop-color="#0c1116" stop-opacity="0"/></radialGradient><filter id="soft" x="-20%" y="-20%" width="140%" height="140%"><feGaussianBlur stdDeviation="1.1"/></filter><linearGradient id="w1" x1="0" y1="0" x2="0" y2="1"><stop offset="0" stop-color="#65707a"/><stop offset=".16" stop-color="#aeb9c2"/><stop offset=".32" stop-color="#f2f6f8"/><stop offset=".42" stop-color="#ffffff"/><stop offset=".58" stop-color="#c3ccd3"/><stop offset=".82" stop-color="#7c868f"/><stop offset="1" stop-color="#525c66"/></linearGradient></defs><rect width="280" height="200" fill="url(#bg)"/><ellipse cx="64" cy="158" rx="36" ry="7" fill="url(#shdw)"/><ellipse cx="150" cy="158" rx="30" ry="7" fill="url(#shdw)"/><ellipse cx="228" cy="152" rx="34" ry="7" fill="url(#shdw)"/><path d="M44 66 C52 52 76 52 84 66" stroke="url(#w1)" stroke-width="7" fill="none"/><path d="M84 66 C76 76 56 76 47 68" stroke="#7c868f" stroke-width="7" fill="none" opacity=".9"/><path d="M44 80 C52 66 76 66 84 80" stroke="url(#w1)" stroke-width="7" fill="none"/><path d="M84 80 C76 90 56 90 47 82" stroke="#7c868f" stroke-width="7" fill="none" opacity=".9"/><path d="M44 94 C52 80 76 80 84 94" stroke="url(#w1)" stroke-width="7" fill="none"/><path d="M84 94 C76 104 56 104 47 96" stroke="#7c868f" stroke-width="7" fill="none" opacity=".9"/><path d="M44 108 C52 94 76 94 84 108" stroke="url(#w1)" stroke-width="7" fill="none"/><path d="M84 108 C76 118 56 118 47 110" stroke="#7c868f" stroke-width="7" fill="none" opacity=".9"/><path d="M44 122 C52 108 76 108 84 122" stroke="url(#w1)" stroke-width="7" fill="none"/><path d="M84 122 C76 132 56 132 47 124" stroke="#7c868f" stroke-width="7" fill="none" opacity=".9"/><path d="M44 136 C52 122 76 122 84 136" stroke="url(#w1)" stroke-width="7" fill="none"/><path d="M84 136 C76 146 56 146 47 138" stroke="#7c868f" stroke-width="7" fill="none" opacity=".9"/><path d="M44 150 C52 136 76 136 84 150" stroke="url(#w1)" stroke-width="7" fill="none"/><path d="M84 150 C76 160 56 160 47 152" stroke="#7c868f" stroke-width="7" fill="none" opacity=".9"/><path d="M150 44 q-13 7 0 14 q-13 7 0 14" stroke="#c3ccd3" stroke-width="6" fill="none"/><ellipse cx="150" cy="70" rx="14" ry="4.6" fill="none" stroke="url(#w1)" stroke-width="6"/><ellipse cx="150" cy="78" rx="14" ry="4.6" fill="none" stroke="url(#w1)" stroke-width="6"/><ellipse cx="150" cy="86" rx="14" ry="4.6" fill="none" stroke="url(#w1)" stroke-width="6"/><ellipse cx="150" cy="94" rx="14" ry="4.6" fill="none" stroke="url(#w1)" stroke-width="6"/><ellipse cx="150" cy="102" rx="14" ry="4.6" fill="none" stroke="url(#w1)" stroke-width="6"/><ellipse cx="150" cy="110" rx="14" ry="4.6" fill="none" stroke="url(#w1)" stroke-width="6"/><ellipse cx="150" cy="118" rx="14" ry="4.6" fill="none" stroke="url(#w1)" stroke-width="6"/><ellipse cx="150" cy="126" rx="14" ry="4.6" fill="none" stroke="url(#w1)" stroke-width="6"/><ellipse cx="150" cy="134" rx="14" ry="4.6" fill="none" stroke="url(#w1)" stroke-width="6"/><path d="M150 140 q13 7 0 14 q-10 6 -14 -2" stroke="#c3ccd3" stroke-width="6" fill="none"/><ellipse cx="228" cy="92" rx="17" ry="6" fill="none" stroke="url(#w1)" stroke-width="6.4"/><ellipse cx="228" cy="101" rx="17" ry="6" fill="none" stroke="url(#w1)" stroke-width="6.4"/><ellipse cx="228" cy="110" rx="17" ry="6" fill="none" stroke="url(#w1)" stroke-width="6.4"/><ellipse cx="228" cy="119" rx="17" ry="6" fill="none" stroke="url(#w1)" stroke-width="6.4"/><line x1="212" y1="90" x2="190" y2="58" stroke="#ffffff" stroke-width="6" stroke-linecap="round"/><line x1="244" y1="122" x2="266" y2="92" stroke="#ffffff" stroke-width="6" stroke-linecap="round"/><g font-family="Arial" font-size="8.6" fill="#3a434c"><text x="34" y="184">COMPRESSION</text><text x="124" y="184">EXTENSION</text><text x="206" y="184">TORSION</text></g></svg>