<svg xmlns="http://www.w3.org/2000/svg" viewBox="0 0 280 200" width="280" height="200" role="img"><defs><radialGradient id="bg" cx=".5" cy=".42" r=".95"><stop offset="0" stop-color="#FAFBFC"/><stop offset=".55" stop-color="#EDEFF1"/><stop offset="1" stop-color="#D6DADE"/></radialGradient><radialGradient id="shdw" cx=".5" cy=".5" r=".5"><stop offset="0" stop-color="#0c1116" stop-opacity=".38"/><stop offset=".65" stop-color="#0c1116" stop-opacity=".16"/><stop offset="1" stop-color="#0c1116" stop-opacity="0"/></radialGradient><filter id="soft" x="-20%" y="-20%" width="140%" height="140%"><feGaussianBlur stdDeviation="1.1"/></filter><linearGradient id="hd" x1="0" y1="0" x2="0" y2="1"><stop offset="0" stop-color="#65707a"/><stop offset=".16" stop-color="#aeb9c2"/><stop offset=".32" stop-color="#f2f6f8"/><stop offset=".42" stop-color="#ffffff"/><stop offset=".58" stop-color="#c3ccd3"/><stop offset=".82" stop-color="#7c868f"/><stop offset="1" stop-color="#525c66"/></linearGradient><linearGradient id="sh" x1="0" y1="0" x2="0" y2="1"><stop offset="0" stop-color="#65707a"/><stop offset=".16" stop-color="#aeb9c2"/><stop offset=".32" stop-color="#f2f6f8"/><stop offset=".42" stop-color="#ffffff"/><stop offset=".58" stop-color="#c3ccd3"/><stop offset=".82" stop-color="#7c868f"/><stop offset="1" stop-color="#525c66"/></linearGradient><radialGradient id="hf" cx=".38" cy=".34" r=".85"><stop offset="0" stop-color="#ffffff"/><stop offset=".45" stop-color="#f2f6f8"/><stop offset=".75" stop-color="#c3ccd3"/><stop offset="1" stop-color="#525c66"/></radialGradient></defs><rect width="280" height="200" fill="url(#bg)"/><ellipse cx="140.0" cy="137.14" rx="103.1072" ry="7" fill="url(#shdw)"/><rect x="64.06" y="87.0" width="65.84" height="26" rx="2" fill="url(#sh)"/><rect x="64.06" y="91.68" width="65.84" height="4.16" fill="#ffffff" opacity=".55" filter="url(#soft)"/><path d="M127.9 113.0 L131.1 87.0 L135.4 87.0 L132.2 113.0 Z" fill="#f2f6f8"/><line x1="127.9" y1="113.0" x2="131.1" y2="87.0" stroke="#525c66" stroke-width="1.1" opacity=".8"/><path d="M134.9 113.0 L138.1 87.0 L142.4 87.0 L139.2 113.0 Z" fill="#aeb9c2"/><line x1="134.9" y1="113.0" x2="138.1" y2="87.0" stroke="#525c66" stroke-width="1.1" opacity=".8"/><path d="M141.9 113.0 L145.1 87.0 L149.4 87.0 L146.2 113.0 Z" fill="#f2f6f8"/><line x1="141.9" y1="113.0" x2="145.1" y2="87.0" stroke="#525c66" stroke-width="1.1" opacity=".8"/><path d="M148.9 113.0 L152.1 87.0 L156.4 87.0 L153.2 113.0 Z" fill="#aeb9c2"/><line x1="148.9" y1="113.0" x2="152.1" y2="87.0" stroke="#525c66" stroke-width="1.1" opacity=".8"/><path d="M155.9 113.0 L159.1 87.0 L163.4 87.0 L160.2 113.0 Z" fill="#f2f6f8"/><line x1="155.9" y1="113.0" x2="159.1" y2="87.0" stroke="#525c66" stroke-width="1.1" opacity=".8"/><path d="M162.9 113.0 L166.1 87.0 L170.4 87.0 L167.2 113.0 Z" fill="#aeb9c2"/><line x1="162.9" y1="113.0" x2="166.1" y2="87.0" stroke="#525c66" stroke-width="1.1" opacity=".8"/><path d="M169.9 113.0 L173.1 87.0 L177.4 87.0 L174.2 113.0 Z" fill="#f2f6f8"/><line x1="169.9" y1="113.0" x2="173.1" y2="87.0" stroke="#525c66" stroke-width="1.1" opacity=".8"/><path d="M176.9 113.0 L180.1 87.0 L184.4 87.0 L181.2 113.0 Z" fill="#aeb9c2"/><line x1="176.9" y1="113.0" x2="180.1" y2="87.0" stroke="#525c66" stroke-width="1.1" opacity=".8"/><path d="M183.9 113.0 L187.1 87.0 L191.4 87.0 L188.2 113.0 Z" fill="#f2f6f8"/><line x1="183.9" y1="113.0" x2="187.1" y2="87.0" stroke="#525c66" stroke-width="1.1" opacity=".8"/><path d="M190.9 113.0 L194.1 87.0 L198.4 87.0 L195.2 113.0 Z" fill="#aeb9c2"/><line x1="190.9" y1="113.0" x2="194.1" y2="87.0" stroke="#525c66" stroke-width="1.1" opacity=".8"/><path d="M197.9 113.0 L201.1 87.0 L205.4 87.0 L202.2 113.0 Z" fill="#f2f6f8"/><line x1="197.9" y1="113.0" x2="201.1" y2="87.0" stroke="#525c66" stroke-width="1.1" opacity=".8"/><path d="M204.9 113.0 L208.1 87.0 L212.4 87.0 L209.2 113.0 Z" fill="#aeb9c2"/><line x1="204.9" y1="113.0" x2="208.1" y2="87.0" stroke="#525c66" stroke-width="1.1" opacity=".8"/><path d="M211.9 113.0 L215.1 87.0 L219.4 87.0 L216.2 113.0 Z" fill="#f2f6f8"/><line x1="211.9" y1="113.0" x2="215.1" y2="87.0" stroke="#525c66" stroke-width="1.1" opacity=".8"/><rect x="127.9" y="91.16" width="91" height="4.42" fill="#ffffff" opacity=".5" filter="url(#soft)"/><rect x="127.9" y="107.28" width="91" height="5.72" fill="#525c66" opacity=".35" filter="url(#soft)"/><path d="M218.9 87.0 L225.9 92.72 L225.9 107.28 L218.9 113.0 Z" fill="#c3ccd3"/><path d="M218.9 87.0 L225.9 92.72 L225.9 100 L218.9 100 Z" fill="#f2f6f8" opacity=".7"/><rect x="47.94" y="76.86" width="16.12" height="46.28" fill="url(#hd)"/><path d="M47.94 76.86 L47.94 89.3556 L51.486399999999996 76.86 Z" fill="#aeb9c2"/><path d="M47.94 123.14 L47.94 110.6444 L51.486399999999996 123.14 Z" fill="#7c868f"/><line x1="47.94" y1="89.3556" x2="64.06" y2="89.3556" stroke="#7c868f" stroke-width="1" opacity=".7"/><line x1="47.94" y1="110.6444" x2="64.06" y2="110.6444" stroke="#525c66" stroke-width="1" opacity=".7"/><rect x="47.94" y="89.3556" width="16.12" height="9.256" fill="#ffffff" opacity=".4" filter="url(#soft)"/><rect x="62.46" y="76.86" width="1.6" height="46.28" fill="#525c66" opacity=".6"/></svg>