<svg xmlns="http://www.w3.org/2000/svg" viewBox="0 0 280 200" width="280" height="200" role="img"><defs><radialGradient id="bg" cx=".5" cy=".42" r=".95"><stop offset="0" stop-color="#FAFBFC"/><stop offset=".55" stop-color="#EDEFF1"/><stop offset="1" stop-color="#D6DADE"/></radialGradient><radialGradient id="shdw" cx=".5" cy=".5" r=".5"><stop offset="0" stop-color="#0c1116" stop-opacity=".38"/><stop offset=".65" stop-color="#0c1116" stop-opacity=".16"/><stop offset="1" stop-color="#0c1116" stop-opacity="0"/></radialGradient><filter id="soft" x="-20%" y="-20%" width="140%" height="140%"><feGaussianBlur stdDeviation="1.1"/></filter></defs><rect width="280" height="200" fill="url(#bg)"/><ellipse cx="140" cy="150" rx="76" ry="7" fill="url(#shdw)"/><polygon points="167.0,74.6 194.0,98.0 194.0,110.0 167.0,86.6" fill="#eef3f7"/><polygon points="194.0,98.0 167.0,121.4 167.0,133.4 194.0,110.0" fill="#c9d3dc"/><polygon points="167.0,121.4 113.0,121.4 113.0,133.4 167.0,133.4" fill="#86919c"/><polygon points="194.0,98.0 167.0,121.4 113.0,121.4 86.0,98.0 113.0,74.6 167.0,74.6" fill="url(#nt)" stroke="#86919c" stroke-width=".6"/><ellipse cx="140" cy="98" rx="19" ry="9.5" fill="#5a6570"/><ellipse cx="140" cy="99.5" rx="15.579999999999998" ry="7.789999999999999" fill="#0d0f11"/><ellipse cx="140" cy="98" rx="17.1" ry="8.55" fill="none" stroke="#b4c0cb" stroke-width=".8" opacity=".8"/><ellipse cx="137" cy="116" rx="5.6" ry="2.8" fill="#b4c0cb" stroke="#86919c" stroke-width=".8"/><ellipse cx="109" cy="87" rx="5.6" ry="2.8" fill="#b4c0cb" stroke="#86919c" stroke-width=".8"/><ellipse cx="174" cy="90" rx="5.6" ry="2.8" fill="#b4c0cb" stroke="#86919c" stroke-width=".8"/></svg>