<svg xmlns="http://www.w3.org/2000/svg" viewBox="0 0 280 200" width="280" height="200" role="img"><defs><radialGradient id="bg" cx=".5" cy=".42" r=".95"><stop offset="0" stop-color="#FAFBFC"/><stop offset=".55" stop-color="#EDEFF1"/><stop offset="1" stop-color="#D6DADE"/></radialGradient><radialGradient id="shdw" cx=".5" cy=".5" r=".5"><stop offset="0" stop-color="#0c1116" stop-opacity=".38"/><stop offset=".65" stop-color="#0c1116" stop-opacity=".16"/><stop offset="1" stop-color="#0c1116" stop-opacity="0"/></radialGradient><filter id="soft" x="-20%" y="-20%" width="140%" height="140%"><feGaussianBlur stdDeviation="1.1"/></filter><linearGradient id="pl" x1="0" y1="0" x2="0" y2="1"><stop offset="0" stop-color="#6e7a86"/><stop offset=".16" stop-color="#b4c0cb"/><stop offset=".32" stop-color="#eef3f7"/><stop offset=".42" stop-color="#fbfdff"/><stop offset=".58" stop-color="#c9d3dc"/><stop offset=".82" stop-color="#86919c"/><stop offset="1" stop-color="#5a6570"/></linearGradient></defs><rect width="280" height="200" fill="url(#bg)"/><ellipse cx="140" cy="162" rx="96" ry="7" fill="url(#shdw)"/><path d="M52 132 L152 96 L236 120 L136 158 Z" fill="url(#pl)" stroke="#5a6570" stroke-width="1"/><path d="M52 132 L52 96 L152 62 L152 96 Z" fill="#eef3f7" stroke="#5a6570" stroke-width="1"/><path d="M152 62 L152 96 L236 120 L236 86 Z" fill="#c9d3dc" stroke="#5a6570" stroke-width="1"/><ellipse cx="104" cy="126" rx="9" ry="5" fill="#14181c"/><ellipse cx="186" cy="132" rx="9" ry="5" fill="#14181c"/><circle cx="86" cy="92" r="6.5" fill="#14181c"/><circle cx="196" cy="100" r="6.5" fill="#14181c"/><path d="M120 80 L184 102" stroke="#fff" stroke-width="5" opacity=".4" stroke-linecap="round"/></svg>