<svg xmlns="http://www.w3.org/2000/svg" viewBox="0 0 280 200" width="280" height="200" role="img"><defs><radialGradient id="bg" cx=".5" cy=".42" r=".95"><stop offset="0" stop-color="#FAFBFC"/><stop offset=".55" stop-color="#EDEFF1"/><stop offset="1" stop-color="#D6DADE"/></radialGradient><radialGradient id="shdw" cx=".5" cy=".5" r=".5"><stop offset="0" stop-color="#0c1116" stop-opacity=".38"/><stop offset=".65" stop-color="#0c1116" stop-opacity=".16"/><stop offset="1" stop-color="#0c1116" stop-opacity="0"/></radialGradient><filter id="soft" x="-20%" y="-20%" width="140%" height="140%"><feGaussianBlur stdDeviation="1.1"/></filter></defs><rect width="280" height="200" fill="url(#bg)"/><ellipse cx="140" cy="164" rx="70" ry="7" fill="url(#shdw)"/><ellipse cx="140" cy="74" rx="58" ry="19" fill="#eef3f7"/><path d="M82 74 L82 82 A58 19 0 0 0 198 82 L198 74" fill="#c9d3dc"/><ellipse cx="140" cy="74" rx="58" ry="19" fill="none" stroke="#86919c" stroke-width="1"/><path d="M90 70 L96 50 L102 70 Z" fill="#b4c0cb" stroke="#5a6570" stroke-width=".8"/><path d="M178 70 L184 50 L190 70 Z" fill="#86919c" stroke="#5a6570" stroke-width=".8"/><path d="M134 56 L140 36 L146 56 Z" fill="#eef3f7" stroke="#5a6570" stroke-width=".8"/><path d="M134 91 L140 71 L146 91 Z" fill="#c9d3dc" stroke="#5a6570" stroke-width=".8"/><rect x="120" y="82" width="40" height="56" fill="#c9d3dc"/><rect x="128" y="82" width="9" height="56" fill="#fff" opacity=".55"/><rect x="152" y="82" width="8" height="56" fill="#5a6570" opacity=".6"/><ellipse cx="140" cy="138" rx="20" ry="6.5" fill="#86919c"/><ellipse cx="140" cy="138" rx="13" ry="4.2" fill="#101418"/><ellipse cx="140" cy="74" rx="14" ry="4.6" fill="#101418"/></svg>