<svg xmlns="http://www.w3.org/2000/svg" viewBox="0 0 280 200" width="280" height="200" role="img"><defs><radialGradient id="bg" cx=".5" cy=".42" r=".95"><stop offset="0" stop-color="#FAFBFC"/><stop offset=".55" stop-color="#EDEFF1"/><stop offset="1" stop-color="#D6DADE"/></radialGradient><radialGradient id="shdw" cx=".5" cy=".5" r=".5"><stop offset="0" stop-color="#0c1116" stop-opacity=".38"/><stop offset=".65" stop-color="#0c1116" stop-opacity=".16"/><stop offset="1" stop-color="#0c1116" stop-opacity="0"/></radialGradient><filter id="soft" x="-20%" y="-20%" width="140%" height="140%"><feGaussianBlur stdDeviation="1.1"/></filter><linearGradient id="m" x1="0" y1="0" x2="0" y2="1"><stop offset="0" stop-color="#6e7a86"/><stop offset=".16" stop-color="#b4c0cb"/><stop offset=".32" stop-color="#eef3f7"/><stop offset=".42" stop-color="#fbfdff"/><stop offset=".58" stop-color="#c9d3dc"/><stop offset=".82" stop-color="#86919c"/><stop offset="1" stop-color="#5a6570"/></linearGradient><linearGradient id="rd" x1="0" y1="0" x2="0" y2="1"><stop offset="0" stop-color="#17181a"/><stop offset=".16" stop-color="#26282b"/><stop offset=".32" stop-color="#3a3d41"/><stop offset=".42" stop-color="#4a4e53"/><stop offset=".58" stop-color="#2c2f33"/><stop offset=".82" stop-color="#1c1e21"/><stop offset="1" stop-color="#121315"/></linearGradient></defs><rect width="280" height="200" fill="url(#bg)"/><ellipse cx="140" cy="168" rx="100" ry="7" fill="url(#shdw)"/><rect x="58" y="138" width="120" height="14" rx="3" fill="url(#m)" stroke="#5a6570" stroke-width="1"/><ellipse cx="74" cy="145" rx="5" ry="3.4" fill="#14181c"/><ellipse cx="160" cy="145" rx="5" ry="3.4" fill="#14181c"/><rect x="104" y="92" width="14" height="48" rx="2" fill="#c9d3dc" stroke="#5a6570" stroke-width="1"/><rect x="118" y="100" width="58" height="11" rx="3" fill="url(#m)" stroke="#5a6570" stroke-width="1"/><circle cx="111" cy="98" r="4" fill="#5a6570"/><circle cx="170" cy="105" r="4" fill="#5a6570"/><g transform="rotate(-52 111 98)"><rect x="111" y="92" width="96" height="12" rx="5" fill="url(#m)" stroke="#5a6570" stroke-width="1"/><rect x="172" y="89.5" width="42" height="17" rx="8" fill="url(#rd)"/><rect x="176" y="93" width="34" height="3.4" rx="1.6" fill="#4a4e53"/></g><rect x="168" y="105" width="7" height="34" fill="#fbfdff" stroke="#5a6570" stroke-width=".8"/><line x1="168" y1="110" x2="175" y2="110" stroke="#5a6570" stroke-width="1"/><line x1="168" y1="115" x2="175" y2="115" stroke="#5a6570" stroke-width="1"/><line x1="168" y1="120" x2="175" y2="120" stroke="#5a6570" stroke-width="1"/><line x1="168" y1="125" x2="175" y2="125" stroke="#5a6570" stroke-width="1"/><line x1="168" y1="130" x2="175" y2="130" stroke="#5a6570" stroke-width="1"/><line x1="168" y1="135" x2="175" y2="135" stroke="#5a6570" stroke-width="1"/><ellipse cx="171.5" cy="141" rx="11" ry="5" fill="url(#rd)"/></svg>