<svg xmlns="http://www.w3.org/2000/svg" viewBox="0 0 280 200" width="280" height="200" role="img"><defs><radialGradient id="bg" cx=".5" cy=".42" r=".95"><stop offset="0" stop-color="#FAFBFC"/><stop offset=".55" stop-color="#EDEFF1"/><stop offset="1" stop-color="#D6DADE"/></radialGradient><radialGradient id="shdw" cx=".5" cy=".5" r=".5"><stop offset="0" stop-color="#0c1116" stop-opacity=".38"/><stop offset=".65" stop-color="#0c1116" stop-opacity=".16"/><stop offset="1" stop-color="#0c1116" stop-opacity="0"/></radialGradient><filter id="soft" x="-20%" y="-20%" width="140%" height="140%"><feGaussianBlur stdDeviation="1.1"/></filter><linearGradient id="hd" x1="0" y1="0" x2="0" y2="1"><stop offset="0" stop-color="#6e7a86"/><stop offset=".16" stop-color="#b4c0cb"/><stop offset=".32" stop-color="#eef3f7"/><stop offset=".42" stop-color="#fbfdff"/><stop offset=".58" stop-color="#c9d3dc"/><stop offset=".82" stop-color="#86919c"/><stop offset="1" stop-color="#5a6570"/></linearGradient><linearGradient id="sh" x1="0" y1="0" x2="0" y2="1"><stop offset="0" stop-color="#6e7a86"/><stop offset=".16" stop-color="#b4c0cb"/><stop offset=".32" stop-color="#eef3f7"/><stop offset=".42" stop-color="#fbfdff"/><stop offset=".58" stop-color="#c9d3dc"/><stop offset=".82" stop-color="#86919c"/><stop offset="1" stop-color="#5a6570"/></linearGradient><radialGradient id="hf" cx=".38" cy=".34" r=".85"><stop offset="0" stop-color="#fbfdff"/><stop offset=".45" stop-color="#eef3f7"/><stop offset=".75" stop-color="#c9d3dc"/><stop offset="1" stop-color="#5a6570"/></radialGradient></defs><rect width="280" height="200" fill="url(#bg)"/><ellipse cx="140.0" cy="140.0" rx="86.24000000000001" ry="7" fill="url(#shdw)"/><rect x="78" y="98.0" width="9.000000000000007" height="20" rx="2" fill="url(#sh)"/><rect x="78" y="101.6" width="9.000000000000007" height="3.2" fill="#ffffff" opacity=".55" filter="url(#soft)"/><path d="M85.0 118.0 L88.2 98.0 L92.5 98.0 L89.3 118.0 Z" fill="#eef3f7"/><line x1="85.0" y1="118.0" x2="88.2" y2="98.0" stroke="#5a6570" stroke-width="1.1" opacity=".8"/><path d="M92.0 118.0 L95.2 98.0 L99.5 98.0 L96.3 118.0 Z" fill="#b4c0cb"/><line x1="92.0" y1="118.0" x2="95.2" y2="98.0" stroke="#5a6570" stroke-width="1.1" opacity=".8"/><path d="M99.0 118.0 L102.2 98.0 L106.5 98.0 L103.3 118.0 Z" fill="#eef3f7"/><line x1="99.0" y1="118.0" x2="102.2" y2="98.0" stroke="#5a6570" stroke-width="1.1" opacity=".8"/><path d="M106.0 118.0 L109.2 98.0 L113.5 98.0 L110.3 118.0 Z" fill="#b4c0cb"/><line x1="106.0" y1="118.0" x2="109.2" y2="98.0" stroke="#5a6570" stroke-width="1.1" opacity=".8"/><path d="M113.0 118.0 L116.2 98.0 L120.5 98.0 L117.3 118.0 Z" fill="#eef3f7"/><line x1="113.0" y1="118.0" x2="116.2" y2="98.0" stroke="#5a6570" stroke-width="1.1" opacity=".8"/><path d="M120.0 118.0 L123.2 98.0 L127.5 98.0 L124.3 118.0 Z" fill="#b4c0cb"/><line x1="120.0" y1="118.0" x2="123.2" y2="98.0" stroke="#5a6570" stroke-width="1.1" opacity=".8"/><path d="M127.0 118.0 L130.2 98.0 L134.5 98.0 L131.3 118.0 Z" fill="#eef3f7"/><line x1="127.0" y1="118.0" x2="130.2" y2="98.0" stroke="#5a6570" stroke-width="1.1" opacity=".8"/><path d="M134.0 118.0 L137.2 98.0 L141.5 98.0 L138.3 118.0 Z" fill="#b4c0cb"/><line x1="134.0" y1="118.0" x2="137.2" y2="98.0" stroke="#5a6570" stroke-width="1.1" opacity=".8"/><path d="M141.0 118.0 L144.2 98.0 L148.5 98.0 L145.3 118.0 Z" fill="#eef3f7"/><line x1="141.0" y1="118.0" x2="144.2" y2="98.0" stroke="#5a6570" stroke-width="1.1" opacity=".8"/><path d="M148.0 118.0 L151.2 98.0 L155.5 98.0 L152.3 118.0 Z" fill="#b4c0cb"/><line x1="148.0" y1="118.0" x2="151.2" y2="98.0" stroke="#5a6570" stroke-width="1.1" opacity=".8"/><path d="M155.0 118.0 L158.2 98.0 L162.5 98.0 L159.3 118.0 Z" fill="#eef3f7"/><line x1="155.0" y1="118.0" x2="158.2" y2="98.0" stroke="#5a6570" stroke-width="1.1" opacity=".8"/><path d="M162.0 118.0 L165.2 98.0 L169.5 98.0 L166.3 118.0 Z" fill="#b4c0cb"/><line x1="162.0" y1="118.0" x2="165.2" y2="98.0" stroke="#5a6570" stroke-width="1.1" opacity=".8"/><path d="M169.0 118.0 L172.2 98.0 L176.5 98.0 L173.3 118.0 Z" fill="#eef3f7"/><line x1="169.0" y1="118.0" x2="172.2" y2="98.0" stroke="#5a6570" stroke-width="1.1" opacity=".8"/><path d="M176.0 118.0 L179.2 98.0 L183.5 98.0 L180.3 118.0 Z" fill="#b4c0cb"/><line x1="176.0" y1="118.0" x2="179.2" y2="98.0" stroke="#5a6570" stroke-width="1.1" opacity=".8"/><path d="M183.0 118.0 L186.2 98.0 L190.5 98.0 L187.3 118.0 Z" fill="#eef3f7"/><line x1="183.0" y1="118.0" x2="186.2" y2="98.0" stroke="#5a6570" stroke-width="1.1" opacity=".8"/><path d="M190.0 118.0 L193.2 98.0 L197.5 98.0 L194.3 118.0 Z" fill="#b4c0cb"/><line x1="190.0" y1="118.0" x2="193.2" y2="98.0" stroke="#5a6570" stroke-width="1.1" opacity=".8"/><path d="M197.0 118.0 L200.2 98.0 L204.5 98.0 L201.3 118.0 Z" fill="#eef3f7"/><line x1="197.0" y1="118.0" x2="200.2" y2="98.0" stroke="#5a6570" stroke-width="1.1" opacity=".8"/><path d="M204.0 118.0 L207.2 98.0 L211.5 98.0 L208.3 118.0 Z" fill="#b4c0cb"/><line x1="204.0" y1="118.0" x2="207.2" y2="98.0" stroke="#5a6570" stroke-width="1.1" opacity=".8"/><rect x="85.0" y="101.2" width="126" height="3.4000000000000004" fill="#ffffff" opacity=".5" filter="url(#soft)"/><rect x="85.0" y="113.6" width="126" height="4.4" fill="#5a6570" opacity=".35" filter="url(#soft)"/><path d="M211.0 98.0 L218.0 102.4 L218.0 113.6 L211.0 118.0 Z" fill="#c9d3dc"/><path d="M211.0 98.0 L218.0 102.4 L218.0 108 L211.0 108 Z" fill="#eef3f7" opacity=".7"/><path d="M78 90.0 L78 126.0 L70.3 126.0 Q60.5 108 70.3 90.0 Z" fill="url(#hd)"/><path d="M71.0 95.76 Q64.7 108 71.0 115.2" stroke="#ffffff" stroke-width="2.4" fill="none" opacity=".6" filter="url(#soft)"/><rect x="76.5" y="90.0" width="1.5" height="36" fill="#5a6570" opacity=".55"/><circle cx="208" cy="64" r="26" fill="url(#hf)" stroke="#86919c" stroke-width="1"/><circle cx="208" cy="64" r="22.36" fill="none" stroke="#eef3f7" stroke-width="1" opacity=".8"/><rect x="189" y="60.96" width="38" height="6.08" fill="#1a1d20"/><g stroke="#1a1d20" stroke-width="5.1000000000000005" stroke-linecap="round"><line x1="193" y1="64" x2="223" y2="64"/><line x1="208" y1="49" x2="208" y2="79"/></g><g stroke="#ffffff" stroke-width="1.5" opacity=".5"><line x1="196.0" y1="62.2" x2="220.0" y2="62.2"/></g><rect x="201.18" y="57.18" width="13.64" height="13.64" fill="#1a1d20"/></svg>