<svg xmlns="http://www.w3.org/2000/svg" viewBox="0 0 280 200" width="280" height="200" role="img"><defs><radialGradient id="bg" cx=".5" cy=".42" r=".95"><stop offset="0" stop-color="#FAFBFC"/><stop offset=".55" stop-color="#EDEFF1"/><stop offset="1" stop-color="#D6DADE"/></radialGradient><radialGradient id="shdw" cx=".5" cy=".5" r=".5"><stop offset="0" stop-color="#0c1116" stop-opacity=".38"/><stop offset=".65" stop-color="#0c1116" stop-opacity=".16"/><stop offset="1" stop-color="#0c1116" stop-opacity="0"/></radialGradient><filter id="soft" x="-20%" y="-20%" width="140%" height="140%"><feGaussianBlur stdDeviation="1.1"/></filter></defs><rect width="280" height="200" fill="url(#bg)"/><ellipse cx="140" cy="154" rx="78" ry="7" fill="url(#shdw)"/><polygon points="166.0,69.5 192.0,92.0 192.0,130.0 166.0,107.5" fill="#f2f6f8"/><polygon points="192.0,92.0 166.0,114.5 166.0,152.5 192.0,130.0" fill="#c3ccd3"/><polygon points="166.0,114.5 114.0,114.5 114.0,152.5 166.0,152.5" fill="#7c868f"/><polygon points="192.0,92.0 166.0,114.5 114.0,114.5 88.0,92.0 114.0,69.5 166.0,69.5" fill="url(#nt)" stroke="#7c868f" stroke-width=".6"/><ellipse cx="140" cy="92" rx="20" ry="10.0" fill="#525c66"/><ellipse cx="140" cy="93.5" rx="16.4" ry="8.2" fill="#0d0f11"/><ellipse cx="140" cy="92" rx="18.0" ry="9.0" fill="none" stroke="#aeb9c2" stroke-width=".8" opacity=".8"/><ellipse cx="137" cy="110" rx="6.5" ry="3.4" fill="#aeb9c2" stroke="#7c868f" stroke-width=".8"/><ellipse cx="135" cy="109" rx="2.6" ry="1.2" fill="#fff" opacity=".85"/><ellipse cx="111" cy="82" rx="6.5" ry="3.4" fill="#aeb9c2" stroke="#7c868f" stroke-width=".8"/><ellipse cx="109" cy="81" rx="2.6" ry="1.2" fill="#fff" opacity=".85"/><ellipse cx="173" cy="84" rx="6.5" ry="3.4" fill="#aeb9c2" stroke="#7c868f" stroke-width=".8"/><ellipse cx="171" cy="83" rx="2.6" ry="1.2" fill="#fff" opacity=".85"/></svg>